<?xml version="1.0" encoding="UTF-8" standalone="no"?>
<!-- Created with Inkscape (http://www.inkscape.org/) -->

<svg
   width="4in"
   height="4in"
   viewBox="0 0 101.6 101.6"
   version="1.1"
   id="svg1"
   xml:space="preserve"
   inkscape:version="1.3 (0e150ed, 2023-07-21)"
   sodipodi:docname="NIKE-外擴.svg"
   xmlns:inkscape="http://www.inkscape.org/namespaces/inkscape"
   xmlns:sodipodi="http://sodipodi.sourceforge.net/DTD/sodipodi-0.dtd"
   xmlns="http://www.w3.org/2000/svg"
   xmlns:svg="http://www.w3.org/2000/svg"><sodipodi:namedview
     id="namedview1"
     pagecolor="#ffffff"
     bordercolor="#000000"
     borderopacity="0.25"
     inkscape:showpageshadow="2"
     inkscape:pageopacity="0.0"
     inkscape:pagecheckerboard="0"
     inkscape:deskcolor="#d1d1d1"
     inkscape:document-units="mm"
     inkscape:zoom="1.1595703"
     inkscape:cx="145.74364"
     inkscape:cy="214.73472"
     inkscape:window-width="1280"
     inkscape:window-height="747"
     inkscape:window-x="0"
     inkscape:window-y="25"
     inkscape:window-maximized="0"
     inkscape:current-layer="layer1" /><defs
     id="defs1" /><g
     inkscape:label="圖層 1"
     inkscape:groupmode="layer"
     id="layer1"
     transform="translate(0.0336004,0.40839683)"><path
       id="path43"
       style="fill:#008000;fill-opacity:1;stroke-width:0.793329"
       d="m 35.674161,18.746088 c -1.134846,0.06131 -2.288907,4.4e-5 -3.402344,0.267578 -0.890356,2.521981 -1.559825,5.132993 -2.358681,7.691478 -1.158371,3.8678 -2.298686,7.740612 -3.406944,11.622975 1.08501,0.269077 2.236381,0.07787 3.348828,0.146485 0.352636,-0.33328 0.361479,-1.127091 0.587592,-1.629855 0.662867,-2.152313 1.233067,-4.34623 2.021209,-6.451434 0.263135,-0.297888 0.713274,-1.697305 0.745422,-0.634596 0.370665,1.533144 0.04472,3.122068 0.08156,4.681943 -0.03983,1.350616 -0.08739,2.700997 -0.13031,4.05152 1.235677,-0.04102 2.471354,-0.08203 3.707031,-0.123047 1.864755,-6.488781 3.926868,-12.92511 5.62045,-19.4602 -1.0351,-0.345111 -2.2647,-0.05052 -3.374356,-0.182378 -0.770574,2.44352 -1.409888,4.947097 -2.293137,7.346806 -0.29834,0.400582 -0.743702,1.619045 -0.767021,0.489691 -0.330215,-1.423714 0.0314,-2.894525 0.003,-4.341308 0.04619,-1.169473 0.08435,-2.339266 0.127464,-3.508861 -0.169921,0.01107 -0.339843,0.02214 -0.509765,0.0332 z m 9.572265,-0.0078 c -1.908606,6.519881 -3.855559,13.05453 -5.732421,19.59375 1.101564,0.29893 2.265773,0.01863 3.390625,0.167969 0.340039,-0.41576 0.379921,-1.18596 0.603569,-1.739159 1.742752,-5.966566 3.525861,-11.92123 5.228462,-17.899513 -1.11135,-0.231704 -2.268777,-0.03731 -3.398698,-0.127717 z m 22.640626,0.01367 c -1.64688,0.04502 -3.314134,-0.0832 -4.945313,0.181641 -1.828555,5.889251 -3.435906,11.865746 -5.095703,17.785156 -0.07687,0.471991 -0.351276,1.093374 -0.31836,1.564453 0.580738,0.412148 0.07688,1.173473 -0.519531,1.199219 -8.098228,2.39489 -16.164631,4.911916 -24.304216,7.164273 -1.676882,0.381633 -3.487579,0.680241 -5.164213,0.185698 -2.628773,-1.217057 -3.760385,-4.332328 -3.568691,-7.075727 0.03191,-2.573654 0.902548,-5.02363 1.626964,-7.459791 -1.148041,1.016365 -2.002193,2.325503 -3.027826,3.463274 -2.116245,2.502103 -4.031249,5.146456 -5.189062,8.212533 -1.349415,3.306627 -2.167278,7.261606 0.0942,10.448731 1.381811,2.04189 3.773681,3.364153 6.25606,3.312582 2.947796,0.184397 5.957826,-0.408688 8.675221,-1.407823 4.619385,-1.598897 8.998234,-4.092123 13.467898,-6.208271 11.832713,-5.860706 23.7043,-11.645248 35.478205,-17.622494 0.701297,-0.352804 0.673965,-0.442394 -0.127111,-0.180794 -5.269413,1.412198 -10.457482,3.103843 -15.719383,4.542809 0.17026,-0.574973 0.974643,-1.224234 0.486328,-1.818359 -1.408157,-0.258172 -2.872493,-0.07186 -4.302734,-0.136719 0.497952,-1.829045 1.054151,-3.639573 1.605469,-5.453125 1.231119,0 2.462239,0 3.693359,0 0.288678,-0.942134 0.589289,-1.880958 0.847656,-2.832031 -1.000568,-0.273771 -2.093435,0.06525 -3.068567,-0.177828 -0.771252,-0.595875 -0.0055,-1.524255 0.103211,-2.253184 0.247728,-0.801402 0.507456,-1.59836 0.770044,-2.39516 1.220628,-0.04379 2.441416,-0.08304 3.662109,-0.125 0.28716,-0.939648 0.596127,-1.899654 0.845703,-2.814453 -0.743967,-0.160627 -1.506987,-0.114183 -2.261717,-0.09961 z m -17.822266,4.841797 c -1.436136,4.886598 -2.926159,9.777296 -4.259766,14.681641 0.842586,0.341101 1.815908,0.0838 2.712238,0.122245 0.814077,0.239097 0.891659,-0.468133 1.041601,-1.082388 0.793306,-2.555337 1.332821,-5.219734 2.586005,-7.60431 0.681586,2.873706 0.122304,5.856238 0.630859,8.751953 1.053956,-0.03901 2.221251,0.170716 3.195313,-0.201172 -0.140594,-3.673243 -0.359281,-7.340658 -0.673828,-11.017578 1.921899,-2.767243 4.001987,-5.463252 5.783203,-8.304688 -0.787879,-0.364301 -1.730229,-0.117696 -2.583985,-0.195312 -0.716994,-0.175605 -0.870543,0.73821 -1.2876,1.142532 -1.181834,1.599628 -2.205531,3.344649 -3.720212,4.662155 0.100275,-1.916472 1.033956,-3.637454 1.330078,-5.513672 -0.370927,-0.473959 -1.157105,-0.206961 -1.696094,-0.289275 -0.519095,0.121868 -1.407844,-0.250791 -1.688443,0.190139 -0.456457,1.552577 -0.912913,3.105153 -1.369369,4.65773 z M 37.037442,63.779291 c -0.01172,0.634766 -0.02344,1.269531 -0.03516,1.904297 -1.12928,-1.874756 -2.041649,-3.737913 -3.181641,-5.587891 -0.76237,0 -1.524739,0 -2.287109,0 0.04352,2.896012 -0.115977,5.864111 0.158203,8.695313 0.556115,0.198094 1.156266,0.0537 1.730469,0.132812 0.004,-2.030656 -0.01225,-4.061475 0.0332,-6.091797 1.127681,2.03072 2.207844,4.087104 3.361328,6.103516 0.652344,-0.04297 1.304687,-0.08594 1.957031,-0.128906 0,-2.86849 0,-5.736979 0,-8.605469 -0.608073,-0.04427 -1.216146,-0.08854 -1.824218,-0.132812 0.0293,1.236979 0.05859,2.473958 0.08789,3.710937 z M 14.873379,60.109369 c -0.428759,0.09369 -1.142071,-0.01872 -1.392578,0.301172 -10e-7,2.845573 -10e-7,5.691146 0,8.536719 2.051201,-0.141431 4.380817,0.183527 6.117188,-1.150391 1.188081,-0.956477 1.295343,-2.5535 1.777344,-3.890625 -0.562649,-0.003 -0.369936,-0.874564 -0.600789,-1.255998 -0.507206,-1.524192 -2.081749,-2.422998 -3.63702,-2.44215 -0.750494,-0.09212 -1.508384,-0.132166 -2.264145,-0.09873 z m 10.886719,0.002 c -1.869782,0.03342 -3.434064,1.597806 -3.728049,3.400431 -0.436712,0.477931 -0.412301,0.712925 -0.107191,1.444194 0.295437,1.636831 1.199862,3.483599 2.983678,3.846781 1.748873,0.355903 3.885542,-0.150036 4.719233,-1.877391 1.143345,-1.993204 0.831049,-5.02887 -1.248129,-6.282368 -0.789959,-0.447335 -1.721116,-0.595145 -2.619542,-0.531647 z m 17.736328,0.351563 c -0.189485,0.0824 0.15697,0.732322 0.006,1.046805 -0.0071,0.571769 1.108771,0.123396 1.574425,0.265695 0.853931,-0.268123 0.769704,0.401911 0.728125,1.029297 0,2.035156 0,4.070312 0,6.105468 0.630209,0 1.260417,0 1.890625,0 0,-2.378255 0,-4.75651 0,-7.134765 0.769532,0 1.539063,0 2.308594,0 -0.119815,-0.506748 0.248445,-1.50157 -0.2,-1.679688 -2.102604,0 -4.205208,0 -6.307813,0 1e-6,0.122396 0,0.244792 0,0.367188 z m 31.066407,8.447265 c 0.629557,0 1.259114,0 1.888672,0 0,-2.378255 0,-4.75651 0,-7.134765 1.11914,0 2.23828,0 3.35742,0 0.06491,2.335107 -0.139314,4.704105 0.177735,7.015625 0.592796,0.193144 1.239094,0.01961 1.851562,0.02539 -0.04301,-2.340279 0.06636,-4.695105 0.08008,-7.041015 0.766275,0 1.532551,0 2.298827,0 -0.119815,-0.506748 0.248445,-1.50157 -0.2,-1.679688 -3.151432,0 -6.302863,0 -9.454295,0 0,2.938151 0,5.876302 -10e-7,8.814453 z M 55.256192,60.111322 c -0.470603,0.04388 -1.186275,-0.02302 -1.474609,0.299219 0,2.833854 0,5.667708 0,8.501563 2.1679,-0.0156 4.687866,0.204041 6.398437,-1.400391 1.40991,-1.522069 1.563202,-4.088454 0.3851,-5.783407 -0.966157,-1.285037 -2.651913,-1.662705 -4.180022,-1.605265 -0.376321,-0.01504 -0.752355,-0.01875 -1.128906,-0.01172 z m -13.46875,0.01758 c -0.390613,0.09205 -1.019327,-0.106702 -0.980357,0.485511 -0.239719,0.974375 -0.595953,1.95941 -0.617299,2.959802 0.906629,0.198474 1.285805,-0.754843 1.591797,-1.416016 0.364866,-0.618908 0.626336,-1.2915 0.929687,-1.941406 -0.295092,-0.107629 -0.614391,-0.107881 -0.923828,-0.08789 z m 23.978516,0.0078 c -1.924634,0.168091 -3.414248,2.015232 -3.333268,3.918046 -0.179428,1.582137 0.22608,3.428059 1.715396,4.267034 1.235883,0.761721 2.862967,0.69764 4.180372,0.180154 1.383952,-0.632214 2.151656,-2.2039 2.230982,-3.666623 0.05116,-1.677651 -0.458681,-3.727296 -2.189967,-4.39783 -0.836018,-0.291804 -1.725477,-0.348404 -2.603515,-0.300781 z m -49.468751,1.419922 c 1.409241,-0.03563 2.698323,1.179437 2.639464,2.611497 0.142345,1.399504 -0.733267,2.967454 -2.208162,3.180187 -0.720574,0.382876 -1.587942,-0.29244 -1.390287,-1.084653 0.07229,-1.561388 0.01094,-3.133615 0.03125,-4.699219 0.309223,-0.003 0.61878,0.0071 0.927735,-0.0078 z m 39.904298,0.0078 c 1.355397,-0.09168 3.079829,0.762311 3,2.314453 0.187423,1.258785 -0.22792,2.846071 -1.583698,3.255687 -0.617275,0.252987 -1.291928,0.280523 -1.945599,0.365407 0,-1.978516 0,-3.957031 0,-5.935547 0.176432,0 0.352864,0 0.529297,0 z m 10.136718,0.0098 c 1.234197,0.07977 2.330091,1.311606 2.009766,2.570312 0.105925,1.049366 0.10395,2.382592 -0.982422,2.9375 -0.840877,0.580704 -2.093337,0.283456 -2.509765,-0.673828 -0.885731,-1.480568 -0.631102,-3.741009 0.880859,-4.707031 0.192087,-0.07527 0.393988,-0.132266 0.601562,-0.126953 z m -40.240234,0.002 c 1.519604,0.140012 2.21193,1.859058 2.065738,3.211446 0.002,1.180557 -0.704068,2.560768 -2.014957,2.622538 -1.466105,-0.04322 -2.274633,-1.675949 -2.087337,-2.994545 -0.0013,-1.184318 0.52549,-2.683646 1.878353,-2.83358 0.0528,8.77e-4 0.105378,-0.0078 0.158203,-0.0059 z m -4.611328,1.980469 c 0.331618,-0.52697 -0.347387,-0.518598 0,0 z M 84.97494,66.61724 c -1.097016,0.183974 -1.3121,2.040968 -0.109375,2.25 0.94337,0.212364 1.945114,-0.958086 1.183681,-1.759341 C 85.808121,66.769553 85.39699,66.545524 84.97494,66.61724 Z" /></g><g
     inkscape:groupmode="layer"
     id="layer2"
     inkscape:label="邊框層"><path
       id="path3"
       style="fill:#ff7f2a;stroke-width:0.793329"
       d="m 37.697228,17.442902 c -0.08695,-0.01957 -0.216984,-0.0087 -0.409277,0.03979 -1.940534,0.163485 -3.959309,-0.0094 -5.890597,0.521415 -1.024446,1.179129 -1.112229,2.817254 -1.656229,4.224032 -0.88653,2.912678 -1.747314,5.982757 -2.648934,8.799463 -0.594474,-0.729484 -1.569671,-0.255272 -2.154907,0.222725 -1.469743,1.057556 -2.403414,2.657171 -3.581694,3.925859 -2.549764,3.014207 -4.823191,6.353276 -5.983098,10.16372 -1.096502,3.173128 -1.36737,6.917029 0.47594,9.875367 1.523768,2.54361 4.304813,4.330359 7.28121,4.507735 -0.608212,0.370515 -1.139856,0.862307 -1.566313,1.431954 -1.128273,-1.537102 -3.07958,-2.162078 -4.920114,-2.185913 -1.58995,-0.146842 -3.204269,0.02734 -4.720642,0.531233 v 11.542965 c 2.743617,-0.311551 5.738127,0.241862 8.21956,-1.251603 0.511829,-0.336973 0.955751,-0.772568 1.317749,-1.266073 0.964118,1.552509 2.786142,2.49577 4.61325,2.376599 1.476888,0.01681 2.986199,-0.506763 4.050398,-1.548225 0.111022,0.96739 1.050061,1.526977 1.962671,1.52187 0.827464,0.01594 1.775179,0.205398 2.506307,-0.258382 0.367083,-0.277835 0.488518,-0.760364 0.476457,-1.20096 0.292911,0.524121 0.586946,1.047408 0.879016,1.571997 1.481111,-0.09516 2.961946,-0.190862 4.44314,-0.284737 -7.12e-4,-1.704434 -0.0052,-3.40898 0.0078,-5.113383 1.161732,0.04839 2.248626,-0.819649 2.60966,-1.851567 0.410453,0.06536 0.825821,0.05924 1.238167,0.0155 v 7.154602 h 5.064291 v -7.137032 h 2.308903 v -4.855517 c -3.383696,0.03823 -6.814788,-0.07824 -10.195326,0.06098 -2.569123,0.06291 -5.097619,-0.02432 -7.66715,-0.06099 h -2.962093 c 5.984506,-1.70125 11.373236,-4.910131 16.972091,-7.537525 11.546838,-5.721381 23.137283,-11.356997 34.61184,-17.217553 0.84448,-0.552253 1.960748,-1.058639 2.266012,-2.092379 0.124869,-1.016681 -1.121875,-1.42953 -1.933732,-1.20096 -2.156011,0.204345 -4.193567,1.025428 -6.278687,1.565796 -2.935159,0.841753 -5.889975,1.794558 -8.811348,2.570385 -0.438151,-1.076117 -1.704908,-1.337529 -2.747636,-1.269173 -0.427045,-0.07984 -1.368175,0.244754 -0.913123,-0.486275 0.172307,-0.602671 0.359673,-1.200638 0.540019,-1.800924 h 3.689181 c 0.540552,-1.745151 1.085444,-3.488562 1.548742,-5.25601 -0.971794,-0.735355 -2.217808,-0.908842 -3.403926,-0.861446 0.16071,-0.528782 0.332122,-1.053795 0.501778,-1.579748 1.225903,-0.04253 2.451952,-0.08337 3.677812,-0.127124 0.557499,-1.791786 1.113993,-3.58272 1.589567,-5.398121 -1.636698,-0.786122 -3.470991,-0.689602 -5.233273,-0.640787 -1.668451,-0.01618 -3.365974,-0.03084 -4.992977,0.353466 -1.304677,-0.647166 -2.805561,-0.244878 -4.191475,-0.390673 -0.71338,0.07231 -0.988655,0.814221 -1.368909,1.308447 -0.411616,-1.25985 -1.978171,-1.332586 -3.089217,-1.291911 -0.938195,0.168526 -1.990461,-0.297225 -2.837036,0.254765 -0.216635,0.529417 -0.506763,0.19631 -0.888318,0.04238 -1.42833,-0.521298 -2.979401,-0.184139 -4.459159,-0.307992 -0.489028,0.02424 -0.952425,0.329472 -1.156002,0.775663 -0.538569,-0.784742 -1.647723,-0.66113 -2.48667,-0.765844 -0.897915,0.01137 -1.812272,-0.0049 -2.69906,0.01757 -0.35765,0.102465 -0.673594,0.339812 -0.869198,0.65629 -0.0018,-0.403289 0.12547,-0.735041 -0.135392,-0.79375 z m -1.480013,1.678451 c -0.04311,1.169594 -0.08093,2.339358 -0.127124,3.50883 0.0284,1.446781 -0.333315,2.917624 -0.0031,4.341337 0.02332,1.129352 0.468538,-0.0888 0.766878,-0.489376 0.883248,-2.399707 1.522827,-4.903321 2.2934,-7.346839 1.109655,0.131858 2.338855,-0.162692 3.373954,0.182418 -1.69358,6.535084 -3.755575,12.97102 -5.620329,19.459794 -1.235675,0.04102 -2.471074,0.08197 -3.70675,0.12299 0.04292,-1.350521 0.09039,-2.700817 0.130225,-4.051432 -0.03684,-1.559873 0.289015,-3.148742 -0.08165,-4.681885 -0.03215,-1.062708 -0.48204,0.336699 -0.745174,0.634587 -0.788142,2.105202 -1.358716,4.299492 -2.021582,6.451802 -0.226113,0.502764 -0.234926,1.296079 -0.587561,1.629358 -1.112446,-0.06862 -2.263624,0.122833 -3.348633,-0.146244 1.108257,-3.882359 2.248657,-7.755267 3.407027,-11.623063 0.798855,-2.558483 1.468157,-5.169542 2.358512,-7.69152 1.113436,-0.267534 2.267532,-0.206374 3.402377,-0.267684 0.169921,-0.01106 0.339608,-0.022 0.509529,-0.03307 z m 16.005225,0.0088 c 0.322149,0.02281 0.674246,0.08522 0.933793,0.02429 0.538988,0.08231 1.325094,-0.184571 1.69602,0.289388 -0.296121,1.876216 -1.229876,3.596888 -1.330151,5.513358 1.51468,-1.317504 2.538354,-3.062104 3.720186,-4.661731 0.417057,-0.404321 0.570784,-1.31817 1.287777,-1.142566 0.853755,0.07762 1.795944,-0.168963 2.583822,0.195337 -1.781214,2.841433 -3.861213,5.537163 -5.78311,8.304403 0.314547,3.676916 0.533267,7.344693 0.673861,11.017932 -0.974061,0.371888 -2.141716,0.162011 -3.195671,0.201021 -0.508554,-2.895712 0.05113,-5.878217 -0.630452,-8.75192 -1.253183,2.384573 -1.7931,5.048852 -2.586406,7.604187 -0.149941,0.614254 -0.227204,1.321718 -1.04128,1.082621 -0.896329,-0.03845 -1.86991,0.218628 -2.712496,-0.122473 1.333606,-4.90434 2.823554,-9.795198 4.259689,-14.681791 0.456455,-1.552576 0.912969,-3.105022 1.369425,-4.657597 0.1403,-0.220465 0.432844,-0.237272 0.754993,-0.214457 z m -6.850745,0.01188 c 1.12992,0.09041 2.286893,-0.104063 3.398242,0.127641 -1.702599,5.978277 -3.485354,11.933123 -5.228104,17.899683 -0.223648,0.553198 -0.263542,1.323669 -0.603581,1.739428 -1.124851,-0.149338 -2.289445,0.130982 -3.391007,-0.167948 1.87686,-6.539213 3.823862,-13.074278 5.732466,-19.594153 z m 23.683826,0.0026 c 0.378092,0.0066 0.754563,0.03544 1.126546,0.115755 -0.249576,0.914798 -0.558267,1.874652 -0.845426,2.814299 -1.220692,0.04196 -2.441682,0.08127 -3.662309,0.125057 -0.262588,0.796799 -0.522251,1.593801 -0.769979,2.395203 -0.108711,0.728928 -0.874604,1.657218 -0.103353,2.253092 0.975131,0.243078 2.06798,-0.096 3.068547,0.177767 -0.258367,0.951072 -0.558816,1.889735 -0.847494,2.831868 h -3.693314 c -0.551318,1.813551 -1.107636,3.624371 -1.605587,5.453414 1.430239,0.06486 2.894941,-0.121746 4.303096,0.136426 0.488315,0.594124 -0.316532,1.243521 -0.486792,1.818494 5.261896,-1.438965 10.450047,-3.130679 15.719454,-4.542875 0.801076,-0.2616 0.828421,-0.171937 0.127124,0.180867 -11.773893,5.97724 -23.645236,11.761997 -35.477937,17.622697 -4.46966,2.116146 -8.848532,4.608994 -13.467912,6.20789 -2.717393,0.999134 -5.727647,1.592579 -8.67544,1.408183 -2.482376,0.05157 -4.87414,-1.271089 -6.25595,-3.312976 -2.261475,-3.187122 -1.443464,-7.141835 -0.09405,-10.448458 1.157812,-3.066074 3.072589,-5.710318 5.188832,-8.212419 1.025632,-1.13777 1.879682,-2.44699 3.027722,-3.463354 -0.724415,2.436158 -1.594864,4.885841 -1.626774,7.459493 -0.191694,2.743396 0.940004,5.858998 3.568774,7.076053 1.676633,0.494543 3.487146,0.195598 5.164026,-0.186035 8.139577,-2.252354 16.20624,-4.769016 24.30446,-7.163904 0.59641,-0.02575 1.100085,-0.787262 0.519348,-1.19941 -0.03292,-0.471078 0.241457,-1.092255 0.318327,-1.564245 1.659795,-5.919404 3.26726,-11.896233 5.095813,-17.785478 1.631177,-0.264841 3.298556,-0.136364 4.945434,-0.181384 0.377365,-0.0073 0.756723,-0.02267 1.134814,-0.01602 z m -9.096086,4.736662 c -0.479165,1.673175 -0.957955,3.346157 -1.437121,5.019332 -0.403063,1.436879 -0.803174,2.876527 -1.205095,4.314465 -0.09795,-1.705984 -0.221911,-3.409948 -0.363285,-5.112866 1.002187,-1.40691 2.009678,-2.810077 3.005501,-4.220931 z M 31.573054,39.187311 c 0.02742,0.0117 0.01525,0.275157 -0.0078,0.79375 -0.297456,0.888008 0.726185,0.455348 1.246435,0.523483 1.760927,-0.05952 3.522005,-0.116824 5.282882,-0.177767 0.01537,-0.75437 0.404797,-0.304375 0.827856,-0.12144 1.434495,0.481284 2.981892,0.172758 4.464327,0.267684 0.753315,0.197648 1.031418,-0.238663 1.112077,-0.939477 0.783629,1.139587 2.308996,0.907848 3.503146,0.880566 0.65725,-0.01858 1.314356,-0.04666 1.971455,-0.06976 -5.997079,1.775862 -11.96884,3.653429 -18.015437,5.250325 -1.358674,0.248873 -2.904334,0.620686 -4.187858,-0.05736 -1.766981,-1.162651 -2.364724,-3.572491 -2.158008,-5.497855 1.318267,0.70575 2.884976,0.329803 4.312915,0.433048 0.565779,-0.06422 1.436734,0.279898 1.417484,-0.569991 0.147979,-0.531062 0.200172,-0.712728 0.230526,-0.715206 z M 73.002567,58.91634 v 0.529166 11.462867 h 5.06429 v -7.134449 c 0.422098,0.134936 0.08702,1.090343 0.188102,1.570964 0.0014,1.521291 -0.06981,3.097697 0.333313,4.56768 0.643996,1.171542 2.132424,0.972944 3.251998,0.929659 0.555978,0.03007 1.088892,-0.304742 1.373043,-0.756026 1.412248,1.588297 4.348085,0.601257 4.69222,-1.438155 0.344282,-1.899752 -1.708717,-3.766428 -3.56309,-3.094902 -0.343714,-0.02826 -0.976082,0.840009 -0.86403,0.221692 0.01132,-0.667592 0.02279,-1.335386 0.03411,-2.002979 h 2.322338 V 58.91634 Z m -6.548954,0.0067 c -0.607011,0.0038 -1.2112,0.08501 -1.78077,0.237195 -1.123707,0.342167 -2.120767,1.076752 -2.799313,2.033467 -1.29472,-1.722136 -3.552464,-2.36649 -5.62808,-2.252059 -0.328125,-0.01747 -0.656573,-0.0058 -0.984953,-0.0078 -1.041257,-0.03581 -2.039426,0.311198 -3.037024,0.558622 v 11.41429 c 2.776397,-0.07088 5.836895,0.392898 8.295101,-1.212846 0.475699,-0.298655 0.898875,-0.683336 1.228349,-1.138948 1.193315,1.832232 3.538188,2.628289 5.6441,2.257743 2.317401,-0.203843 4.174088,-2.15493 4.634859,-4.376477 0.371365,-1.782904 0.04631,-3.725541 -0.857829,-5.298901 -1.043341,-1.541836 -2.89341,-2.225702 -4.71444,-2.214335 z M 36.98306,60.47695 c 0.608071,0.04427 1.216106,0.08854 1.824178,0.132808 v 8.605677 c -0.652343,0.04297 -1.304643,0.0857 -1.956986,0.128674 -1.153483,-2.01641 -2.233873,-4.072785 -3.361552,-6.103503 -0.04545,2.03032 -0.02907,4.060963 -0.03307,6.091617 -0.574203,-0.07911 -1.17453,0.06529 -1.730644,-0.132808 -0.27418,-2.831199 -0.11461,-5.799067 -0.15813,-8.695076 h 2.287199 c 1.139991,1.849976 2.052439,3.713018 3.181718,5.587772 l 0.03514,-1.904276 c -0.0293,-1.236978 -0.05855,-2.473907 -0.08785,-3.710885 z m 6.50443,0.02739 h 6.350082 c 0.448445,0.178117 0.08017,1.172736 0.199988,1.679484 h -2.308386 v 7.134965 h -1.890841 v -6.105571 c 0.04158,-0.627385 0.12581,-1.297517 -0.728121,-1.029394 -0.465653,-0.142299 -1.581164,0.306151 -1.574064,-0.265617 0.15097,-0.314483 -0.238143,-0.964565 -0.04866,-1.046965 z m 31.108778,0 h 9.454203 c 0.448445,0.178117 0.08017,1.172736 0.199988,1.679484 h -2.298568 c -0.01372,2.345907 -0.123108,4.701154 -0.0801,7.04143 -0.612468,-0.0058 -1.258771,0.167306 -1.851567,-0.02584 -0.317048,-2.311518 -0.112857,-4.680488 -0.177767,-7.015592 H 76.48504 v 7.134965 h -1.888774 z m -48.125228,0.0088 c 0.67794,0.03575 1.349532,0.202967 1.942,0.538468 2.079176,1.253497 2.39133,4.289102 1.247986,6.282304 -0.83369,1.727353 -2.97022,2.233307 -4.719092,1.877405 -1.783814,-0.363182 -2.608035,-3.199038 -2.737186,-4.130396 -0.05607,-0.404375 -0.09005,-0.124984 -0.05281,-0.82783 0.09664,-1.823879 1.771844,-3.699814 3.641624,-3.733234 0.224606,-0.01587 0.451498,-0.01863 0.677478,-0.0067 z m -11.564153,0.0047 c 0.75576,-0.03344 1.513451,0.0066 2.263945,0.0987 1.555269,0.01915 3.350812,1.511951 3.692238,3.081614 0.09338,0.429289 0.138705,0.452214 0.114358,1.517477 -0.01453,0.635727 -0.171214,1.911866 -1.359294,2.868342 -1.736369,1.333917 -4.052728,1.130655 -6.103927,1.272086 v -8.536947 c 0.250507,-0.319892 0.963921,-0.207584 1.39268,-0.301274 z m 40.382549,0.0021 c 0.376551,-0.007 0.75281,-0.0032 1.12913,0.01189 1.528108,-0.05744 3.213951,0.320034 4.180107,1.60507 1.178101,1.694951 1.024919,4.261559 -0.38499,5.783626 -1.710569,1.604431 -4.230678,1.384832 -6.398576,1.400432 v -8.501807 c 0.288334,-0.322239 1.003727,-0.255327 1.474329,-0.299207 z m 11.169861,0.01137 c 0.65977,0.0095 1.316538,0.09586 1.943551,0.31471 1.731284,0.670533 2.241207,2.720532 2.190047,4.398181 -0.07933,1.462721 -0.846921,3.034229 -2.230872,3.666443 -1.317404,0.517485 -2.944741,0.581369 -4.180623,-0.180351 -1.489315,-0.838974 -1.894569,-2.684788 -1.715141,-4.266923 -0.08098,-1.902812 1.408498,-3.750016 3.33313,-3.918107 0.219509,-0.01191 0.439984,-0.01712 0.659908,-0.01395 z m -24.213592,0.0026 c 0.155391,0.01102 0.309274,0.03765 0.45682,0.09147 -0.303351,0.649906 -0.522853,1.322577 -0.887719,1.941484 -0.305991,0.661172 -0.685006,1.614408 -1.591634,1.415934 0.02135,-1.000391 0.335358,-1.985135 0.575077,-2.959509 -0.03897,-0.592212 0.589689,-0.393709 0.980302,-0.485759 0.154718,-0.01 0.311764,-0.01463 0.467154,-0.0036 z m -25.915132,1.431339 c -0.308955,0.0149 -0.618369,0.0048 -0.927592,0.0078 -0.02031,1.565602 0.04077,3.138068 -0.03152,4.699454 -0.197655,0.792213 0.67004,1.467048 1.390613,1.084172 1.474894,-0.212733 2.350479,-1.780665 2.208134,-3.180168 0.05886,-1.432058 -1.230393,-2.64684 -2.639632,-2.61121 z m 39.374858,0.0078 v 5.935555 c 0.653671,-0.08488 1.328344,-0.112366 1.945618,-0.365353 1.355777,-0.409615 1.771306,-1.996831 1.583883,-3.255615 0.07983,-1.55214 -1.644422,-2.406267 -2.999817,-2.314587 z m 10.666016,0.0098 c -0.207574,-0.0053 -0.409427,0.05185 -0.601514,0.127124 -1.511959,0.966021 -1.766296,3.226123 -0.880566,4.70669 0.416427,0.957283 1.669048,1.254564 2.509924,0.67386 1.086371,-0.554907 1.088294,-1.887923 0.982369,-2.937288 0.320325,-1.258705 -0.776017,-2.490616 -2.010213,-2.570386 z m -40.239921,0.0021 c -0.05283,-0.0019 -0.10533,0.0066 -0.15813,0.0057 -1.352862,0.149934 -1.879738,1.649102 -1.878438,2.833419 -0.187296,1.318594 0.621107,2.951429 2.087211,2.994649 1.310888,-0.06177 2.016864,-1.442023 2.014864,-2.622579 0.146192,-1.352387 -0.545905,-3.071162 -2.065507,-3.211174 z m -0.04496,1.623154 c 0.74455,0.550825 0.600952,1.73301 0.26355,2.472717 -0.417665,0.419449 -0.642077,-0.44083 -0.679545,-0.734839 -0.01159,-0.56726 0.0095,-1.334703 0.415995,-1.737878 z m 40.338107,0.0078 0.09302,0.03514 0.0047,0.0021 c 0.295012,0.609611 0.294741,0.614497 0.343214,1.17509 0.03236,0.623687 -0.229393,1.610371 -0.585576,1.252668 -0.420503,-0.738143 -0.470717,-1.768495 0.144694,-2.464965 z m -49.433676,0.152445 0.03514,0.02687 c 0.565257,0.558484 0.452805,1.565693 -0.03721,2.133203 0.008,-0.719916 -0.02006,-1.440424 0.0021,-2.160075 z m 40.304517,0.0078 c 0.584247,0.329603 0.320412,1.137238 0.262951,1.681552 -0.132446,0.511811 -0.422114,0.582959 -0.296305,-0.0023 -0.05163,-0.554342 0.0231,-1.149141 0.03336,-1.679285 z m 28.025163,3.248898 c 0.304986,0.04861 0.581384,0.237683 0.762227,0.491443 0.761433,0.801254 -0.240537,1.971946 -1.183907,1.759582 -1.202724,-0.209032 -0.987461,-2.066018 0.109554,-2.249992 0.105513,-0.01793 0.210464,-0.01724 0.312126,-10e-4 z"
       sodipodi:nodetypes="cccccccccccccccccccccccccccccccccccccccccccccccccccccccccccccccsccccccccccccccccssscccccccccccccccsscccccccccccccccccccccccccccccccccccccccccccccccccccccccccccccccccccccccccccccccccccccccsccccccccccssccccccccccccccccccccccccccsscccscsscccssscccccsssccccccssccccccccccccccccccccccccccccccccccccccccccccccccccsccsscccccc" /></g></svg>
