<?xml version="1.0" encoding="UTF-8" standalone="no"?>
<!-- Created with Inkscape (http://www.inkscape.org/) -->

<svg
   width="100mm"
   height="100mm"
   viewBox="0 0 100 100"
   version="1.1"
   id="svg1"
   inkscape:version="1.3 (0e150ed6c4, 2023-07-21)"
   sodipodi:docname="showelder-logo.svg"
   xml:space="preserve"
   inkscape:export-filename="showelder-logo.png"
   inkscape:export-xdpi="96"
   inkscape:export-ydpi="96"
   xmlns:inkscape="http://www.inkscape.org/namespaces/inkscape"
   xmlns:sodipodi="http://sodipodi.sourceforge.net/DTD/sodipodi-0.dtd"
   xmlns="http://www.w3.org/2000/svg"
   xmlns:svg="http://www.w3.org/2000/svg"><sodipodi:namedview
     id="namedview1"
     pagecolor="#ffffff"
     bordercolor="#000000"
     borderopacity="0.25"
     inkscape:showpageshadow="2"
     inkscape:pageopacity="0.0"
     inkscape:pagecheckerboard="0"
     inkscape:deskcolor="#d1d1d1"
     inkscape:document-units="in"
     inkscape:zoom="1.9930928"
     inkscape:cx="169.58568"
     inkscape:cy="180.37294"
     inkscape:window-width="1920"
     inkscape:window-height="1001"
     inkscape:window-x="-9"
     inkscape:window-y="-9"
     inkscape:window-maximized="1"
     inkscape:current-layer="layer1" /><defs
     id="defs1" /><g
     inkscape:label="showelder layer"
     inkscape:groupmode="layer"
     id="layer1"
     style="display:inline"><path
       id="path2"
       style="fill:#8dd35f;fill-opacity:1"
       inkscape:label="border"
       d="m 42.33712,14.167969 c -2.43663,0.196888 -4.836686,1.610288 -5.904297,3.851562 -0.947516,1.167413 -2.571055,1.366184 -3.665285,2.356211 -0.692727,0.536103 -1.510452,0.896569 -2.373198,1.004329 -0.93367,0.36223 -2.233999,0.787595 -2.358001,1.944148 -0.0039,0.905684 1.00203,1.066834 1.630907,1.386991 0.57046,0.445758 1.342047,0.422201 1.915636,0.003 1.052287,-0.447199 2.153104,-0.767815 3.262051,-1.040394 -0.268751,0.444045 -0.381658,0.98153 -0.353516,1.470703 -0.211046,0.228839 -0.08489,0.701038 -0.509765,0.546875 -0.72452,0.0048 -1.193261,0.714815 -1.253907,1.378906 -1.492236,0.903904 -2.110509,2.609426 -3.2156,3.874915 -0.975182,1.262043 -1.707257,2.691166 -2.37815,4.130945 -0.872219,2.245977 -1.315737,4.629316 -1.863841,6.96662 -0.267024,1.727664 -0.243275,3.502701 -0.07952,5.236505 0.254287,0.78624 0.399871,1.587039 0.433594,2.410156 0.203598,0.958035 0.525843,1.948814 0.186648,2.915346 -0.17181,1.272603 0.467961,2.657552 1.48718,3.381529 0.693126,0.289777 1.69574,0.09735 2.125,-0.36914 -0.158622,1.682262 0.54373,3.297878 1.101112,4.847746 0.314954,0.533113 0.359101,0.802056 -0.357922,0.697807 -1.094136,0.103848 -2.212797,0.155619 -3.273579,-0.170743 -2.896372,-0.413592 -5.842239,-0.128654 -8.695547,0.438468 -1.518932,0.265429 -3.1971,0.33186 -4.493907,1.248604 -1.301946,1.05474 -1.198472,3.529713 0.490365,4.141422 1.515456,0.588678 2.996533,-0.424202 4.446275,-0.71307 3.287377,1.193233 6.960198,0.805226 10.185218,-0.41359 1.314524,-0.299543 2.657295,-0.657832 4.008141,-0.613754 0.86411,0.718109 0.882333,1.967002 1.400391,2.908203 0.359998,0.922773 0.140305,1.93801 0.385566,2.891885 0.179333,0.619175 0.01863,1.196219 -0.276191,1.742881 -0.326864,1.025209 -0.699234,2.119823 -0.583823,3.200691 0.208628,0.906614 1.19309,1.239219 1.974448,1.426262 1.098012,0.938771 1.801462,2.560567 3.406974,2.721644 0.920426,0.1656 1.959315,-0.537295 1.834595,-1.540064 -0.151306,-0.50262 0.37207,-0.321086 0.672493,-0.486268 1.278508,-0.471145 1.464695,-2.09478 1.01857,-3.218869 -0.316746,-0.875578 -0.678493,-1.799847 -0.381851,-2.734255 0.09104,-1.084595 1.058999,-1.766858 1.344676,-2.788577 0.730935,-1.76605 0.710912,-3.883075 0.952199,-5.625486 0.798238,0.645402 1.049556,1.694402 0.922905,2.674548 -0.02506,1.873098 -0.568549,3.691855 -0.702137,5.555954 -0.264858,1.373212 -0.421918,2.762813 -0.594926,4.146652 -0.253413,0.975451 -0.476531,2.31093 0.556106,2.917875 1.292828,0.725564 2.897277,0.736535 4.323513,0.462964 1.135415,-0.263361 2.47596,-0.992489 2.603914,-2.267759 0.04901,-0.880909 -0.588174,-1.683935 -1.335938,-2.039062 0.506906,-2.011651 1.151172,-4.043688 2.458584,-5.693659 0.874994,-1.134335 1.96114,-2.202675 2.20811,-3.681198 0.161426,-0.658746 0.253058,-1.331257 0.36065,-2.000143 0.753671,1.054763 1.925982,1.879048 3.270434,1.829116 2.126793,-0.07225 4.359233,-0.132144 6.317457,-1.061538 0.383789,-0.204103 0.75166,-0.444911 1.066406,-0.746094 -0.02376,1.477393 -0.0854,3.191188 0.936157,4.372661 0.73265,0.561256 1.431537,1.241625 2.391694,1.357207 0.678515,0.309341 1.482816,0.588811 2.19168,0.172476 0.58655,-0.286324 1.007504,-0.909173 0.986328,-1.570313 1.019192,0.554961 2.295366,0.569963 3.402344,0.300782 1.094595,-0.199184 1.640123,-1.47013 1.195241,-2.447106 -0.361898,-0.885811 -0.932533,-1.717021 -1.333913,-2.535316 2.923807,-0.328046 5.945014,-0.03827 8.785795,-0.909016 0.932773,-0.0992 2.152675,-0.492138 2.192721,-1.612468 0.01673,-1.488685 -1.638018,-2.230771 -2.927734,-2.201172 -2.500648,0.04411 -5.030935,-0.0075 -7.496094,0.457031 -0.679188,0.489089 -0.438273,-0.183242 -0.378513,-0.700393 0.14359,-1.330963 0.211895,-3.023606 -1.084378,-3.83281 -0.573086,-0.383158 -1.24576,-0.586527 -1.90625,-0.738282 0.206684,-1.086459 0.358374,-2.36915 -0.284654,-3.327359 -0.283355,-0.312117 -0.781095,-0.474778 -0.135268,-0.631625 1.077608,-0.653672 1.722842,-1.809063 2.78125,-2.501953 1.334125,-0.876074 2.075625,-2.416417 2.53054,-3.892361 0.272033,-1.832929 0.07981,-4.004997 -1.477805,-5.242405 C 75.600737,37.479162 74.4114,37.213476 73.3879,37.562488 72.923002,36.117259 71.242372,35.670263 69.883351,35.67612 c -1.625154,-0.06868 -3.400716,-0.132389 -4.777997,0.887851 -1.375346,0.897174 -2.024733,2.49001 -2.753782,3.894639 -0.764833,1.409626 -0.955147,3.277553 -0.01618,4.653502 0.210634,0.263792 -0.536853,0.275259 -0.633036,0.548032 -0.379539,0.266952 -0.373491,0.783785 -0.560547,1.125 -0.73577,0.369213 -1.595351,0.538999 -2.163187,1.191024 -0.768305,0.690766 -1.334997,1.57849 -1.754782,2.516008 0.05978,-4.47432 0.08723,-8.997605 -0.859424,-13.393143 -0.264832,-1.996365 -0.608635,-4.019125 -1.375671,-5.887719 -0.740083,-1.446504 -1.879525,-2.704527 -3.202437,-3.638433 -1.361656,-0.750847 -2.704927,-1.966106 -4.361296,-1.824846 -0.450895,0.103372 0.419492,-0.303914 0.486328,-0.541016 0.877798,-1.201625 0.856539,-2.780516 1.033203,-4.199219 0.216646,-0.334964 1.050687,-0.02027 1.509075,-0.09957 0.970561,-0.04374 2.163574,0.124646 2.907981,-0.620531 0.820291,-1.011184 -0.11281,-2.580803 -1.334807,-2.653948 -1.297684,-0.314003 -2.639662,-0.16297 -3.959202,-0.166967 -0.596132,-1.544916 -1.898311,-2.824601 -3.552734,-3.150391 -0.71285,-0.164845 -1.449601,-0.187338 -2.177735,-0.148437 z m -6.164062,15.080078 c 0.34837,1.018213 1.423326,1.52495 2.269807,2.078438 2.151314,1.21495 5.085432,1.581093 7.150288,-0.0073 0.802284,-0.572182 1.662979,-1.064788 2.607249,-1.342641 0.326973,-0.395006 0.948471,0.03975 0.880859,0.496094 0.287904,0.523826 0.520047,1.04996 0.642578,1.63086 0.259475,0.729515 0.911477,1.298977 0.880859,2.101562 0.256958,0.749293 0.884343,1.340838 0.962891,2.140625 0.34743,0.4623 0.390625,1.048061 0.71875,1.509766 -0.513113,0.801783 -0.534105,1.961462 0.198593,2.634178 0.464051,0.769477 0.703564,1.683558 0.860001,2.53965 -0.399868,1.265933 0.395877,2.484394 0.38716,3.75627 -0.07622,1.550558 -0.258395,3.104569 -0.187482,4.664419 0.04592,1.489641 -0.03918,2.97633 -0.176241,4.458217 -0.768818,-1.480163 -2.218815,-2.435722 -3.353515,-3.613281 0.60718,-0.821887 1.266098,-1.659954 1.46811,-2.696951 0.274742,-0.992375 0.887396,-1.895263 0.837036,-2.967852 0.0091,-1.048371 0.01244,-2.108614 -0.01804,-3.14965 -0.260476,-0.722085 -0.996852,-1.102652 -1.544922,-1.583985 -0.60728,-0.349733 -1.427213,-0.281339 -1.957031,0.181641 C 48.993821,40.898349 49.1679,39.386074 48.059773,38.582013 46.674914,37.933897 45.09354,37.930808 43.598839,38 c -0.710322,0.140659 -1.287946,0.745739 -1.431641,1.449219 -1.26052,-0.252928 -2.754168,0.307997 -3.345703,1.505859 -1.779712,0.428835 -3.213128,1.665387 -4.348643,3.047786 -0.323628,0.340067 -0.674569,0.668473 -0.981435,1.014714 -0.17536,-0.76591 0.293226,-1.390776 0.767578,-1.923828 0.679887,-0.996541 1.025981,-2.370424 0.423828,-3.486328 0.569621,-0.937666 1.730018,-1.87777 1.292969,-3.101563 -0.463338,-1.161531 -2.115809,-1.021271 -2.927734,-0.308593 -1.06127,0.964361 -1.630658,2.346711 -2.212891,3.630859 -0.888016,2.09076 -1.084994,4.387596 -0.944834,6.635127 0.06184,1.590731 0.06311,3.279815 0.76124,4.739873 0.608257,0.92282 2.09648,0.774323 2.592409,-0.18838 0.931438,-1.17588 1.508382,-2.582398 2.399779,-3.786229 -0.531433,1.167721 -1.411638,2.202623 -1.619113,3.496319 -0.574514,0.932874 -0.853847,2.034465 -1.48245,2.927509 -0.906976,0.444124 -2.192991,0.164268 -2.83789,1.117187 0.0107,-1.738723 -0.320513,-3.450842 -0.516701,-5.167367 -0.156018,-3.134607 -0.377809,-6.372595 0.678536,-9.388295 0.392795,-1.488068 1.015001,-2.933042 2.037849,-4.097505 0.708501,-1.144706 1.069414,-2.49034 2.018728,-3.48722 0.805262,-1.081155 1.556318,-2.26671 2.250338,-3.381097 z m 32.376953,14.259765 c 0.288615,0.368162 1.169059,-0.192674 1.005859,0.289063 -0.244582,1.219219 -0.993805,2.530321 -0.423828,3.753906 -0.211598,0.409597 -0.221652,0.901433 -0.05469,1.328125 -1.410575,-0.262619 -2.386577,1.365408 -2.129829,2.617908 -0.0109,1.325093 0.392603,2.610649 0.707954,3.870374 0.04034,0.557321 0.327653,1.131428 0.83789,1.396484 -1.220894,0.218101 -2.208106,1.036834 -3.085937,1.861328 -0.275313,-1.097051 -1.429923,-1.954064 -2.576172,-1.769531 -0.519454,-1.424755 -0.440707,-2.980908 -0.105469,-4.439453 0.09582,-0.876667 0.380443,-2.132626 -0.628906,-2.59375 0.04364,-0.44637 0.562277,-0.161134 0.81898,0.08299 1.058379,0.61395 2.420876,0.864233 3.579457,0.434586 1.029164,-0.626476 0.675022,-2.031881 0.07511,-2.835989 -0.362153,-0.697127 -0.998115,-1.30526 -1.762608,-1.460886 -0.204286,-0.347316 -0.406906,-0.568473 -0.0039,-0.84961 0.330943,0.145895 0.79011,0.584895 1.260602,0.674846 0.962988,0.387708 2.153868,-0.04635 2.512836,-1.053752 0.202672,-0.403417 0.158959,-1.010973 -0.02734,-1.306641 z m -22.310547,2.339844 c -0.351802,1.352163 -0.673275,2.825973 -0.07939,4.161806 0.316743,0.559205 -0.26302,0.250152 -0.610061,0.250304 -0.841838,-0.123771 -1.632193,0.779839 -1.20725,1.576825 0.498512,1.175222 1.757192,1.755011 2.703344,2.520831 1.061268,0.770415 2.185115,1.573732 2.886718,2.695312 0.244927,0.8533 0.03509,1.773686 0.282707,2.639274 0.244712,1.070577 0.244171,2.215057 -0.04393,3.304608 -0.311984,1.931186 -0.771998,3.842617 -1.43447,5.68022 -0.08957,0.66879 -0.40451,1.266895 -0.636337,1.883711 0.621173,-2.522862 0.585045,-5.133219 0.660156,-7.712891 -0.892624,-1.243182 -2.127606,-2.335978 -3.671875,-2.625 -1.036818,-0.535822 -0.835464,-1.912436 -1.373047,-2.800781 -0.558247,-1.172738 -1.043425,-2.596285 -2.27539,-3.214844 -0.805976,-0.337571 -1.889867,-0.520307 -2.628906,0.02734 -0.863627,0.891962 -0.119992,2.177815 0.469149,2.994113 0.83602,1.4571 0.378763,3.387433 1.538663,4.7012 -0.126435,2.010167 -0.538081,4.044189 -1.101562,5.992187 0.04023,0.24727 -0.514262,1.054439 -0.613317,0.737806 -0.701291,-1.940237 -1.581231,-3.797855 -2.451137,-5.647962 -1.052274,-1.710726 -2.58058,-3.166076 -3.107421,-5.16211 -0.0089,-0.407266 -0.672359,-1.248339 -0.117188,-1.333984 1.85484,-0.520717 2.877923,-2.366382 3.492937,-4.055447 0.675775,-1.734109 1.479417,-3.506979 2.341048,-5.09885 1.151915,-0.113581 2.538292,-0.406555 3.173828,-1.46875 1.2652,-0.04241 2.543825,0.06098 3.802734,-0.04492 z"
       sodipodi:nodetypes="cccccccccccccccccccccccccccccccccccccccccccccccccccccccccccccccccccccccccccccccccccccccccccccccccccccccccccccccccccccccccccccccccccccccccscccccccccccccccccsssccccccccccccccccccccccccss" /><path
       style="fill:#000000;fill-opacity:1"
       d="m 38.762756,78.788488 c -0.261246,-0.113953 -0.709413,-0.502609 -0.995926,-0.86368 -1.092001,-1.376169 -1.612226,-1.829126 -2.100765,-1.829126 -0.61192,0 -0.999386,-0.391559 -0.896249,-0.905719 0.279888,-1.395307 0.548147,-2.319726 0.793887,-2.73573 0.255951,-0.433291 0.265312,-0.589644 0.100233,-1.674149 -0.100147,-0.657922 -0.181629,-1.544413 -0.181073,-1.96998 5.57e-4,-0.425566 -0.06326,-0.839259 -0.14182,-0.919316 -0.07856,-0.08006 -0.339639,-0.740236 -0.580179,-1.467064 -0.55965,-1.69106 -1.164787,-2.430979 -1.99195,-2.435611 -1.051028,-0.0059 -3.778982,0.487375 -4.824121,0.872284 -2.793409,1.028774 -5.640219,1.20576 -8.131501,0.505537 l -1.344579,-0.37792 -1.413369,0.498471 c -1.644404,0.579954 -2.215247,0.616854 -2.771679,0.179164 -0.322698,-0.253834 -0.403712,-0.447891 -0.403712,-0.967035 0,-1.200665 0.757829,-1.672436 3.247063,-2.021392 0.952911,-0.133585 2.215206,-0.349409 2.8051,-0.479609 1.691912,-0.373436 5.676086,-0.446924 6.984821,-0.128836 1.217462,0.295905 1.577121,0.313596 3.280873,0.161381 0.971283,-0.08678 1.368894,-0.05636 1.915241,0.14651 1.320796,0.49044 1.341311,0.482327 0.660768,-0.261312 -0.815026,-0.890591 -1.271497,-1.796601 -1.869402,-3.710412 -0.515746,-1.650832 -0.613519,-2.842862 -0.257417,-3.1384 0.120648,-0.100129 0.689475,-0.248429 1.264059,-0.329555 1.285904,-0.181558 1.580071,-0.443984 2.196989,-1.959928 0.249804,-0.613839 0.592609,-1.310464 0.761789,-1.548056 0.16918,-0.237592 0.3076,-0.631715 0.3076,-0.87583 0,-0.261854 0.263283,-0.84899 0.642105,-1.43193 0.353158,-0.543448 0.772801,-1.33283 0.932542,-1.754183 0.414981,-1.09461 1.202669,-1.769511 2.228149,-1.909106 0.56499,-0.07691 0.932784,-0.22871 1.198894,-0.49482 0.472854,-0.472854 0.636221,-1.447902 0.314607,-1.877723 -0.200289,-0.267678 -0.285005,-0.279352 -0.833848,-0.114915 -0.336,0.100668 -0.863591,0.183033 -1.172425,0.183033 -0.4727,0 -0.678924,0.121174 -1.303807,0.766096 -0.40826,0.421354 -0.837066,0.770984 -0.952901,0.776956 -0.220575,0.01137 -2.176743,2.912198 -3.115369,4.619818 -1.430885,2.603177 -2.006496,1.844368 -2.176075,-2.868655 -0.127569,-3.545454 0.248076,-5.269836 1.740682,-7.990536 0.701677,-1.279006 1.185353,-1.73889 1.828853,-1.73889 0.436923,0 0.515374,0.05411 0.515374,0.355469 0,0.195508 -0.231186,0.626437 -0.513748,0.957621 -0.542931,0.636357 -1.018445,1.460486 -1.018445,1.765101 0,0.100233 0.110048,0.262711 0.244552,0.361062 0.424153,0.310149 0.137735,1.837189 -0.472693,2.52016 -0.271552,0.303824 -0.57263,0.703009 -0.669063,0.887078 -0.248331,0.474012 -0.217408,1.949367 0.0545,2.600129 0.126406,0.302532 0.229829,0.724696 0.229829,0.938142 0,0.384752 0.0028,0.385579 0.322318,0.09639 0.177276,-0.160432 0.494259,-0.585087 0.704407,-0.943678 0.210148,-0.358591 0.561153,-0.792836 0.78001,-0.964989 0.218857,-0.172153 0.787225,-0.763231 1.263038,-1.313506 0.654095,-0.756455 1.123342,-1.127303 1.923753,-1.520347 0.58225,-0.285916 1.205406,-0.521946 1.384791,-0.524511 0.214381,-0.0031 0.390344,-0.159629 0.513458,-0.456852 0.226627,-0.547128 0.65488,-0.845112 1.418225,-0.986819 0.677493,-0.125771 1.189597,0.09901 1.189597,0.522163 0,0.283492 -0.166635,0.366455 -0.983229,0.489526 -0.411083,0.06196 -0.498359,0.427318 -0.102075,0.427318 0.175564,0 0.319207,0.08968 0.319207,0.199283 0,0.472561 0.389428,1.032687 0.689487,0.99171 0.524099,-0.07157 0.842202,-0.965502 0.842468,-2.367498 2.97e-4,-1.56238 0.135755,-1.735887 1.351852,-1.731581 0.478536,0.0017 1.318233,0.06765 1.865992,0.146566 1.39366,0.200788 1.596068,0.472456 1.486699,1.995424 -0.09278,1.292003 -0.561756,2.941343 -0.962138,3.38376 -0.234564,0.25919 -0.48817,0.293503 -2.169285,0.293503 h -1.903668 l 0.103921,-0.47315 c 0.09661,-0.43986 0.082,-0.46142 -0.207582,-0.306438 -0.171327,0.09169 -0.453119,0.166711 -0.626204,0.166711 -0.248061,0 -0.335215,0.128289 -0.411578,0.605833 -0.05328,0.333208 -0.209231,0.703195 -0.346554,0.822194 -0.401781,0.348168 -1.956123,0.766464 -2.467817,0.664125 -0.381768,-0.07635 -0.463198,-0.04286 -0.463198,0.190501 0,0.155728 -0.383412,1.017427 -0.852025,1.914888 -0.468614,0.89746 -1.123032,2.362279 -1.454262,3.255153 -0.708413,1.90962 -1.013851,2.439906 -1.830117,3.177353 -0.686447,0.620164 -1.162606,0.783473 -1.924077,0.659903 -0.290372,-0.04712 -0.5279,-0.0383 -0.52784,0.01961 6e-5,0.05791 0.179019,0.760294 0.397688,1.560865 0.529791,1.939634 1.224471,3.388715 2.203569,4.596579 1.047482,1.292227 1.470564,1.966052 1.852749,2.950795 0.171424,0.441693 0.654863,1.534065 1.074309,2.427492 0.95063,2.024859 1.049755,2.729451 0.618208,4.394291 -0.565003,2.179691 -0.4513,2.712764 0.933566,4.376849 0.417498,0.501675 0.822388,1.078631 0.899756,1.282124 0.182325,0.479551 0.182311,1.729012 -1.9e-5,1.729012 -0.07738,0 -0.232513,0.03196 -0.344743,0.07102 -0.112231,0.03906 -0.417803,-0.02221 -0.679049,-0.136165 z m 7.55236,-35.084075 c 0.0161,-0.01215 0.05532,-0.572005 0.08715,-1.244111 0.03183,-0.672107 0.145701,-1.384549 0.25305,-1.583205 0.107348,-0.198657 0.13708,-0.414368 0.06607,-0.47936 -0.116114,-0.106272 -2.374414,-0.490052 -2.447229,-0.415886 -0.01657,0.01688 -0.06778,0.913677 -0.113796,1.99289 l -0.08367,1.962207 1.104573,-0.105218 c 0.607515,-0.05787 1.117749,-0.115162 1.133852,-0.127317 z m -0.0054,34.622063 c -1.288771,-0.290865 -1.419929,-0.466262 -1.173925,-1.569885 0.109203,-0.489905 0.249623,-1.476801 0.312044,-2.193102 0.06242,-0.7163 0.183564,-1.519683 0.269207,-1.785295 0.08564,-0.265613 0.202058,-1.092997 0.258701,-1.838632 0.05664,-0.745635 0.199968,-1.665969 0.3185,-2.045187 0.118531,-0.379218 0.234074,-1.482397 0.256762,-2.451509 0.03991,-1.704971 0.02647,-1.788709 -0.415234,-2.586229 -0.476636,-0.860593 -1.602135,-1.857131 -2.09746,-1.857131 -0.418791,0 -0.531827,0.461318 -0.638232,2.604728 -0.137166,2.763023 -0.705997,4.724567 -1.677089,5.783227 -0.217285,0.236879 -0.373812,0.737669 -0.502847,1.608803 -0.171284,1.156361 -0.161305,1.337149 0.116331,2.107567 0.548033,1.520748 0.609913,1.954236 0.350558,2.455773 -0.177652,0.343541 -0.342819,0.455394 -0.672456,0.455394 -0.633184,0 -0.866918,-0.346983 -0.668729,-0.992743 0.118163,-0.385009 0.110277,-0.613206 -0.03023,-0.8749 -0.844806,-1.573393 -1.031147,-1.874291 -1.267951,-2.047446 -0.253386,-0.185281 -0.248126,-0.225192 0.08995,-0.682467 0.508659,-0.687999 0.669324,-1.350188 0.47238,-1.946936 -0.154412,-0.467871 -0.128567,-0.529064 0.459855,-1.088817 0.343522,-0.326784 0.623463,-0.737781 0.623463,-0.915339 0,-0.177239 0.167377,-0.860164 0.371949,-1.517612 0.204572,-0.657447 0.448343,-1.815897 0.541713,-2.574333 0.09337,-0.758435 0.209658,-1.691837 0.258416,-2.074226 0.07681,-0.602409 0.03358,-0.760703 -0.323761,-1.185378 -0.337239,-0.400786 -0.454316,-0.776771 -0.642296,-2.062695 -0.199468,-1.364509 -0.309392,-1.695614 -0.83083,-2.502568 -0.33052,-0.511499 -0.600946,-1.089098 -0.600946,-1.283553 0,-0.332372 0.04633,-0.349103 0.77326,-0.279255 0.568865,0.05466 0.888632,0.184835 1.209734,0.49247 0.430612,0.412552 1.694269,3.040564 1.694269,3.523549 0,0.393498 0.443337,1.35083 0.802718,1.733375 0.180639,0.192281 0.651151,0.445438 1.045583,0.562572 1.077502,0.319984 1.590277,0.628859 2.17174,1.308167 l 0.526753,0.615392 -0.06589,2.414707 c -0.04803,1.760396 -0.162082,2.850642 -0.420895,4.023509 -0.295931,1.341081 -0.353115,2.029509 -0.343629,4.136922 0.0063,1.390465 -0.03994,2.752202 -0.102654,3.026081 l -0.114034,0.497963 h 1.174088 c 0.870763,0 1.157792,-0.04948 1.111012,-0.191524 -0.03469,-0.105339 -0.224989,-0.215153 -0.422885,-0.244033 -0.474362,-0.06923 -1.07177,-0.468323 -1.07177,-0.715996 0,-0.108346 0.171698,-0.56582 0.381552,-1.016608 0.209853,-0.450789 0.382649,-0.991987 0.383992,-1.202664 0.0013,-0.210676 0.110664,-0.589894 0.242937,-0.842706 0.132272,-0.252812 0.310388,-0.836104 0.395812,-1.296204 0.08542,-0.4601 0.321519,-1.164532 0.524656,-1.565404 0.203137,-0.400872 0.369341,-0.906947 0.369341,-1.124609 0,-0.217663 0.116134,-0.61641 0.258075,-0.886105 0.339901,-0.645825 1.076248,-3.862095 1.411389,-6.164766 0.122261,-0.84003 0.108725,-1.279494 -0.06135,-1.991851 -0.120023,-0.50271 -0.22068,-1.41732 -0.223682,-2.032467 -0.0032,-0.650007 -0.09542,-1.291738 -0.220261,-1.532193 -0.255805,-0.492721 -2.152102,-2.347333 -2.695573,-2.636318 -0.210242,-0.111794 -0.909579,-0.605465 -1.554081,-1.097047 -1.504494,-1.147523 -1.796395,-1.725844 -0.686158,-1.359433 0.613412,0.202445 1.051178,0.04875 1.326511,-0.46571 0.128599,-0.240291 0.08953,-0.571016 -0.171221,-1.449355 -0.309016,-1.040921 -0.321,-1.217383 -0.140454,-2.068153 l 0.197388,-0.930132 0.482602,0.467756 c 1.022827,0.991363 1.393942,0.533909 1.353113,-1.667912 -0.02565,-1.382988 0.01545,-1.708857 0.267843,-2.123884 0.380256,-0.62528 0.715517,-0.618588 1.421844,0.02838 l 0.566209,0.518628 v 1.848164 c 0,1.677119 -0.03545,1.914838 -0.383048,2.568579 -0.210677,0.396228 -0.383049,0.839623 -0.383049,0.985322 0,0.461699 -0.472637,1.428272 -1.03709,2.120917 -0.855992,1.050395 -0.786043,1.427756 0.449729,2.426214 1.004018,0.811209 2.224538,2.122903 2.53715,2.726677 0.08726,0.168541 0.238279,0.685657 0.335587,1.149145 0.101266,0.482336 0.417809,1.203076 0.74022,1.685412 0.489406,0.732166 0.58683,1.033641 0.742716,2.29829 0.167198,1.356424 0.129156,2.052552 -0.184207,3.370825 -0.05008,0.210676 -0.128888,0.589752 -0.175132,0.84239 -0.103988,0.568106 -0.67119,1.468475 -1.496304,2.375215 -1.192124,1.310058 -2.437846,3.84018 -2.831904,5.751733 -0.103551,0.502319 -0.283828,1.099492 -0.400616,1.327052 -0.290601,0.56623 -0.296537,0.556568 0.458725,0.746745 0.469497,0.118221 0.722624,0.28213 0.842707,0.545683 0.245921,0.539738 0.215959,0.726892 -0.175196,1.094363 -0.810982,0.761878 -2.496874,1.070967 -3.996016,0.732622 z m 23.648483,-9.827914 c -0.210677,-0.116901 -0.541475,-0.213563 -0.735108,-0.214806 -0.193633,-0.0012 -0.503902,-0.16253 -0.689487,-0.358419 -0.185585,-0.195888 -0.454483,-0.399186 -0.59755,-0.451775 -0.472875,-0.173817 -0.759196,-1.011139 -0.846575,-2.47574 -0.09869,-1.654251 0.09085,-2.283186 0.560103,-1.858517 0.201476,0.182334 0.295141,0.577713 0.362298,1.529348 0.04982,0.705893 0.187665,1.515812 0.306332,1.799821 0.269099,0.644046 1.169472,1.346006 1.872872,1.460152 0.595579,0.09665 0.728431,-0.144745 0.227273,-0.412957 -0.418401,-0.223921 -0.874793,-1.167829 -1.165367,-2.410205 -0.195583,-0.836236 -0.218355,-1.409031 -0.117388,-2.952739 0.0689,-1.053383 0.127031,-2.013054 0.129188,-2.132602 0.0038,-0.211734 -0.748264,-0.744956 -1.082332,-0.767366 -0.192677,-0.01292 -1.490982,1.579903 -2.054742,2.520866 -0.590039,0.984823 -0.657372,1.068145 -1.149145,1.422013 -0.791622,0.569634 -2.214422,0.968484 -3.983702,1.116741 -2.988349,0.25041 -3.437526,0.168669 -4.340395,-0.789861 -0.989441,-1.050438 -0.855841,-1.398795 0.48034,-1.252473 0.405089,0.04436 1.120267,-0.0114 1.589284,-0.123919 0.736999,-0.176804 1.052998,-0.170242 2.327861,0.04833 1.570491,0.269263 2.072683,0.223305 3.160515,-0.289238 0.737698,-0.347574 0.785745,-0.407301 0.899397,-1.118042 0.07082,-0.442902 0.302453,-0.748213 1.129248,-1.488461 0.572082,-0.512198 1.246004,-1.03671 1.497603,-1.165583 0.712106,-0.364751 1.674928,-0.477993 2.067093,-0.243122 0.297341,0.17808 0.359018,0.165579 0.513299,-0.104038 0.09644,-0.168541 0.618303,-0.728906 1.159688,-1.245255 0.928049,-0.885134 0.964217,-0.945202 0.632509,-1.050482 -0.443371,-0.140721 -2.626913,0.05359 -2.874192,0.25577 -0.275879,0.225565 -0.504675,0.009 -0.504675,-0.477717 0,-0.237126 -0.131172,-0.732935 -0.291493,-1.101798 -0.170348,-0.391933 -0.335733,-1.252473 -0.397942,-2.070598 -0.09004,-1.184112 -0.066,-1.461666 0.155896,-1.800326 0.289851,-0.442369 0.704403,-0.518535 0.984611,-0.180905 0.100186,0.120716 0.241175,0.620594 0.313309,1.11084 0.07214,0.490246 0.213237,1.26299 0.313561,1.71721 0.100323,0.454219 0.146709,1.091994 0.10308,1.417278 -0.0795,0.592725 -0.0238,0.684026 0.289275,0.474165 0.232503,-0.155851 0.354952,-0.730486 0.514094,-2.412579 0.07515,-0.794322 0.176819,-1.509238 0.22593,-1.588702 0.145405,-0.235271 0.977999,0.160446 1.071721,0.509369 0.154817,0.576379 0.07817,1.992394 -0.141177,2.60828 -0.24436,0.686108 -0.13989,0.841326 0.568956,0.845327 0.228583,0.0013 0.790716,0.142693 1.249184,0.314228 0.677908,0.253638 0.883928,0.417983 1.103181,0.880024 0.240576,0.506977 0.252883,0.76619 0.114317,2.407761 -0.08541,1.01179 -0.207409,1.960279 -0.271119,2.107753 -0.187764,0.434635 0.781079,0.348054 1.473311,-0.131663 0.498504,-0.345463 0.812195,-0.417357 2.30823,-0.529013 0.952228,-0.07107 2.695838,-0.148339 3.874689,-0.171711 1.881073,-0.03729 2.218367,-0.0054 2.756244,0.26088 0.455628,0.225535 0.625095,0.409188 0.660496,0.715785 0.05188,0.449341 -0.04386,0.49231 -1.962861,0.880915 -0.463488,0.09386 -1.152975,0.241665 -1.532193,0.32846 -0.379217,0.08679 -1.861614,0.184473 -3.294215,0.217062 -2.386109,0.05428 -4.119004,0.237231 -4.339966,0.458193 -0.146765,0.146765 0.269779,1.472551 0.590931,1.880831 0.165881,0.210882 0.301601,0.446731 0.301601,0.524108 0,0.07738 0.172371,0.394353 0.383048,0.704391 0.486025,0.71525 0.501012,1.336884 0.0383,1.588788 -0.189609,0.103225 -0.796137,0.188795 -1.347839,0.190155 -1.341804,0.0033 -2.039345,-0.486482 -2.350276,-1.650287 -0.115383,-0.431876 -0.397168,-1.474716 -0.626189,-2.317423 -0.471514,-1.734985 -0.477574,-2.48036 -0.01952,-2.401222 0.418706,0.07234 0.704866,0.408262 0.704866,0.827441 0,0.199842 0.06195,0.42885 0.137662,0.508907 0.07571,0.08006 0.285352,0.690855 0.465862,1.357329 0.546211,2.016711 0.879521,2.655337 1.491236,2.857221 0.686213,0.22647 0.804235,0.08742 0.438407,-0.516534 -0.907151,-1.497625 -1.307412,-2.46658 -1.307412,-3.164992 0,-0.398632 -0.07674,-0.944917 -0.17053,-1.213967 -0.138107,-0.396176 -0.108472,-0.750293 0.155874,-1.862552 0.298399,-1.255543 0.307393,-2.137355 0.0218,-2.137355 -0.06207,0 -0.538531,0.275128 -1.058802,0.611396 -0.614829,0.397383 -1.09204,0.853261 -1.363308,1.302364 -0.229548,0.380033 -0.528198,0.690969 -0.663666,0.690969 -0.416094,0 -0.509439,2.387963 -0.153003,3.914133 0.156546,0.670292 0.327987,1.464987 0.38098,1.765988 0.05299,0.301 0.267902,0.779799 0.477577,1.063997 0.857585,1.162392 0.08669,2.127108 -1.150966,1.44035 z m -9.193159,-7.66755 c -2.191901,-1.17187 -2.945927,-1.649381 -3.24858,-2.057266 -0.255361,-0.344148 -0.269921,-0.482028 -0.121055,-1.146299 0.09307,-0.415303 0.171467,-1.756133 0.174213,-2.979622 0.0047,-2.113093 0.02763,-2.278252 0.456974,-3.297061 0.497169,-1.179764 0.47614,-1.14194 1.129645,-2.031911 0.451091,-0.614316 1.367718,-1.262304 1.785621,-1.262304 0.116438,0 0.469031,-0.174858 0.78354,-0.388572 0.438477,-0.297953 0.571835,-0.49171 0.571835,-0.830824 0,-0.370554 0.08796,-0.471282 0.542587,-0.621321 0.699141,-0.230738 0.924134,-0.133749 1.040599,0.448574 0.08413,0.42067 0.153971,0.472827 0.633099,0.472827 0.481706,0 0.596602,0.08746 1.088841,0.828824 0.337707,0.508624 0.53069,0.967373 0.499528,1.18745 -0.04654,0.328654 -0.121208,0.357336 -0.893487,0.343193 -0.895693,-0.0164 -1.855296,-0.405738 -2.35099,-0.953856 -0.354195,-0.391654 -0.55098,-0.321707 -1.711039,0.608183 -0.708958,0.568292 -1.05466,0.997986 -1.501364,1.866134 -0.671679,1.305375 -1.021482,2.495561 -1.021206,3.474599 3.14e-4,1.112146 0.560574,3.578625 0.852692,3.753873 0.140469,0.08427 0.730219,0.5152 1.310554,0.957621 0.580336,0.44242 1.140301,0.802249 1.244366,0.799619 0.104066,-0.0026 0.460927,-0.171705 0.793025,-0.375723 l 0.603814,-0.370941 -0.450595,-0.163195 c -1.26181,-0.456999 -2.212617,-1.130897 -2.212617,-1.568224 0,-0.159665 -0.09623,-0.476485 -0.213841,-0.704045 -0.194178,-0.375697 -0.24514,-1.027571 -0.277903,-3.55474 -0.009,-0.697625 0.377617,-2.525269 0.579738,-2.740266 0.03047,-0.03241 0.265656,0.02816 0.522635,0.134607 0.454466,0.188246 0.464786,0.214983 0.37759,0.978244 -0.04931,0.43159 -0.153927,1.115609 -0.232494,1.520042 -0.20746,1.067937 -0.175927,2.123121 0.09966,3.334768 0.303506,1.334412 0.522258,1.575451 1.309134,1.442509 0.522877,-0.08834 0.645308,-0.04502 1.068317,0.377988 0.443246,0.443245 0.470104,0.52999 0.371764,1.200674 -0.0583,0.397602 -0.256377,0.998708 -0.440172,1.33579 -0.315516,0.578658 -0.376828,0.614666 -1.098117,0.64491 -0.647147,0.02714 -0.963055,-0.07442 -2.066307,-0.664259 z m -6.384708,-4.232487 c 0.04642,-0.948044 0.126674,-2.033986 0.178338,-2.413204 0.05166,-0.379218 0.07495,-1.378974 0.05175,-2.22168 -0.0483,-1.754303 -0.02333,-2.681145 0.107361,-3.983702 0.135496,-1.350481 0.108423,-1.722672 -0.218197,-2.999743 -0.248803,-0.972812 -0.267503,-1.26219 -0.11783,-1.823425 0.139954,-0.52479 0.137049,-0.680734 -0.01362,-0.730989 -0.105338,-0.03514 -0.191524,-0.262922 -0.191524,-0.506191 0,-0.439407 -0.801605,-2.199271 -1.080171,-2.371434 -0.241201,-0.14907 -0.163706,-0.72977 0.170557,-1.278052 l 0.314994,-0.516676 -0.315567,-0.335906 c -0.173562,-0.184748 -0.315567,-0.478153 -0.315567,-0.652013 0,-0.173859 -0.103423,-0.40194 -0.229829,-0.506848 -0.126406,-0.104908 -0.229829,-0.380702 -0.229829,-0.612877 0,-0.232175 -0.103423,-0.50797 -0.229829,-0.612878 C 52.134963,34.928 52.03154,34.755628 52.03154,34.649859 c 0,-0.105769 -0.107855,-0.281819 -0.239678,-0.391223 -0.146437,-0.121531 -0.206712,-0.330266 -0.154938,-0.53655 0.05075,-0.202192 -0.02618,-0.483341 -0.19177,-0.700856 -0.446961,-0.587122 -0.958776,-1.673863 -0.862043,-1.830381 0.04915,-0.07953 -0.05301,-0.325607 -0.227026,-0.546834 -0.174018,-0.221228 -0.316396,-0.554619 -0.316396,-0.74087 0,-0.412214 -0.358603,-0.755185 -1.123973,-1.074977 -0.545291,-0.227837 -0.597933,-0.224007 -0.972676,0.07077 -0.217902,0.171402 -0.554966,0.31164 -0.749031,0.31164 -0.194066,0 -1.005274,0.442346 -1.802685,0.982991 -1.20108,0.814331 -1.596891,1.001363 -2.306893,1.090072 -1.00056,0.125012 -1.926727,0.0093 -3.067325,-0.383081 -1.200201,-0.41293 -2.847839,-1.572003 -2.847839,-2.003385 0,-0.454543 2.036957,0.134833 2.997131,0.867193 0.774558,0.590784 1.576737,0.646998 2.16532,0.151737 0.26086,-0.219499 0.591452,-0.399089 0.73465,-0.399089 0.143198,0 0.295392,-0.133959 0.338207,-0.297686 0.04504,-0.172237 0.263243,-0.338407 0.517782,-0.394313 0.416165,-0.09141 1.214314,-0.852795 1.214314,-1.158388 0,-0.0778 0.149706,-0.141464 0.332679,-0.141464 0.182974,0 0.448634,-0.104937 0.590356,-0.233194 0.141723,-0.128258 0.638994,-0.313177 1.105048,-0.410933 0.814782,-0.170902 0.887452,-0.158592 1.889561,0.320088 0.573205,0.273804 1.241543,0.66557 1.485196,0.87059 0.243653,0.205021 0.533043,0.372765 0.643089,0.372765 0.256557,0 1.989137,1.781173 2.535814,2.606936 0.230202,0.347723 0.533044,1.092777 0.672983,1.655677 0.139939,0.562899 0.353064,1.368197 0.473611,1.78955 0.120548,0.421353 0.263032,1.248737 0.316633,1.838632 0.0536,0.589894 0.256043,1.796496 0.449871,2.681338 0.880952,4.021618 0.684717,17.432433 -0.276549,18.89951 -0.174393,0.266157 -0.402739,0.406123 -0.662568,0.406123 H 54.295951 Z M 27.701088,55.004197 C 27.59195,54.958587 27.335187,54.57413 27.130503,54.14984 26.780584,53.424494 26.76888,53.317 26.934598,52.350606 c 0.149334,-0.870849 0.137027,-1.167583 -0.0806,-1.943188 -0.141265,-0.503464 -0.256845,-1.241796 -0.256845,-1.640738 0,-0.398942 -0.101912,-0.922426 -0.226472,-1.163298 -0.12456,-0.240871 -0.224343,-0.806274 -0.221741,-1.25645 0.0026,-0.450176 -6.17e-4,-1.404566 -0.0072,-2.120866 -0.01168,-1.28087 0.07181,-1.770629 0.822819,-4.826408 0.740668,-3.013701 0.992416,-3.781007 1.573072,-4.794585 0.323825,-0.565262 0.753522,-1.355817 0.954881,-1.75679 0.201359,-0.400972 0.703042,-1.114075 1.114851,-1.584672 0.411809,-0.470598 0.912616,-1.17676 1.112903,-1.569249 0.371712,-0.728416 0.905259,-1.295772 1.656793,-1.761777 0.30679,-0.190231 0.421354,-0.385287 0.421354,-0.717394 0,-0.380811 0.06144,-0.456126 0.372104,-0.456126 0.468592,0 0.965329,0.449161 0.686984,0.621187 -0.135162,0.08354 -0.06171,0.227896 0.256813,0.504719 0.343118,0.2982 0.410744,0.443301 0.292901,0.628451 -1.40518,2.207765 -2.394512,3.659215 -2.865721,4.204304 -0.319789,0.369927 -0.648747,0.922577 -0.731018,1.22811 -0.141255,0.52458 -0.97883,1.993623 -1.231301,2.159607 -0.254442,0.16728 -1.080769,1.737546 -1.311954,2.493102 -0.134818,0.440612 -0.40651,1.318228 -0.603759,1.950258 -0.589655,1.889383 -0.718013,3.259487 -0.640009,6.831505 0.03946,1.806796 0.139073,3.370343 0.221373,3.47455 0.130993,0.165861 0.337964,2.048415 0.399848,3.636902 0.01824,0.468306 -0.02765,0.540012 -0.362157,0.565813 -0.210676,0.01625 -0.472342,-0.0078 -0.58148,-0.05338 z m 43.253057,-6.028332 c -0.05208,-0.08427 -0.22008,-0.15322 -0.37333,-0.15322 -0.435037,0 -0.7227,-0.427971 -0.497821,-0.740635 0.355023,-0.493611 0.383431,-0.68356 0.12995,-0.868911 -0.356205,-0.260463 -0.318117,-0.932259 0.127256,-2.244564 0.210089,-0.619035 0.383664,-1.435786 0.385723,-1.815004 0.004,-0.735296 0.39975,-3.363597 0.525394,-3.489241 0.167506,-0.167506 -0.266829,-0.665056 -0.832459,-0.953619 -0.785335,-0.400648 -2.543524,-0.423532 -3.344322,-0.04353 -0.73968,0.351002 -2.534118,2.20196 -2.747268,2.8338 -0.09341,0.276894 -0.267434,0.766841 -0.386721,1.08877 -0.166276,0.448743 -0.180433,0.744621 -0.06067,1.26799 0.111211,0.485997 0.107346,0.731533 -0.01342,0.852297 -0.488931,0.48893 -1.109548,-0.579026 -1.109548,-1.909305 0,-0.687336 0.127504,-1.07051 0.776672,-2.334036 1.214149,-2.363196 1.472359,-2.688547 2.579621,-3.250375 0.943561,-0.478767 1.051547,-0.497963 2.801174,-0.497963 1.86113,0 2.612305,0.167666 3.221608,0.719077 0.312111,0.282457 0.373427,1.11867 0.08222,1.121254 -0.105338,9.34e-4 0.02722,0.174124 0.294571,0.384865 0.71426,0.563018 1.030387,2.050037 0.895013,4.210015 l -0.100831,1.608803 0.372459,-0.536268 c 0.53262,-0.766867 0.617552,-1.145577 0.367673,-1.63945 -0.23855,-0.471483 -0.646222,-2.467147 -0.528114,-2.585256 0.154673,-0.154672 0.877352,0.243768 1.123492,0.619424 0.141301,0.215654 0.293348,0.715354 0.33788,1.110446 0.06579,0.583673 0.104087,0.655851 0.204284,0.384994 0.188598,-0.509831 -0.368494,-2.02202 -0.930229,-2.525042 -0.258794,-0.231744 -0.647564,-0.421353 -0.863933,-0.421353 -0.550079,0 -0.393612,-0.299705 0.301133,-0.576807 0.736261,-0.29366 1.512379,-0.09008 2.19283,0.575184 0.774153,0.756878 1.015064,1.43982 1.026362,2.909563 0.0097,1.257331 -0.01499,1.352861 -0.667123,2.584396 -0.565959,1.068804 -0.806711,1.361679 -1.466063,1.783461 -0.433896,0.27756 -1.126936,0.897759 -1.540087,1.378221 -0.41315,0.480461 -0.937368,0.970692 -1.164927,1.089401 -0.483557,0.252255 -0.983933,0.280268 -1.118449,0.06262 z m -4.632577,-4.132782 c -0.446742,-0.106096 -1.095055,-0.668816 -1.10805,-0.96176 -0.0081,-0.183118 0.885032,-0.132878 1.001988,0.05636 0.06682,0.108114 0.35267,0.137446 0.77514,0.07954 0.579358,-0.07941 0.669284,-0.05415 0.669284,0.188025 0,0.293255 -0.459278,0.798148 -0.701552,0.771229 -0.07764,-0.0086 -0.364199,-0.06865 -0.63681,-0.133396 z m 2.755641,-2.25298 c -0.291271,-0.114039 -0.228932,-0.580979 0.119683,-0.896472 0.280412,-0.253769 0.334591,-0.258257 0.547499,-0.04535 0.212909,0.212908 0.201065,0.274909 -0.119683,0.626549 -0.195787,0.214642 -0.442161,0.356514 -0.547499,0.315271 z m -3.308773,-0.329648 c -0.24922,-0.275385 -0.341589,-0.639117 -0.162302,-0.639117 0.236943,0 0.981261,0.548056 0.981261,0.722522 0,0.292047 -0.527828,0.238292 -0.818959,-0.0834 z m -5.47e-4,-1.674114 c -0.09122,-0.147594 0.434097,-0.803635 0.643499,-0.803635 0.307581,0 0.355606,0.32977 0.09066,0.622532 -0.275576,0.304508 -0.607315,0.386342 -0.734159,0.181103 z M 40.697891,26.363227 c -0.737398,-0.319841 -1.077094,-0.661555 -1.077094,-1.083493 0,-0.197615 0.0379,-0.359301 0.08422,-0.359301 0.196064,0 1.078196,0.524862 1.229722,0.731675 0.166625,0.227424 0.939172,0.208172 1.712141,-0.04267 0.432548,-0.140367 0.441984,0.06536 0.02718,0.592691 -0.372084,0.473028 -1.117,0.533751 -1.976172,0.161093 z M 35.560486,26.08051 c -0.30496,-0.239599 -0.304978,-0.241889 -0.0038,-0.474391 0.260433,-0.201063 0.27516,-0.277594 0.10565,-0.549023 -0.163145,-0.261236 -0.157825,-0.375131 0.03098,-0.663285 0.125371,-0.191341 0.276427,-0.616531 0.335681,-0.944866 0.05925,-0.328335 0.179006,-0.686619 0.266117,-0.796187 0.112324,-0.14128 0.09421,-0.263385 -0.06228,-0.419875 -0.192069,-0.192069 -0.309485,-0.174058 -0.906154,0.139002 -0.377021,0.197815 -0.995761,0.40042 -1.374979,0.450233 -0.379218,0.04981 -1.29459,0.334635 -2.034161,0.632936 l -1.344673,0.542366 -0.568299,-0.30459 c -0.312564,-0.167525 -0.659575,-0.30459 -0.771134,-0.30459 -0.11156,0 -0.159413,-0.07026 -0.106341,-0.156133 0.143954,-0.232921 1.55289,-0.916402 1.889084,-0.916402 0.553173,0 1.512947,-0.431361 2.321642,-1.043439 0.445708,-0.337344 0.955776,-0.682532 1.133483,-0.767084 0.177708,-0.08455 0.660878,-0.308958 1.073711,-0.498681 1.026199,-0.471601 1.648633,-1.053443 2.065216,-1.930533 0.590017,-1.242242 2.540327,-2.523657 4.232266,-2.780731 1.431815,-0.217552 2.815653,-0.0075 3.626516,0.550341 0.852154,0.586298 1.005098,0.771805 1.510548,1.832153 l 0.407879,0.855662 2.053937,-0.0293 c 2.274244,-0.03244 3.079015,0.18392 3.17429,0.853415 0.0644,0.452571 -0.451835,0.539347 -2.84436,0.47812 l -1.877227,-0.04804 2.64e-4,0.919316 c 2.83e-4,0.985507 -0.362024,3.132521 -0.605325,3.587133 -0.218064,0.407456 -0.896057,0.805507 -1.278791,0.750782 -0.461886,-0.06604 -0.508344,-0.534189 -0.106896,-1.077176 0.449567,-0.608072 0.87945,-2.750551 0.647045,-3.224785 -0.09229,-0.188316 -0.194435,-0.72161 -0.226997,-1.185099 -0.06739,-0.959315 -0.73092,-2.564262 -1.26919,-3.069941 -0.485695,-0.456286 -1.474455,-0.543978 -2.672598,-0.237028 -1.507306,0.386154 -1.816416,0.76978 -0.730619,0.906746 0.35815,0.04518 0.868453,0.127895 1.134006,0.183816 0.404155,0.08511 0.499454,0.04927 0.584897,-0.219933 0.226174,-0.71261 1.104844,-0.03773 0.951183,0.730577 -0.07766,0.388305 -0.04985,0.437249 0.209845,0.369336 0.190271,-0.04976 0.297594,-0.002 0.294497,0.131107 -0.0077,0.328776 -0.385573,0.745662 -0.675969,0.745662 -0.457278,0 -0.155851,0.38242 0.311886,0.395688 0.73352,0.02081 0.828614,0.05384 0.828614,0.287863 0,0.265464 -0.96919,0.577399 -2.604728,0.838336 -0.63203,0.100835 -1.423098,0.255208 -1.75793,0.343051 -0.334831,0.08784 -1.053413,0.222682 -1.596849,0.299642 -1.177752,0.16679 -1.457681,0.343211 -1.227378,0.773536 0.113157,0.211436 0.112197,0.441785 -0.0032,0.772872 -0.09043,0.259414 -0.164422,0.63617 -0.164422,0.837237 0,0.201066 -0.09568,0.518283 -0.212632,0.704927 -0.116947,0.186644 -0.256669,0.590983 -0.310493,0.89853 -0.05382,0.307547 -0.193308,0.638389 -0.309964,0.735206 -0.369177,0.30639 -1.207327,0.358317 -1.54181,0.09552 z m 7.650991,-6.67218 c 0.216162,-0.08218 0.393022,-0.220082 0.393022,-0.306438 0,-0.241296 -0.235707,-0.187655 -0.634207,0.144329 -0.405333,0.337676 -0.338587,0.382538 0.241185,0.162109 z m -1.214923,4.900613 c -0.05161,-0.08351 -0.0066,-0.52703 0.100008,-0.985607 0.189821,-0.816464 0.20351,-0.831941 0.659367,-0.745475 0.625048,0.118558 0.620458,0.108788 0.38552,0.82066 -0.259993,0.787785 -0.904123,1.299999 -1.144895,0.910422 z m -2.234905,-1.976046 c -0.367528,-0.301178 -0.368075,-0.305759 -0.06424,-0.538652 0.677686,-0.519459 1.595205,-0.132886 1.196186,0.503981 -0.228577,0.364827 -0.711021,0.379605 -1.131944,0.03467 z m 4.034375,-0.663853 c -0.400916,-0.193355 -0.467212,-0.805751 -0.102384,-0.945749 0.555124,-0.213021 0.976163,-0.09856 1.074195,0.292035 0.1002,0.399229 -0.145807,0.848864 -0.454305,0.830347 -0.09502,-0.0057 -0.327898,-0.08519 -0.517506,-0.176633 z"
       id="path3"
       inkscape:label="main" /></g></svg>
