<?xml version="1.0" encoding="UTF-8" standalone="no"?>
<!-- Created with Inkscape (http://www.inkscape.org/) -->

<svg
   width="297mm"
   height="210mm"
   viewBox="0 0 1122.5197 793.7008"
   version="1.1"
   id="svg1"
   inkscape:version="1.3 (0e150ed, 2023-07-21)"
   sodipodi:docname="圖畫.svg"
   xml:space="preserve"
   xmlns:inkscape="http://www.inkscape.org/namespaces/inkscape"
   xmlns:sodipodi="http://sodipodi.sourceforge.net/DTD/sodipodi-0.dtd"
   xmlns="http://www.w3.org/2000/svg"
   xmlns:svg="http://www.w3.org/2000/svg"><sodipodi:namedview
     id="namedview1"
     pagecolor="#ffffff"
     bordercolor="#000000"
     borderopacity="0.25"
     inkscape:showpageshadow="2"
     inkscape:pageopacity="0.0"
     inkscape:pagecheckerboard="0"
     inkscape:deskcolor="#d1d1d1"
     inkscape:document-units="mm"
     inkscape:zoom="1.2490413"
     inkscape:cx="542.81631"
     inkscape:cy="331.45421"
     inkscape:window-width="1280"
     inkscape:window-height="747"
     inkscape:window-x="0"
     inkscape:window-y="25"
     inkscape:window-maximized="1"
     inkscape:current-layer="layer1" /><defs
     id="defs1" /><g
     inkscape:label="雕刻"
     inkscape:groupmode="layer"
     id="layer1"
     style="display:inline"><path
       style="fill:#000000;stroke-width:1.46661"
       d="m 733.06633,557.23267 c -3.2945,-1.63682 -7.65917,-3.47168 -23.85583,-10.0288 -15.35265,-6.21543 -18.85077,-7.73932 -25.35722,-11.04661 -16.40705,-8.33982 -27.28966,-17.66068 -33.94971,-29.07762 -3.88673,-6.66285 -6.44529,-14.66795 -7.49294,-23.44368 -0.34968,-2.92984 -0.68041,-7.57842 -0.68041,-9.56552 v -1.1565 l 1.45971,0.0769 c 8.17479,0.43003 12.25905,0.85972 17.29398,1.81937 7.2939,1.39025 13.13659,3.28641 19.86608,6.44727 3.35378,1.57527 4.73078,2.31426 7.7383,4.15279 9.95966,6.08851 18.50177,14.29988 26.13137,25.1197 2.87628,4.07893 4.90345,7.40115 7.55602,12.383 4.42485,8.3105 7.10349,14.8354 11.37365,27.70508 0.814,2.45334 1.21561,3.19259 1.06435,1.95935 -0.0396,-0.32331 -0.40446,-3.09184 -0.81068,-6.15234 -1.9587,-14.75694 -2.53078,-23.52818 -2.37176,-36.36537 0.0508,-4.09501 0.17159,-8.36244 0.2687,-9.4832 0.88373,-10.20348 1.73197,-15.05079 5.77404,-32.99528 3.62919,-16.11163 4.46653,-21.12472 5.10541,-30.5657 0.37698,-5.57081 0.14484,-19.18667 -0.33485,-19.63735 -0.17343,-0.16303 -0.45252,0.59233 -1.17497,3.17889 -3.16147,11.31925 -10.52718,22.11775 -19.86175,29.1183 -8.11936,6.08923 -14.96345,8.31873 -23.74635,7.73551 -7.65934,-0.50859 -14.00623,-2.97681 -19.45302,-7.56498 -6.01328,-5.0654 -8.69567,-11.40178 -8.68288,-20.51098 0.006,-6.04787 1.38401,-11.197 4.66884,-17.47733 2.93298,-5.60757 6.7661,-10.26084 11.25981,-13.66894 3.44282,-2.61109 8.47452,-5.29157 15.181,-8.08717 3.7958,-1.58231 4.75446,-2.01819 4.75446,-2.16177 0,-0.12628 -2.53847,-0.25889 -7.34025,-0.3837 -1.88094,-0.0487 -4.17059,-0.16051 -5.08813,-0.24802 -4.75035,-0.45363 -11.92117,-2.25466 -16.47557,-4.13795 -8.36626,-3.45958 -17.24715,-10.13827 -21.6192,-16.2583 -4.42734,-6.19743 -5.52264,-12.76278 -3.17582,-19.03647 2.40327,-6.42458 7.62982,-11.88972 14.3031,-14.95605 6.20408,-2.85073 12.07832,-3.32226 19.5508,-1.56931 9.68441,2.27186 18.68877,7.31694 28.46388,15.94814 1.20788,1.06652 2.2401,1.9391 2.29384,1.9391 0.20455,0 0.0806,-0.50279 -0.41007,-1.66324 -0.74249,-1.75612 -1.29519,-3.6518 -1.68587,-5.78224 -0.44177,-2.40891 -0.61749,-8.78051 -0.31478,-11.41342 1.27483,-11.08833 6.50136,-21.30512 14.9295,-29.1841 5.67258,-5.303 12.71847,-9.28631 17.86291,-10.09853 0.98334,-0.15522 1.38375,-0.14436 2.47471,0.0674 2.46309,0.47807 4.7267,1.3474 6.27812,2.41116 8.78422,6.023 14.85596,15.19997 16.62758,25.1312 0.44448,2.49166 0.40878,6.86229 -0.0762,9.33988 -1.01954,5.20776 -3.02432,10.99243 -5.5192,15.92532 -0.56248,1.11217 -1.0227,2.11978 -1.0227,2.23918 0,0.37992 0.53612,-0.0117 2.88104,-2.10488 4.00617,-3.576 7.769,-6.06279 12.40202,-8.19624 4.39691,-2.02468 8.78518,-3.39578 13.99455,-4.37248 3.81455,-0.71519 5.59049,-0.83454 11.26995,-0.75747 4.62054,0.0627 5.28285,0.10623 7.33972,0.48107 8.03085,1.46381 13.96282,4.23889 19.15264,8.95976 2.80593,2.55259 4.4103,4.61292 5.42943,6.97259 0.5401,1.25066 1.33888,4.32283 1.60702,6.18049 0.22918,1.58718 0.1552,2.41743 -0.44058,4.95595 -1.45321,6.19003 -4.14238,10.37525 -8.92951,13.89749 -5.22185,3.84201 -10.99107,6.45072 -20.16431,9.11764 -6.88122,2.00058 -11.30689,3.11852 -14.0132,3.53975 -1.29284,0.20121 -4.32498,0.54832 -4.88944,0.55967 -0.39264,0.007 0.28056,0.42186 2.02486,1.2451 3.76364,1.77625 7.5418,4.44406 11.73639,8.28715 6.04662,5.53992 9.35903,10.7168 10.65172,16.64725 0.31689,1.45377 0.35011,2.01171 0.28411,4.7808 -0.0628,2.64076 -0.14477,3.43658 -0.5202,5.04843 -1.38871,5.96279 -4.89784,12.60672 -8.72239,16.51451 -3.97733,4.06384 -7.44279,6.46964 -11.41742,7.9261 -3.3267,1.21904 -5.62516,1.5558 -9.73192,1.42582 -3.2353,-0.1025 -5.29614,-0.54444 -8.97505,-1.92502 -6.14175,-2.30486 -11.97399,-6.13418 -17.56229,-11.53099 -4.22183,-4.07719 -7.11318,-7.56868 -11.86645,-14.3296 -2.65046,-3.76989 -2.69807,-3.77754 -1.91104,-0.30599 1.90996,8.42454 2.38857,15.63918 1.59604,24.05888 -0.46549,4.94542 -1.1363,9.12829 -3.58213,22.33648 -3.76256,20.31912 -4.94993,28.28141 -5.99565,40.20567 -0.92631,10.56282 -1.22099,18.57063 -1.22008,33.15202 6.6e-4,10.74506 0.15833,15.7662 0.50544,16.09229 0.3583,0.33664 1.04938,-3.00613 3.71029,-17.9466 1.90953,-10.72179 2.76535,-14.99677 3.83365,-19.14983 2.82435,-10.97972 6.79739,-19.48936 12.24452,-26.22599 8.2928,-10.25588 19.30306,-17.10834 35.0722,-21.82781 4.79495,-1.43506 14.34712,-3.58944 15.93092,-3.59303 l 0.6026,-8e-4 0.36713,1.60667 c 3.0808,13.48239 2.73526,26.07207 -0.99474,36.24779 -2.32434,6.34091 -6.22879,12.70667 -11.03498,17.99124 -1.68377,1.85139 -5.25966,5.24021 -7.39292,7.00622 -8.05714,6.67008 -16.82228,11.91976 -32.7809,19.63334 -9.30098,4.49564 -19.86023,9.52385 -19.97425,9.51157 -0.0705,-0.007 -1.10393,-0.49868 -2.29672,-1.0913 z"
       id="path2-6-1"
       inkscape:label="花朵"
       transform="matrix(0.37611311,0,0,0.37611311,321.30123,159.5816)" /><path
       d="m 466.06643,169.97086 c 4.0673,2.71711 6.44547,7.48348 6.4473,12.92181 10e-4,4.19024 0.09,4.31922 3.70178,5.40138 2.03516,0.60976 5.1904,2.514 7.01165,4.23166 2.74491,2.58878 3.31135,3.77822 3.31135,6.95338 0,5.10303 -4.00761,9.71145 -10.5762,12.16176 -2.66721,0.99497 -4.76948,2.07004 -4.67177,2.38905 1.0597,3.45909 1.21599,9.44288 0.31772,12.16466 -3.07513,9.31772 -14.29032,9.31261 -20.86114,-0.0103 l -2.7868,-3.95362 -3.84221,2.00269 c -6.78036,3.53411 -14.2541,2.10696 -17.02478,-3.25097 -1.55642,-3.00979 -1.75055,-11.32257 -0.32657,-13.98332 0.83301,-1.55648 0.44365,-2.47246 -2.37894,-5.59674 -6.92777,-7.66823 -6.91145,-14.99636 0.0437,-19.58121 3.36056,-2.21529 12.03461,-2.45398 16.80128,-0.46234 3.2434,1.35518 3.25028,1.35268 4.50274,-1.63609 2.81991,-6.72914 9.28738,-11.87471 14.92532,-11.87471 1.22594,0 3.65849,0.95493 5.40562,2.12212 z"
       style="fill:#000000;stroke-width:2.09974"
       id="path1-9-2-0"
       inkscape:label="小花"
       transform="matrix(0.37611311,0,0,0.37611311,321.30123,159.5816)" /><path
       style="fill:#000000;fill-opacity:1;stroke-width:0.861688"
       d="m 432.74337,574.48745 c 13.78537,-5.26355 11.09335,-16.09894 -8.60363,-34.6297 -14.10174,-13.26681 -39.34323,-32.15855 -50.55535,-37.83764 -8.12313,-4.11447 -9.1849,-4.29949 -20.23105,-3.52534 -6.41188,0.44937 -14.17608,1.21319 -17.25376,1.69738 -5.16609,0.81274 -6.09788,0.41238 -12.13429,-5.21372 -26.05313,-24.28224 -41.58322,-62.29277 -37.00027,-90.55971 2.82577,-17.429 9.79029,-29.08779 21.69001,-36.30968 12.44279,-7.55148 29.0832,-4.88882 47.33329,7.57387 18.35745,12.536 50.38309,47.80461 82.53137,90.88864 9.15711,12.27206 20.57203,26.94084 25.36648,32.59731 7.25164,8.55543 8.43022,10.66553 7.01021,12.55096 -5.82154,7.72967 -7.89458,13.84694 -6.88211,20.30814 0.56572,3.61021 2.24584,7.61699 3.7336,8.90396 12.77172,11.04807 17.53213,10.90623 30.88118,-0.92017 l 8.91293,-7.8963 17.62678,0.47769 c 40.44293,1.09599 65.96515,-11.57368 81.01409,-40.21681 8.94899,-17.03288 14.53224,-41.89473 14.62389,-65.11933 0.0479,-12.13679 0.0807,-12.24684 2.74333,-9.19389 1.48216,1.69947 5.17089,10.17136 8.19718,18.82644 l 5.50233,15.73649 1.05416,39.74471 c 1.04615,39.44271 2.09747,47.80136 7.19956,57.24092 2.52918,4.67932 7.45989,9.69753 9.52844,9.69753 0.9383,0 2.94222,1.30724 4.45315,2.90497 2.90509,3.07198 5.51496,3.08914 19.52195,0.12843 15.15885,-3.20421 20.75992,-18.82955 15.43432,-43.05728 -2.96731,-13.4992 -8.26448,-26.86769 -19.04394,-48.0612 -5.15083,-10.12705 -12.47307,-27.55395 -16.27165,-38.72644 -7.63639,-22.46035 -7.88415,-25.05039 -5.62335,-58.78705 1.32855,-19.8254 0.11299,-27.37493 -6.60403,-41.01598 -6.1367,-12.4625 -12.60053,-20.01945 -22.20482,-25.95993 -12.44806,-7.69942 -21.06043,-10.36512 -53.65335,-16.60678 -19.39788,-3.71476 -32.33014,-6.97418 -38.78643,-9.77566 -8.72077,-3.78406 -38.27586,-21.55109 -38.27586,-23.00952 0,-0.32583 1.73526,-5.46913 3.85613,-11.42955 3.19535,-8.98006 3.88206,-13.48867 4.00744,-26.3105 0.1099,-11.24079 -0.39579,-16.10446 -1.8487,-17.78052 -2.64905,-3.05591 -20.52879,-3.12225 -35.63701,-0.13223 -9.73432,1.92649 -11.46572,1.93934 -15.15727,0.1125 -18.52616,-9.16807 -56.58857,-10.01226 -75.64166,-1.67766 -7.25334,3.17291 -7.77064,3.20966 -16.75834,1.19063 -8.521,-1.91419 -27.96449,-1.81076 -30.02354,0.15972 -0.4024,0.38508 -1.31525,3.68967 -2.02855,7.34353 -1.49492,7.65765 0.44256,20.1054 3.91989,25.18414 2.10015,3.06734 2.04354,3.79045 -0.7253,9.26402 -6.73298,13.31009 -7.50238,35.03122 -1.68655,47.61321 3.90583,8.44988 7.73355,12.93331 15.62679,18.30375 4.18661,2.84852 7.85837,6.99138 10.22584,11.53787 11.38934,21.87209 35.05441,31.25038 60.32294,23.90551 9.0167,-2.62091 11.83625,-4.26544 18.89561,-11.02108 l 8.29749,-7.9405 14.2621,8.34768 14.2621,8.34766 -0.79871,16.58992 c -0.76202,15.82781 -1.01009,16.8716 -5.39999,22.72142 -5.64057,7.51643 -5.49152,12.18301 0.4098,12.83087 2.73568,0.30033 4.5271,1.56587 5.42861,3.83502 1.48633,3.74115 6.81908,4.62118 9.95954,1.64357 1.01119,-0.95875 4.25721,-1.74319 7.21337,-1.74319 h 5.37485 l 0.0675,-12.55095 c 0.055,-10.22365 0.67513,-13.66249 3.3444,-18.54528 l 3.2769,-5.99432 5.39909,4.13922 c 8.25208,6.32644 18.04868,16.63516 25.45531,26.78597 4.16472,5.70775 9.8336,11.24098 15.00177,14.64279 l 8.30737,5.46808 -0.78212,13.64481 c -0.54293,9.47182 -1.5497,14.80301 -3.29194,17.43189 -3.48897,5.26452 -27.79181,27.73381 -44.39166,41.04249 l -13.84386,11.0991 -8.44917,-8.83719 c -9.48307,-9.91857 -28.10819,-33.2054 -41.60419,-52.01736 -30.83829,-42.98522 -64.97574,-74.50943 -91.58575,-84.57481 -6.39962,-2.42069 -11.4786,-3.21533 -20.87462,-3.26593 -11.16571,-0.0601 -13.39671,0.39455 -22.13508,4.51135 -18.26132,8.60323 -30.41417,23.11308 -35.6103,42.51674 -3.85152,14.38261 -3.5115,42.30274 0.69655,57.19482 6.24213,22.09061 20.49081,46.13406 37.1477,62.68366 17.02813,16.91845 53.76615,42.01491 77.34038,52.83273 17.77441,8.15639 39.35295,11.70181 48.9405,8.04109 z m -26.4636,-8.29032 C 386.11906,559.69769 343.32081,535.15337 320.17794,516.8187 300.51666,501.24228 284.17,476.6654 276.55437,451.2315 c -4.784,-15.97708 -4.80965,-45.64469 -0.0521,-60.1926 6.07709,-18.58266 20.44998,-34.19438 35.05479,-38.07626 21.29854,-5.66102 45.40775,4.45537 74.25088,31.15619 19.50901,18.05998 31.68519,31.97903 64.80888,74.08542 13.27426,16.87406 26.16566,32.52329 28.64757,34.77605 5.4625,4.95817 5.54245,6.27761 0.58986,9.7348 l -3.8311,2.67432 -3.52832,-4.06888 c -5.3816,-6.20607 -26.68958,-33.53625 -34.7029,-44.51084 -9.26456,-12.68822 -32.24132,-39.89624 -47.10709,-55.78204 -32.52886,-34.76088 -59.45792,-48.2004 -79.80007,-39.82594 -13.06257,5.3776 -22.53673,17.70757 -27.43523,35.70507 -8.28458,30.43818 7.03755,73.27712 36.58614,102.29076 l 9.08307,8.91863 8.47414,-1.22417 c 15.67284,-2.26408 27.16169,-1.39642 34.20361,2.58313 12.10749,6.84223 53.11773,42.04979 59.01806,50.6674 2.17175,3.17191 2.1527,3.62284 -0.26095,6.17514 -3.46503,3.66408 -12.67622,3.61834 -24.27391,-0.12055 z M 659.7916,556.08422 c -0.60514,-0.91077 -1.11032,-6.31026 -1.12259,-11.99887 -0.0264,-12.23581 -1.5393,-12.1239 -2.8409,0.21016 l -0.92213,8.73821 -3.1835,-4.82806 c -5.94083,-9.0098 -7.89204,-22.02494 -9.10239,-60.71584 -1.0419,-33.3059 -1.44424,-37.24264 -4.94108,-48.34649 -6.39965,-20.32141 -8.22445,-23.23774 -22.21226,-35.49895 -7.33264,-6.42754 -15.0673,-14.75066 -17.87792,-19.2381 -7.73091,-12.34319 -15.16861,-34.56897 -15.32032,-45.78111 -0.0943,-6.97385 -0.64381,-9.4105 -2.12269,-9.41322 -1.59386,-0.003 -1.85997,2.59199 -1.32246,12.89592 1.18,22.61997 10.55431,43.17645 27.5167,60.34003 l 7.28511,7.37151 -7.72712,2.51 c -19.62283,6.37408 -47.70254,0.38123 -64.08808,-13.67786 -2.94651,-2.52816 -10.32947,-10.39114 -16.40657,-17.4733 -6.07711,-7.08217 -14.48639,-15.48364 -18.68729,-18.66996 -8.49079,-6.44013 -34.95585,-23.52865 -52.71784,-34.03998 l -11.56315,-6.84294 5.37578,-1.06886 c 6.77019,-1.34612 18.67728,-7.04054 27.31373,-13.06246 9.61134,-6.70169 14.29489,-15.80116 16.40411,-31.87085 l 1.72037,-13.10706 3.50096,2.713 c 7.55023,5.85088 30.20375,18.41261 38.62479,21.41803 4.88285,1.74267 21.66526,5.82878 37.29423,9.08025 34.35181,7.14658 43.65058,11.08825 55.81091,23.65775 15.42175,15.94067 22.95618,36.81582 20.56267,56.97166 -0.7005,5.89892 -1.24285,17.00079 -1.20522,24.67083 0.0633,12.89295 0.64429,15.66672 7.6982,36.75027 4.22798,12.63713 10.4848,27.87047 14.03326,34.16651 12.85452,22.80776 21.46482,55.67512 18.40497,70.2557 -1.65848,7.90291 -7.29892,15.71451 -11.3468,15.71451 -3.6849,0 -6.93891,-8.66768 -6.78738,-18.07946 0.14252,-8.852 0.10539,-8.94228 -2.05495,-4.99652 -2.60839,4.7641 -1.68992,16.09545 1.70674,21.05636 1.65399,2.4157 1.75532,3.35399 0.41114,3.80704 -2.32455,0.78347 -8.70307,-1.49885 -10.11103,-3.61785 z M 531.11733,362.71491 c 2.02006,-3.73831 2.59301,-3.99255 5.82326,-2.58408 2.7329,1.19162 4.11149,1.14225 5.81177,-0.20816 3.17779,-2.52386 2.80528,-4.67434 -2.14271,-12.36988 -5.0536,-7.85978 -5.62492,-15.28918 -2.21502,-28.80365 1.16116,-4.60201 2.13456,-9.28621 2.16311,-10.40933 0.12033,-4.73324 -4.25484,2.30317 -6.4378,10.35369 -3.47146,12.80233 -2.9421,20.13573 2.11797,29.34122 2.40446,4.37428 4.37174,8.18776 4.37174,8.47439 0,0.28663 -1.6821,-0.0909 -3.73799,-0.83888 -5.41287,-1.96943 -5.67626,-1.85508 -8.42279,3.65665 -2.02578,4.06536 -2.8894,4.70728 -4.55416,3.3851 -1.12987,-0.89737 -2.25762,-2.99798 -2.5061,-4.66805 -0.35785,-2.40499 -1.5866,-3.12637 -5.90865,-3.46883 l -5.45686,-0.43237 2.13637,-3.95353 c 3.73753,-6.91663 4.15493,-14.69158 1.53599,-28.61107 -2.12752,-11.30763 -2.91446,-13.28812 -5.27995,-13.28812 -3.39221,0 -3.40058,-0.71392 0.13469,11.49467 3.70925,12.80937 3.68893,20.63297 -0.0719,27.68762 -3.94236,7.39518 -2.74588,11.02155 3.63642,11.02155 3.98761,0 5.13976,0.72634 6.6362,4.18365 2.55321,5.89878 9.18824,5.91885 12.3664,0.0374 z m -53.92487,178.42343 c -0.97667,-1.51228 3.88902,-9.87372 10.52545,-18.08747 l 3.94363,-4.88093 -5.58044,4.88093 c -3.06924,2.68452 -7.37906,7.21313 -9.57738,10.06361 -2.19833,2.85047 -4.41207,4.78541 -4.91945,4.29987 -2.27121,-2.1735 -0.46508,-7.55561 5.09352,-15.17819 5.94419,-8.15138 3.61804,-7.73719 -4.18722,0.74555 -3.08653,3.35444 -3.27198,3.39212 -3.27881,0.66623 -0.0109,-4.36818 6.53724,-11.66684 21.85147,-24.35583 41.02049,-33.98851 53.78364,-45.15696 58.80346,-51.45617 l 5.54305,-6.95581 -1.02839,-12.58032 c -1.18716,-14.52256 -0.74866,-15.07802 9.54426,-12.08968 l 6.55761,1.90386 -0.49671,10.6199 c -0.47134,10.0775 -0.26891,10.89513 3.96375,16.00937 4.55307,5.50139 7.46232,11.34048 7.46232,14.97749 0,3.70468 -12.0592,14.62974 -29.09236,26.35628 -26.24102,18.06572 -35.59797,25.74589 -44.19674,36.27657 -7.36175,9.01573 -13.08996,14.1296 -20.64218,18.42839 -3.67704,2.09299 -9.04717,2.27898 -10.28884,0.35635 z m 36.15252,-15.01865 c -1.29351,-0.7867 -0.90553,-2.08924 1.45724,-4.89242 3.14377,-3.72974 3.63455,-3.83023 20.70706,-4.23941 13.84593,-0.33184 19.20041,-1.06061 25.71619,-3.50003 23.79838,-8.90984 36.51516,-33.72685 38.84966,-75.81575 l 1.01029,-18.21472 6.55761,-1.87229 c 3.6067,-1.02976 6.72156,-1.88181 6.92193,-1.89345 1.2201,-0.0709 0.004,23.77213 -1.79485,35.19338 -6.63929,42.15135 -26.82461,67.32119 -59.48514,74.17427 -9.83362,2.06336 -37.10057,2.78731 -39.93999,1.06042 z m 14.14945,-16.16162 c 0,-0.47743 11.86753,-8.62027 43.40625,-29.78294 5.03852,-3.38088 10.86291,-8.60825 12.94309,-11.61637 4.98424,-7.20765 4.08955,-14.31711 -3.05017,-24.23767 -5.00227,-6.95056 -5.17911,-7.60617 -4.27778,-15.85864 l 0.94021,-8.60835 h 8.71943 8.71943 l -0.75647,19.87235 c -1.3962,36.67779 -11.69052,58.11175 -32.39868,67.45778 -6.00593,2.7106 -9.65481,3.29083 -20.76578,3.30206 -7.41374,0.008 -13.47953,-0.2302 -13.47953,-0.52822 z m -61.9372,-119.38955 c -4.55451,0 -4.54142,-0.69626 0.12317,-6.54873 4.0572,-5.09041 6.35751,-15.87829 6.40932,-30.05823 0.0161,-4.41027 0.39316,-8.01867 0.83788,-8.01867 0.44472,0 4.76669,2.57226 9.60438,5.71612 7.41132,4.8164 8.64001,6.18831 7.80605,8.71595 -2.93996,8.91066 -5.06989,23.18213 -4.24523,28.44481 1.00703,6.42643 0.63482,6.82819 -3.88118,4.18921 -2.6311,-1.5375 -3.3524,-1.2624 -6.11321,2.33153 l -3.13013,4.07469 -1.88606,-4.42333 c -1.40935,-3.30532 -2.80582,-4.42335 -5.52499,-4.42335 z m -89.03528,-52.86243 c -10.89008,-4.73286 -19.34053,-14.8973 -23.87606,-28.71881 -2.24885,-6.8531 -4.39291,-9.37148 -4.39291,-5.15984 0,3.94805 -1.6905,3.87357 -6.87722,-0.303 -15.14157,-12.19264 -18.92505,-42.64833 -7.66922,-61.7345 4.81838,-8.17039 5.43158,-10.8974 2.18206,-9.7041 -1.27112,0.4668 -2.79394,-0.33251 -3.69164,-1.93772 -2.43995,-4.36293 -4.61678,-17.90888 -3.59405,-22.36498 0.8939,-3.89482 1.29901,-4.08446 8.72532,-4.08446 6.61193,0 22.06193,2.38972 23.87306,3.69255 0.30894,0.22223 -0.62384,2.1356 -2.07285,4.25192 l -2.63456,3.84786 4.25872,-2.59436 c 2.3423,-1.42689 5.57025,-3.69298 7.17323,-5.03576 7.77623,-6.51399 12.34519,-7.58518 34.55461,-8.10132 23.54229,-0.5471 33.09953,0.77339 43.64629,6.03051 l 6.79577,3.3874 14.33431,-3.48888 c 8.47373,-2.06245 17.30574,-3.32499 21.60208,-3.08804 7.07524,0.39023 7.28938,0.53014 8.08357,5.28177 1.54942,9.27017 -1.03989,31.37859 -4.51789,38.57528 -2.24985,4.6554 -3.45145,5.99092 -3.87525,4.30717 -1.64677,-6.54243 -2.58645,-0.71605 -2.58645,16.03688 0,17.92169 -0.13168,18.70597 -4.37175,26.03829 -4.98842,8.62645 -13.98832,14.92201 -29.12787,20.37535 l -9.29913,3.34959 -0.45934,-3.06064 c -0.39456,-2.62903 -1.20161,-2.06987 -5.72279,3.96505 -6.88347,9.18811 -16.4488,17.03934 -24.61012,20.19997 -9.10917,3.52773 -27.77342,3.54689 -35.84992,0.0368 z m 72.40437,-42.73639 c 7.80058,-2.29973 14.44922,-7.66783 14.44922,-11.66628 0,-4.67339 -4.48759,-15.83785 -8.55467,-21.28279 -4.63511,-6.20538 -12.18157,-9.9702 -17.67183,-8.81622 -9.49452,1.99563 -18.28059,15.09487 -19.86702,29.61995 -1.40458,12.8602 0.0149,14.33052 13.72103,14.21211 6.18332,-0.0534 14.24879,-0.98347 17.92327,-2.06677 z m -28.38368,-2.83108 c -1.38158,-3.44545 -1.04434,-10.20834 0.80338,-16.11012 2.21404,-7.07188 3.37153,-6.80574 3.58971,0.82536 0.0975,3.40984 1.49068,8.74018 3.09597,11.84517 l 2.91873,5.64547 h -4.76163 c -2.99768,0 -5.0893,-0.81717 -5.64616,-2.20588 z m 10.75747,-3.72096 c -7.43612,-11.6714 0.13268,-33.75041 10.69976,-31.21236 8.10483,1.94667 18.03512,17.64371 16.72617,26.43944 -0.58529,3.93293 -11.55285,9.30521 -18.99666,9.30521 -4.68827,0 -5.98631,-0.69793 -8.42927,-4.53229 z m -62.48298,4.88093 c 3.12863,-7.75188 -3.00608,-27.95707 -10.73364,-35.35216 -5.2275,-5.0026 -11.58221,-5.40682 -14.84825,-0.94451 -2.65904,3.63297 -3.09293,18.33822 -0.71854,24.3522 3.16236,8.00979 13.87448,15.77948 21.75527,15.77948 1.92313,0 3.55208,-1.37444 4.54516,-3.83501 z m -12.81181,-1.66867 c -3.77394,-2.20214 -4.82319,-3.90975 -5.65189,-9.19817 -1.12615,-7.18658 0.98533,-16.00997 4.49909,-18.80066 1.21791,-0.96729 2.40793,-1.5124 2.64451,-1.21135 4.00357,5.09479 7.26867,13.23135 7.87671,19.62866 1.20442,12.67195 -0.71243,14.6324 -9.36842,9.58152 z M 343.06877,275.4189 c -1.06919,-6.76337 1.42716,-16.72492 4.47141,-17.84285 1.19352,-0.43828 3.12857,-0.44489 4.30011,-0.0146 1.76749,0.64906 1.61711,1.44616 -0.88349,4.68289 -2.048,2.65089 -3.26421,6.88902 -3.79588,13.22752 -0.83178,9.91637 -2.5196,9.89456 -4.09215,-0.0529 z m 76.47429,-12.75191 c 0.0632,-0.93207 2.15026,-3.91292 4.63775,-6.62412 2.48749,-2.7112 3.83238,-4.92945 2.98866,-4.92945 -2.35057,0 -9.3422,9.43515 -8.49214,11.46006 0.54594,1.30046 0.78207,1.32596 0.86573,0.0935 z m -50.97431,-2.20961 c 0.17371,-2.2605 -4.24777,-9.0315 -6.41802,-9.82848 -2.93106,-1.07636 -2.83277,-0.11142 0.31042,3.04735 1.40259,1.40956 3.33132,3.76287 4.28604,5.22957 0.95473,1.4667 1.77442,2.16491 1.82156,1.55156 z"
       id="path1-2-1"
       inkscape:label="夢幻"
       transform="matrix(0.37611311,0,0,0.37611311,321.30123,159.5816)" /><path
       style="fill:#000000;stroke-width:0.827011"
       d="m 343.81206,306.5025 c -3.82753,-0.33297 -8.50652,-1.21903 -11.40272,-2.1593 -7.53617,-2.44674 -15.58278,-7.84763 -23.52554,-15.79039 -4.47949,-4.4795 -7.73864,-8.47613 -11.01823,-13.51144 -5.84352,-8.97184 -7.4045,-11.18964 -9.31758,-13.23814 -2.48155,-2.65722 -3.83634,-3.42554 -5.61134,-3.18225 -0.69605,0.0955 -1.50266,0.0466 -1.7925,-0.10858 -0.82851,-0.44341 -3.16374,-7.96608 -3.16374,-10.19161 0,-1.00379 0.0757,-1.08584 1.64043,-1.77783 1.99728,-0.88329 5.7705,-1.89282 10.00229,-2.67611 15.43495,-2.85698 34.08614,-2.529 49.44561,0.86948 12.50899,2.76779 27.73371,8.021 37.82698,13.05203 6.29926,3.13988 7.54377,3.50379 12.76851,3.73362 5.39517,0.23732 10.97999,-0.16968 12.93636,-0.94275 0.79056,-0.31239 3.4425,-1.54555 5.89322,-2.74035 10.47781,-5.10824 25.74916,-10.41391 37.22796,-12.93399 10.10731,-2.21897 16.49436,-2.88928 27.4538,-2.88117 13.07769,0.0104 23.06063,1.25471 30.9423,3.85905 3.48319,1.15095 3.75183,1.4614 3.31523,3.83096 -0.5371,2.91496 -2.29645,8.33297 -2.83426,8.72819 -0.32268,0.23716 -0.94991,0.30082 -1.82285,0.18502 -1.03395,-0.13718 -1.59535,-0.0416 -2.51641,0.42826 -2.36179,1.20491 -5.86634,5.49337 -10.24485,12.53647 -5.86961,9.44166 -12.4264,17.02058 -19.98504,23.10052 -10.82419,8.70665 -19.77128,11.93173 -33.07589,11.92255 -9.91253,-0.006 -18.33699,-2.9403 -25.59737,-8.91318 -6.01778,-4.95064 -10.54062,-12.908 -11.89928,-20.93534 -0.57161,-3.37726 -1.28998,-4.83052 -2.97131,-6.01096 -0.9756,-0.68496 -1.60431,-0.88592 -3.06191,-0.97874 -2.19194,-0.13956 -3.60398,0.27616 -4.94892,1.45705 -1.37825,1.2101 -1.75295,2.06004 -2.27134,5.15194 -0.82411,4.91551 -2.74686,9.77684 -5.61346,14.19275 -1.84074,2.83561 -6.58162,7.57569 -9.45992,9.45831 -7.8039,5.10432 -17.25513,7.34133 -27.31823,6.46592 z m 9.77413,-5.71128 c 13.27656,-2.30791 21.66873,-8.37095 24.87392,-17.97054 1.28751,-3.85612 0.9948,-7.10759 -1.01092,-11.229 -2.25221,-4.62794 -4.40608,-6.59828 -11.94193,-10.92444 -12.75362,-7.32157 -23.47555,-11.02096 -34.69785,-11.97181 -6.72704,-0.56996 -15.10278,0.67349 -19.67505,2.92097 -4.18822,2.05869 -7.56872,7.83419 -7.56872,12.93097 0,3.17871 1.58188,8.53814 4.04061,13.68969 3.41593,7.15705 9.75018,13.85474 16.8712,17.83919 3.66007,2.04794 8.55494,3.78326 14.16008,5.02 3.1302,0.69066 10.03079,0.54985 14.94866,-0.30503 z m 93.38405,0.2744 c 17.00243,-3.47341 28.37204,-13.37306 33.54394,-29.20707 1.9815,-6.06651 1.98405,-9.44649 0.0104,-13.54775 -1.9587,-4.06981 -4.25875,-6.16703 -8.30511,-7.57279 -4.53425,-1.57527 -7.85318,-2.09034 -13.56117,-2.10466 -9.31927,-0.0232 -17.76131,1.99088 -28.54653,6.81111 -6.00467,2.68365 -15.47504,8.14829 -17.69501,10.21044 -2.98181,2.76985 -5.53966,7.65682 -6.07122,11.59943 -0.3502,2.59762 0.91141,6.9201 3.05895,10.48047 3.74696,6.21202 11.23761,10.78347 20.87095,12.73734 6.1125,1.23976 12.43184,1.46441 16.695,0.59348 z"
       id="path3-5-1"
       inkscape:label="eyes-glass"
       transform="matrix(0.3761131,0,0,0.3761131,321.30122,159.5816)" /></g><g
     inkscape:groupmode="layer"
     id="layer3"
     inkscape:label="切割"
     style="display:inline"><circle
       style="display:inline;fill:none;fill-opacity:1;stroke:#ff0000;stroke-width:0.190863;stroke-dasharray:none;stroke-opacity:1"
       id="path21-5"
       cx="463.41177"
       cy="212.57016"
       r="10.871483" /><path
       id="path2-6"
       style="display:inline;fill:none;stroke:#ff0000;stroke-width:0.377953;stroke-dasharray:none;stroke-opacity:1"
       d="m 233.23924,91.258586 a 33.719749,33.719749 0 0 0 -33.72071,33.720704 33.719749,33.719749 0 0 0 22.19532,31.59766 c -2.15025,-0.21869 -4.25378,-0.95691 -6.42579,-1.05469 -5.89824,-0.61604 -11.90488,-0.7401 -17.76367,0.28906 -2.42039,0.53714 -4.67851,2.19661 -5.44922,4.62305 -1.38937,3.72818 -1.96677,7.7499 -1.86132,11.7207 0.0823,3.00596 0.61025,5.97636 1.20898,8.91602 -0.73903,0.95093 -1.78809,1.90485 -3.08789,1.72461 -7.96159,0.0253 -16.04634,0.73817 -23.5957,3.41211 -1.99584,0.69611 -3.80886,2.10684 -4.57618,4.12695 -0.95434,2.21257 -0.36038,4.66055 0.16602,6.89844 0.56232,1.99109 1.25955,3.97213 2.26758,5.78125 1.12368,1.69918 3.04072,2.68567 4.98828,3.0957 2.11674,1.04055 2.9659,3.40329 4.3125,5.1875 3.35115,5.04532 6.88968,10.04945 11.43164,14.10742 5.19966,4.95623 11.38929,9.02475 18.32031,11.06641 2.13358,1.04991 3.93759,2.66799 5.59766,4.3457 1.99545,2.30284 3.20246,5.13944 4.82031,7.69727 1.06664,1.8035 2.1314,3.60872 3.20508,5.4082 -6.75684,-1.14838 -13.58,-2.26347 -20.45899,-1.99609 -3.94997,0.0815 -7.93639,0.67623 -11.57031,2.28906 -5.99113,2.57342 -11.66701,6.01437 -16.36914,10.56445 -5.19272,4.92029 -9.15143,11.08103 -11.62305,17.78516 -2.2448,5.98778 -3.23259,12.37959 -3.40429,18.75391 -0.43543,10.19634 0.1359,20.59536 3.32031,30.35937 2.98481,9.2889 7.59298,17.99137 12.98242,26.09766 6.37717,9.43459 14.38123,17.73869 23.46875,24.5918 10.66363,8.36206 22.01554,15.84205 33.84961,22.43945 9.01988,4.90255 18.74933,8.76111 28.98242,10.0918 5.50602,0.72653 11.34303,0.97681 16.57227,-1.20899 3.77201,-1.56068 7.24751,-4.56196 8.24805,-8.65625 5.19542,-4.12123 7.95679,-6.29021 15.89844,-7.56445 3.66714,1.7135 7.70255,0.75251 11.38281,-1.06055 4.83459,-2.09681 8.48853,-6.01934 12.45312,-9.35742 0.35665,-0.54849 0.9542,-0.47048 1.5293,-0.42383 10.80101,0.33235 21.79888,0.6477 32.35156,-2.07617 10.00665,-2.48544 19.5497,-7.5598 26.44922,-15.32422 4.63388,-5.06916 8.09425,-11.07646 10.98828,-17.27148 1.95257,-3.93788 3.94679,-7.8546 6.02735,-11.72657 0.22607,1.24486 0.141,2.52893 0.32812,3.78321 0.42095,5.01637 0.77487,10.03514 0.97266,15.10351 0.22264,6.04368 0.39546,12.23312 0.89844,18.32032 0.40389,5.15355 1.17449,10.36404 3.31836,15.11328 1.82003,4.05981 4.49288,7.91475 8.27343,10.36523 1.33532,0.90895 2.90484,1.43645 4.08399,2.56641 1.63973,1.31259 3.61768,2.27416 5.74804,2.33398 4.05091,0.38659 8.01117,-0.80183 11.95899,-1.50781 4.59057,-1.03309 8.90265,-3.61258 11.61523,-7.50781 0.74045,-0.91982 1.19071,-2.13607 2.1836,-2.81446 1.21353,-0.62291 2.5228,0.0161 3.63086,0.54688 6.14076,2.5522 12.08987,5.72832 18.69531,4.94141 10.99769,-1.31018 19.80814,-6.28225 29.33789,-11.95704 7.7613,-4.73624 15.01734,-10.75005 19.7461,-18.62304 4.95905,-8.35349 6.60228,-18.45737 5.17773,-28.01954 -0.41161,-3.46945 -1.03029,-5.6027 -2.74219,-8.65234 -1.04144,-1.85525 -3.05851,-3.62558 -4.9082,-4.5957 -1.1974,-0.87728 -0.9771,-2.8611 0.25,-3.6211 4.71682,-3.88275 8.58019,-8.97713 10.35351,-14.87695 1.85897,-5.73641 1.66438,-12.32841 -1.42578,-17.61133 -0.9754,-1.84508 -2.33217,-3.46605 -3.29882,-5.31054 -0.25981,-1.35118 0.83557,-2.66439 2.15625,-2.86329 5.65649,-2.10091 11.33222,-4.96502 15.10156,-9.83398 3.78488,-4.93779 5.45732,-11.7413 3.41992,-17.73633 -1.8071,-5.61003 -6.3934,-9.87351 -11.48633,-12.58203 -6.56309,-3.52058 -14.25777,-4.38532 -21.58203,-3.55273 -2.93105,0.31546 -5.82741,0.92633 -8.65234,1.76562 -0.94773,-0.89469 -1.86882,-2.03001 -1.80469,-3.41016 -1.16976,-9.50482 -7.07465,-18.29752 -15.41016,-23.00195 -3.57603,-1.8752 -7.99339,-2.4118 -11.76758,-0.80273 -4.81366,1.75962 -9.28833,4.78466 -12.89257,8.49804 -4.12901,4.24048 -7.33902,9.39579 -9.13477,15.04688 -0.51831,1.52708 -0.93699,3.09025 -1.33984,4.64844 -0.96972,0.7232 -2.36454,1.08701 -3.42774,0.33593 -6.09826,-2.78711 -13.02287,-4.44013 -19.69922,-3.04297 -2.8418,0.61401 -5.49091,1.85893 -8.07617,3.1543 -1.31919,0.004 -2.59034,-0.86041 -2.98633,-2.13281 -4.31229,-7.98181 -11.10465,-14.6139 -19.25976,-18.61133 -8.86907,-4.61701 -18.78726,-6.49366 -28.5,-8.44141 -8.101,-1.62658 -16.27595,-3.11659 -24.20313,-5.38476 -3.51008,-0.98163 -6.90227,-2.37868 -10.03711,-4.24414 -2.4156,-1.37299 -4.87626,-2.70046 -7.17773,-4.25 -1.48915,-1.50582 -1.55638,-3.91994 -0.75196,-5.78125 0.89416,-3.04184 0.14807,-6.78565 -2.56836,-8.66797 -0.54373,-0.44367 -1.08352,-0.89326 -1.63281,-1.33008 0.8915,-7.06139 1.02016,-14.21687 0.44336,-21.30859 -0.22857,-2.88854 -1.43613,-5.83383 -3.84766,-7.56446 -2.09329,-1.48478 -4.72879,-1.82796 -7.20507,-2.20703 -2.0633,-2.71016 -4.77144,-4.88462 -7.72852,-6.55078 -0.67989,-2.35284 -1.15248,-4.81633 -2.44922,-6.9375 -2.47902,-4.25637 -7.12708,-7.55341 -12.17383,-7.51172 -5.00652,0.20088 -9.48268,3.33113 -12.48633,7.10547 -0.33137,0.42731 -0.63653,1.02172 -1.2832,0.92773 -2.02489,0.1911 -4.06281,-0.25336 -6.08594,0.0293 -0.86273,0.0691 -2.00578,0.2397 -2.94921,0.50195 -0.44676,0.11326 -0.86636,0.3111 -1.30079,0.4668 a 33.719749,33.719749 0 0 0 5.18946,-17.95703 33.719749,33.719749 0 0 0 -33.71875,-33.720704 z"
       inkscape:label="path2-6"
       transform="matrix(0.58033255,0,0,0.58033255,328.05553,140.04079)" /></g></svg>
