<?xml version="1.0" encoding="UTF-8" standalone="no"?>
<!-- Created with Inkscape (http://www.inkscape.org/) -->

<svg
   width="100mm"
   height="100mm"
   viewBox="0 0 100 100"
   version="1.1"
   id="svg1"
   xml:space="preserve"
   inkscape:version="1.3 (0e150ed6c4, 2023-07-21)"
   sodipodi:docname="秀老郎logo.svg"
   inkscape:export-filename="秀老郎logo.png"
   inkscape:export-xdpi="96"
   inkscape:export-ydpi="96"
   xmlns:inkscape="http://www.inkscape.org/namespaces/inkscape"
   xmlns:sodipodi="http://sodipodi.sourceforge.net/DTD/sodipodi-0.dtd"
   xmlns="http://www.w3.org/2000/svg"
   xmlns:svg="http://www.w3.org/2000/svg"><sodipodi:namedview
     id="namedview1"
     pagecolor="#ffffff"
     bordercolor="#000000"
     borderopacity="0.25"
     inkscape:showpageshadow="2"
     inkscape:pageopacity="0.0"
     inkscape:pagecheckerboard="0"
     inkscape:deskcolor="#d1d1d1"
     inkscape:document-units="in"
     inkscape:zoom="1.4093294"
     inkscape:cx="222.801"
     inkscape:cy="263.60055"
     inkscape:window-width="1920"
     inkscape:window-height="1001"
     inkscape:window-x="1911"
     inkscape:window-y="-9"
     inkscape:window-maximized="1"
     inkscape:current-layer="layer1" /><defs
     id="defs1" /><g
     inkscape:label="圖層 1"
     inkscape:groupmode="layer"
     id="layer1"><path
       id="path3"
       style="opacity:1;fill:#222b00;fill-opacity:1;fill-rule:evenodd;stroke:none;stroke-width:11.1817;stroke-dasharray:none;stroke-opacity:0.48468"
       d="M 51.207622,14.90586 C 37.84451,14.88973 25.169819,24.222278 20.853984,36.807705 c -2.67489,7.719526 -2.153285,16.437978 1.28132,23.836749 3.473449,7.673262 9.957533,14.051342 17.933846,16.907056 9.858616,3.634178 21.486242,2.289276 30.084727,-3.819119 9.67185,-6.764348 15.017401,-19.10953 13.44813,-30.793568 C 82.755028,36.310774 79.75147,29.970179 75.08064,25.182053 68.964807,18.722544 60.172463,14.64732 51.207622,14.90586 Z" /><path
       style="fill:#f2f2f2;stroke:#f2f2f2;stroke-width:0.52401"
       d="m 19.167749,162.73069 c -0.236409,-0.10311 -0.64193,-0.4548 -0.90119,-0.78153 -0.988131,-1.24526 -1.458871,-1.65513 -1.900935,-1.65513 -0.553713,0 -0.904323,-0.35432 -0.810996,-0.81957 0.253266,-1.26258 0.496008,-2.09906 0.71837,-2.4755 0.231608,-0.39207 0.240071,-0.53355 0.09069,-1.5149 -0.09062,-0.59534 -0.164343,-1.3975 -0.163847,-1.78258 5.02e-4,-0.38509 -0.05725,-0.75943 -0.128322,-0.83187 -0.07108,-0.0724 -0.307332,-0.66983 -0.524992,-1.32752 -0.50641,-1.5302 -1.053985,-2.19973 -1.802469,-2.20392 -0.951047,-0.005 -3.419514,0.44101 -4.3652328,0.7893 -2.527695,0.93092 -5.10371,1.09107 -7.358011,0.45745 l -1.216676,-0.34197 -1.278924,0.45106 c -1.487988,0.52478 -2.004527,0.55817 -2.508032,0.16211 -0.292001,-0.22968 -0.365311,-0.40529 -0.365311,-0.87505 0,-1.08645 0.685745,-1.51335 2.938194,-1.82911 0.862268,-0.12087 2.004491,-0.31617 2.53827,-0.43398 1.530972,-0.33792 5.136163,-0.40442 6.32041,-0.1166 1.101649,0.26776 1.427098,0.28377 2.9687838,0.14604 0.878894,-0.0785 1.238677,-0.051 1.733056,0.13257 1.195161,0.44379 1.213723,0.43645 0.597913,-0.23645 -0.737498,-0.80587 -1.150552,-1.6257 -1.691576,-3.35747 -0.466688,-1.4938 -0.555162,-2.57243 -0.232942,-2.83987 0.109169,-0.0906 0.623885,-0.2248 1.143814,-0.2982 1.163588,-0.16429 1.42977,-0.40175 1.988003,-1.7735 0.226044,-0.55544 0.536243,-1.1858 0.689328,-1.40079 0.153088,-0.21499 0.278339,-0.57163 0.278339,-0.79252 0,-0.23696 0.238238,-0.76823 0.581029,-1.29572 0.319564,-0.49176 0.69929,-1.20605 0.843836,-1.58733 0.375507,-0.99048 1.088268,-1.60119 2.016202,-1.72749 0.511244,-0.0696 0.844051,-0.20697 1.084849,-0.44776 0.427876,-0.42787 0.575701,-1.31017 0.284681,-1.69911 -0.181241,-0.24222 -0.257893,-0.25278 -0.75453,-0.10398 -0.304037,0.0911 -0.781444,0.16563 -1.060896,0.16563 -0.427741,0 -0.614347,0.10965 -1.179792,0.69323 -0.369423,0.38127 -0.757438,0.69764 -0.862256,0.70305 -0.199594,0.0104 -1.969686,2.63518 -2.819026,4.18036 -1.294777,2.35556 -1.815633,1.66893 -1.96908,-2.59578 -0.115436,-3.2082 0.224481,-4.76855 1.575107,-7.23045 0.634926,-1.15734 1.072596,-1.57348 1.654884,-1.57348 0.395364,0 0.466349,0.0489 0.466349,0.32165 0,0.17691 -0.209196,0.56685 -0.464877,0.86654 -0.491286,0.57582 -0.921567,1.32156 -0.921567,1.5972 0,0.0907 0.09956,0.23772 0.221291,0.32671 0.383808,0.28065 0.124638,1.66243 -0.427729,2.28044 -0.245735,0.27492 -0.518161,0.63613 -0.605424,0.80269 -0.224703,0.42893 -0.196724,1.76394 0.04931,2.3528 0.114369,0.27376 0.207957,0.65576 0.207957,0.8489 0,0.34816 0.0024,0.3489 0.291662,0.0872 0.160408,-0.14517 0.447236,-0.52943 0.637395,-0.85391 0.190171,-0.32448 0.507778,-0.71742 0.705819,-0.8732 0.198038,-0.15579 0.712341,-0.69063 1.142895,-1.18857 0.591869,-0.68449 1.016482,-1.02006 1.740758,-1.37572 0.526864,-0.25872 1.090741,-0.47229 1.253062,-0.47462 0.193984,-0.002 0.353217,-0.14445 0.464616,-0.41339 0.205064,-0.49509 0.59259,-0.76473 1.283318,-0.89295 0.613054,-0.1138 1.076442,0.0896 1.076442,0.47249 0,0.25653 -0.150788,0.3316 -0.889699,0.44296 -0.37198,0.0561 -0.450952,0.38667 -0.09234,0.38667 0.158875,0 0.288844,0.0811 0.288844,0.18032 0,0.42761 0.352382,0.93446 0.6239,0.89738 0.474245,-0.0648 0.762087,-0.87366 0.762328,-2.14229 2.69e-4,-1.41377 0.122832,-1.57077 1.223258,-1.56687 0.433019,0.002 1.192839,0.0612 1.688496,0.13262 1.26109,0.18169 1.444245,0.42752 1.345278,1.80562 -0.08397,1.1691 -0.508325,2.66155 -0.870611,3.06189 -0.212264,0.23453 -0.441738,0.26558 -1.962941,0.26558 h -1.722585 l 0.09402,-0.42814 c 0.08743,-0.39802 0.07422,-0.41753 -0.187845,-0.27729 -0.155043,0.083 -0.410014,0.15086 -0.566635,0.15086 -0.224461,0 -0.303331,0.1161 -0.37243,0.5482 -0.0482,0.30152 -0.18933,0.63631 -0.313592,0.74399 -0.363557,0.31505 -1.770048,0.69356 -2.233066,0.60095 -0.345454,-0.0691 -0.419139,-0.0388 -0.419139,0.17239 0,0.14091 -0.346939,0.92064 -0.770974,1.73273 -0.42404,0.81209 -1.01621,2.13757 -1.315931,2.94552 -0.641026,1.72796 -0.917412,2.20781 -1.656032,2.87511 -0.621152,0.56117 -1.052014,0.70895 -1.741053,0.59713 -0.262752,-0.0427 -0.477682,-0.0346 -0.477631,0.0178 5.5e-5,0.0524 0.161991,0.68797 0.359859,1.41239 0.479396,1.75513 1.107996,3.06637 1.993957,4.15934 0.947846,1.16931 1.330686,1.77903 1.676511,2.67011 0.155116,0.39967 0.592574,1.38814 0.972122,2.19658 0.860199,1.83225 0.949901,2.46982 0.559402,3.97629 -0.511259,1.97236 -0.408375,2.45472 0.84476,3.96051 0.377782,0.45396 0.74416,0.97603 0.81417,1.16017 0.164986,0.43393 0.16496,1.56454 -1.5e-5,1.56454 -0.07003,0 -0.210406,0.0289 -0.311954,0.0643 -0.101551,0.0354 -0.378063,-0.02 -0.614458,-0.1232 z m 6.83396,-31.74678 c 0.0146,-0.0109 0.05004,-0.51759 0.07887,-1.12577 0.02882,-0.60817 0.131836,-1.25284 0.228986,-1.43261 0.09713,-0.17975 0.124045,-0.37495 0.05977,-0.43376 -0.105074,-0.0961 -2.148553,-0.44344 -2.21444,-0.37632 -0.0151,0.0153 -0.06133,0.82677 -0.102964,1.80332 l -0.0757,1.77556 0.999504,-0.0952 c 0.549727,-0.0524 1.011429,-0.1042 1.025999,-0.11521 z m -0.0047,31.32871 c -1.166183,-0.2632 -1.284867,-0.42191 -1.06226,-1.42055 0.0988,-0.44331 0.22587,-1.33632 0.28236,-1.98449 0.05648,-0.64817 0.1661,-1.37513 0.24361,-1.61547 0.07748,-0.24035 0.182847,-0.98903 0.23408,-1.66374 0.05124,-0.67471 0.180946,-1.5075 0.288207,-1.85064 0.107248,-0.34315 0.211818,-1.34139 0.232329,-2.21831 0.03608,-1.5428 0.02399,-1.61857 -0.375736,-2.34023 -0.431294,-0.77873 -1.449738,-1.68047 -1.897945,-1.68047 -0.378952,0 -0.481235,0.41743 -0.577523,2.35696 -0.124117,2.50019 -0.638835,4.27515 -1.517558,5.23311 -0.196603,0.21434 -0.338253,0.6675 -0.455014,1.45577 -0.15499,1.04636 -0.14596,1.20995 0.105263,1.90709 0.495898,1.37609 0.551894,1.76834 0.317209,2.22217 -0.160756,0.31086 -0.310209,0.41207 -0.608493,0.41207 -0.57295,0 -0.784454,-0.31397 -0.605117,-0.89831 0.106926,-0.34839 0.09979,-0.55487 -0.02736,-0.79167 -0.764442,-1.42373 -0.933059,-1.69601 -1.147336,-1.85269 -0.229285,-0.16766 -0.224535,-0.20378 0.0814,-0.61755 0.460272,-0.62256 0.605653,-1.22175 0.427442,-1.76174 -0.139725,-0.42336 -0.116346,-0.47874 0.416113,-0.98525 0.310851,-0.29569 0.564161,-0.66759 0.564161,-0.82826 0,-0.16039 0.151453,-0.77834 0.336566,-1.37325 0.185124,-0.59492 0.405696,-1.64317 0.490184,-2.32946 0.0845,-0.68629 0.189725,-1.5309 0.233833,-1.87692 0.06951,-0.54511 0.03038,-0.68834 -0.292964,-1.07262 -0.305178,-0.36266 -0.411118,-0.70288 -0.581217,-1.86648 -0.180498,-1.23472 -0.279961,-1.53433 -0.751801,-2.26452 -0.299077,-0.46285 -0.54378,-0.9855 -0.54378,-1.16146 0,-0.30075 0.0419,-0.31589 0.699709,-0.25269 0.514752,0.0495 0.8041,0.16726 1.094657,0.44563 0.38965,0.3733 1.533105,2.75133 1.533105,3.18837 0,0.35607 0.401163,1.22234 0.726359,1.5685 0.163454,0.17399 0.589214,0.40306 0.946124,0.50905 0.975003,0.28955 1.439006,0.56904 1.965156,1.18373 l 0.476652,0.55686 -0.05962,2.18501 c -0.04345,1.59294 -0.146681,2.57948 -0.380858,3.64078 -0.267784,1.21352 -0.319529,1.83646 -0.310945,3.74341 0.0057,1.2582 -0.03617,2.4904 -0.09289,2.73823 l -0.103165,0.45059 h 1.062405 c 0.787928,0 1.047657,-0.0447 1.005327,-0.1733 -0.03139,-0.0953 -0.203578,-0.19469 -0.382658,-0.22082 -0.429238,-0.0626 -0.969819,-0.42377 -0.969819,-0.64789 0,-0.098 0.155362,-0.512 0.345254,-0.9199 0.189898,-0.40791 0.346249,-0.89763 0.347468,-1.08826 9.63e-4,-0.19065 0.100151,-0.53379 0.219832,-0.76255 0.119688,-0.22877 0.280862,-0.75658 0.358162,-1.17291 0.07731,-0.41633 0.290936,-1.05376 0.474748,-1.41649 0.183813,-0.36274 0.334211,-0.82068 0.334211,-1.01764 0,-0.19695 0.105093,-0.55777 0.233513,-0.80181 0.307568,-0.5844 0.973876,-3.49472 1.277138,-5.57836 0.110634,-0.76012 0.09839,-1.15778 -0.05552,-1.80238 -0.108609,-0.45489 -0.199697,-1.2825 -0.202392,-1.83913 -0.0024,-0.58818 -0.08634,-1.16887 -0.199324,-1.38645 -0.23146,-0.44585 -1.947386,-2.12405 -2.439161,-2.38554 -0.190246,-0.10116 -0.823053,-0.54787 -1.406253,-0.99269 -1.361382,-1.03837 -1.625513,-1.56168 -0.620884,-1.23013 0.55506,0.1832 0.951185,0.0441 1.200327,-0.42141 0.116372,-0.21743 0.08103,-0.51669 -0.154943,-1.31148 -0.279619,-0.94191 -0.290463,-1.10159 -0.127087,-1.87143 l 0.178619,-0.84165 0.436695,0.42326 c 0.925532,0.89706 1.26135,0.48312 1.224402,-1.50926 -0.02326,-1.25143 0.0141,-1.5463 0.242371,-1.92185 0.344086,-0.5658 0.64745,-0.55975 1.286595,0.0257 l 0.512344,0.46929 v 1.67236 c 0,1.51759 -0.03206,1.7327 -0.346606,2.32425 -0.190643,0.35854 -0.346614,0.75976 -0.346614,0.89159 0,0.41779 -0.427682,1.29242 -0.93844,1.91917 -0.774567,0.95048 -0.711273,1.29195 0.406953,2.19544 0.908505,0.73403 2.01293,1.92096 2.295806,2.4673 0.07898,0.15252 0.215603,0.62043 0.303668,1.03983 0.09162,0.43646 0.378062,1.08864 0.669806,1.5251 0.442852,0.66251 0.531004,0.93531 0.672064,2.07967 0.151304,1.22739 0.116867,1.8573 -0.166691,3.05017 -0.04532,0.19065 -0.116624,0.53366 -0.158482,0.76226 -0.09408,0.51407 -0.607347,1.3288 -1.353973,2.14928 -1.078726,1.18545 -2.205952,3.47489 -2.562527,5.20462 -0.09369,0.45453 -0.256831,0.9949 -0.362508,1.20081 -0.262961,0.51237 -0.268334,0.50363 0.415089,0.67571 0.42484,0.10698 0.653887,0.2553 0.762547,0.49378 0.22253,0.4884 0.195415,0.65775 -0.158527,0.99027 -0.733843,0.68941 -2.259364,0.96909 -3.615907,0.66293 z m 21.398776,-8.89305 c -0.190642,-0.10578 -0.489971,-0.19326 -0.665184,-0.19438 -0.175205,-9.6e-4 -0.45597,-0.14707 -0.623902,-0.32433 -0.16793,-0.17725 -0.411247,-0.36121 -0.54071,-0.4088 -0.427892,-0.15729 -0.686979,-0.91495 -0.766049,-2.24024 -0.08931,-1.49689 0.08221,-2.066 0.50683,-1.68173 0.182304,0.16499 0.267063,0.52276 0.327831,1.38388 0.04508,0.63874 0.169811,1.37162 0.277193,1.62861 0.24351,0.58278 1.058231,1.21797 1.694721,1.32126 0.538925,0.0875 0.659143,-0.13097 0.205658,-0.37368 -0.378597,-0.20261 -0.791577,-1.05674 -1.054508,-2.18094 -0.176985,-0.75669 -0.197594,-1.27499 -0.106235,-2.67186 0.06235,-0.95318 0.114938,-1.82157 0.116895,-1.92974 0.004,-0.19161 -0.677088,-0.6741 -0.979379,-0.69438 -0.174339,-0.0116 -1.349157,1.42962 -1.859286,2.28108 -0.533916,0.89114 -0.594841,0.96654 -1.039838,1.28675 -0.716317,0.51545 -2.003776,0.87635 -3.604763,1.01051 -2.704087,0.22659 -3.110535,0.15262 -3.927524,-0.71473 -0.895319,-0.95051 -0.774429,-1.26573 0.434653,-1.13333 0.366552,0.0402 1.013701,-0.0104 1.438104,-0.11214 0.666892,-0.15999 0.952836,-0.15406 2.10643,0.0438 1.421104,0.24365 1.875521,0.20207 2.859877,-0.26173 0.667526,-0.31451 0.711004,-0.36856 0.813847,-1.01169 0.06407,-0.40078 0.273678,-0.67704 1.021827,-1.34688 0.517663,-0.46347 1.127483,-0.9381 1.35515,-1.05471 0.644366,-0.33005 1.515604,-0.43252 1.870462,-0.21998 0.269055,0.16115 0.32487,0.14982 0.464475,-0.0941 0.08729,-0.15252 0.559484,-0.65957 1.049372,-1.1268 0.839775,-0.80095 0.872504,-0.8553 0.572345,-0.95056 -0.401195,-0.12733 -2.377033,0.0485 -2.600793,0.23144 -0.249638,0.20409 -0.456668,0.008 -0.456668,-0.43228 0,-0.21457 -0.118698,-0.66322 -0.263768,-0.99699 -0.15415,-0.35465 -0.303795,-1.13334 -0.360085,-1.87364 -0.08147,-1.07148 -0.05972,-1.32263 0.141063,-1.62907 0.262277,-0.4003 0.637399,-0.46921 0.890954,-0.1637 0.09065,0.10922 0.218228,0.56156 0.283507,1.00517 0.06528,0.44362 0.192939,1.14285 0.283731,1.55386 0.09077,0.41102 0.132753,0.98813 0.09329,1.28247 -0.07194,0.53634 -0.02154,0.61896 0.261757,0.42906 0.210385,-0.14104 0.321189,-0.661 0.465192,-2.18309 0.06801,-0.71876 0.160013,-1.36567 0.204443,-1.43758 0.131567,-0.21289 0.88497,0.14519 0.969776,0.46092 0.140099,0.52155 0.07073,1.80287 -0.127752,2.36017 -0.221121,0.62085 -0.126568,0.7613 0.514837,0.76492 0.206848,9.6e-4 0.7155,0.12911 1.13036,0.28433 0.613426,0.22951 0.799844,0.37823 0.998243,0.79632 0.21768,0.45875 0.228837,0.69331 0.103437,2.17873 -0.07729,0.91554 -0.187673,1.77381 -0.245337,1.90725 -0.169914,0.3933 0.706777,0.31495 1.333159,-0.11914 0.451087,-0.3126 0.734944,-0.37765 2.088666,-0.47869 0.861652,-0.0643 2.439404,-0.13423 3.50612,-0.15539 1.702141,-0.0337 2.00735,-0.005 2.494062,0.23607 0.412287,0.20407 0.565633,0.37026 0.597668,0.64769 0.04695,0.4066 -0.03969,0.44548 -1.776149,0.79712 -0.419403,0.0849 -1.0433,0.21867 -1.386448,0.29722 -0.343146,0.0786 -1.684532,0.16691 -2.98086,0.1964 -2.159137,0.0491 -3.727193,0.21467 -3.927134,0.41461 -0.132802,0.1328 0.244128,1.33248 0.534722,1.70192 0.150094,0.19082 0.272911,0.40423 0.272911,0.47425 0,0.07 0.155981,0.35684 0.346612,0.63739 0.439793,0.64722 0.453353,1.20971 0.03463,1.43766 -0.171567,0.0934 -0.720405,0.17083 -1.219627,0.17206 -1.214169,0.003 -1.845357,-0.4402 -2.126709,-1.4933 -0.104396,-0.3908 -0.359388,-1.33444 -0.566626,-2.09699 -0.426666,-1.56995 -0.432146,-2.24441 -0.01756,-2.17281 0.378877,0.0655 0.637818,0.36943 0.637818,0.74873 0,0.18082 0.05606,0.38806 0.124563,0.4605 0.06853,0.0724 0.258206,0.62514 0.421548,1.22822 0.494253,1.82488 0.795854,2.40275 1.349385,2.58543 0.62094,0.20492 0.727732,0.0791 0.396702,-0.4674 -0.820858,-1.35517 -1.183044,-2.23195 -1.183044,-2.86392 0,-0.36072 -0.06945,-0.85504 -0.154324,-1.0985 -0.124959,-0.35849 -0.09814,-0.67892 0.14104,-1.68538 0.270012,-1.13611 0.278148,-1.93404 0.01979,-1.93404 -0.05615,0 -0.487304,0.24895 -0.958086,0.55323 -0.556343,0.35959 -0.988162,0.77211 -1.233623,1.17849 -0.207712,0.34388 -0.477956,0.62524 -0.600541,0.62524 -0.37651,0 -0.460978,2.16081 -0.138438,3.54181 0.141656,0.60653 0.29679,1.32563 0.344742,1.598 0.04794,0.27237 0.24242,0.70562 0.432145,0.96278 0.776009,1.05183 0.07845,1.92478 -1.041481,1.30335 z m -8.318719,-6.93819 c -1.983406,-1.0604 -2.665704,-1.49249 -2.93957,-1.86158 -0.231064,-0.31141 -0.24425,-0.43617 -0.109543,-1.03725 0.08422,-0.3758 0.155163,-1.58909 0.157637,-2.6962 0.0043,-1.91209 0.02499,-2.06153 0.413502,-2.98343 0.449882,-1.06755 0.430851,-1.03332 1.022191,-1.83863 0.408183,-0.55588 1.237621,-1.14223 1.615769,-1.14223 0.105368,0 0.424417,-0.15823 0.709006,-0.35161 0.396771,-0.26961 0.51744,-0.44494 0.51744,-0.7518 0,-0.3353 0.07961,-0.42645 0.490979,-0.56221 0.632634,-0.2088 0.836229,-0.12103 0.941609,0.4059 0.07613,0.38065 0.139332,0.42785 0.572879,0.42785 0.435886,0 0.539848,0.0791 0.985265,0.74998 0.305587,0.46025 0.480214,0.87536 0.452013,1.0745 -0.04213,0.29739 -0.109666,0.32334 -0.808495,0.31055 -0.810492,-0.0148 -1.678813,-0.36715 -2.127358,-0.86313 -0.320502,-0.35439 -0.498569,-0.2911 -1.54828,0.55033 -0.641516,0.51424 -0.954333,0.90306 -1.358546,1.68863 -0.60779,1.1812 -0.924321,2.25818 -0.924068,3.14408 2.83e-4,1.00636 0.50725,3.23822 0.771579,3.3968 0.127111,0.0763 0.66076,0.46619 1.185891,0.86653 0.525133,0.40033 1.031833,0.72593 1.126001,0.72355 0.09415,-0.002 0.417082,-0.15538 0.717585,-0.33998 l 0.546382,-0.33566 -0.407733,-0.14766 c -1.141782,-0.41353 -2.002146,-1.02333 -2.002146,-1.41905 0,-0.14448 -0.08708,-0.43116 -0.193511,-0.63708 -0.175699,-0.33996 -0.221812,-0.92983 -0.251467,-3.2166 -0.0082,-0.63127 0.341699,-2.28506 0.524591,-2.47961 0.02756,-0.0293 0.240392,0.0255 0.472923,0.12182 0.411233,0.17033 0.420575,0.19453 0.34167,0.88519 -0.04461,0.39054 -0.139283,1.00949 -0.210382,1.37545 -0.187722,0.96635 -0.159199,1.92116 0.09017,3.01755 0.27464,1.20748 0.472579,1.4256 1.184603,1.3053 0.473143,-0.0799 0.583929,-0.0408 0.966696,0.34203 0.401087,0.40109 0.425388,0.47958 0.336402,1.08646 -0.05275,0.35979 -0.231982,0.90371 -0.398302,1.20873 -0.285502,0.52361 -0.34098,0.5562 -0.993655,0.58356 -0.585594,0.0245 -0.871452,-0.0673 -1.869757,-0.60107 z m -5.777338,-3.82988 c 0.04203,-0.85787 0.114616,-1.84051 0.161373,-2.18365 0.04674,-0.34315 0.06784,-1.24781 0.04685,-2.01036 -0.04369,-1.58743 -0.02103,-2.4261 0.09715,-3.60476 0.122607,-1.22201 0.09811,-1.5588 -0.197444,-2.71439 -0.225127,-0.88028 -0.242051,-1.14213 -0.106629,-1.64998 0.126637,-0.47487 0.124016,-0.61598 -0.01237,-0.66146 -0.09531,-0.0318 -0.173298,-0.23792 -0.173298,-0.45803 0,-0.39761 -0.725356,-1.99007 -0.977422,-2.14586 -0.218274,-0.13488 -0.148138,-0.66036 0.154326,-1.15648 l 0.285021,-0.46753 -0.285549,-0.30396 c -0.157064,-0.16716 -0.28557,-0.43266 -0.28557,-0.58998 0,-0.15732 -0.09359,-0.36371 -0.207957,-0.45864 -0.114394,-0.0949 -0.207958,-0.34449 -0.207958,-0.55458 0,-0.21009 -0.09359,-0.45965 -0.207959,-0.55458 -0.114395,-0.0949 -0.207958,-0.2509 -0.207958,-0.34661 0,-0.0957 -0.0976,-0.25501 -0.21689,-0.35401 -0.132502,-0.10996 -0.187053,-0.29885 -0.140197,-0.48551 0.04589,-0.18295 -0.02375,-0.43737 -0.173521,-0.63419 -0.404441,-0.53127 -0.867575,-1.51464 -0.780043,-1.65627 0.04448,-0.072 -0.04794,-0.29463 -0.205436,-0.49482 -0.157465,-0.20019 -0.286298,-0.50186 -0.286298,-0.67039 0,-0.373 -0.324495,-0.68335 -1.017058,-0.97273 -0.49342,-0.20617 -0.541058,-0.20269 -0.880156,0.064 -0.197171,0.15509 -0.502176,0.282 -0.677779,0.282 -0.1756,0 -0.909651,0.40027 -1.631207,0.88948 -1.086834,0.73687 -1.44499,0.90612 -2.08746,0.98639 -0.905382,0.1131 -1.743448,0.008 -2.775551,-0.34664 -1.086036,-0.37365 -2.576942,-1.42247 -2.576942,-1.81282 0,-0.41131 1.843195,0.12202 2.712038,0.7847 0.700876,0.53459 1.426752,0.58546 1.959348,0.13731 0.236035,-0.19861 0.535192,-0.36113 0.664765,-0.36113 0.129583,0 0.267293,-0.12122 0.306038,-0.26937 0.04077,-0.15586 0.238189,-0.30622 0.468527,-0.35681 0.376578,-0.0827 1.098807,-0.77167 1.098807,-1.04819 0,-0.0704 0.135473,-0.12801 0.301036,-0.12801 0.165552,0 0.405954,-0.0949 0.534196,-0.211 0.128248,-0.11605 0.578213,-0.28338 0.999935,-0.37184 0.737274,-0.15465 0.803034,-0.14351 1.709821,0.28964 0.518675,0.24776 1.123443,0.60226 1.343914,0.78778 0.220476,0.18552 0.482345,0.33731 0.581917,0.33731 0.232155,0 1.799924,1.61174 2.294603,2.35895 0.208303,0.31465 0.48234,0.98883 0.608967,1.49819 0.126617,0.50935 0.31948,1.23805 0.428559,1.61932 0.109082,0.38127 0.238016,1.12995 0.286516,1.66373 0.0485,0.53379 0.231681,1.62561 0.407074,2.42629 0.797155,3.63907 0.619589,15.77421 -0.250238,17.10173 -0.157813,0.24084 -0.364432,0.36749 -0.599545,0.36749 H 33.223355 Z M 9.1582722,141.20883 c -0.09875,-0.0413 -0.331097,-0.38916 -0.516307,-0.77309 -0.316637,-0.65635 -0.327225,-0.75362 -0.177283,-1.62809 0.135126,-0.78801 0.123993,-1.05652 -0.07293,-1.75835 -0.127827,-0.45557 -0.232426,-1.12367 -0.232426,-1.48466 0,-0.36099 -0.09224,-0.83468 -0.204941,-1.05264 -0.112712,-0.21795 -0.203009,-0.72958 -0.200659,-1.13694 0.0021,-0.40735 -5.26e-4,-1.27095 -0.0063,-1.91912 -0.01068,-1.15903 0.06497,-1.6022 0.74455,-4.36731 0.670207,-2.72702 0.898012,-3.42134 1.423436,-4.33851 0.2930228,-0.51149 0.6818408,-1.22684 0.8640518,-1.58967 0.182202,-0.36283 0.636168,-1.00811 1.0088,-1.43394 0.37264,-0.42583 0.825804,-1.06482 1.007038,-1.41997 0.336354,-0.65913 0.819151,-1.17252 1.499198,-1.5942 0.277607,-0.17214 0.381272,-0.34864 0.381272,-0.64915 0,-0.34459 0.05558,-0.41274 0.336706,-0.41274 0.424022,0 0.873508,0.40644 0.62164,0.5621 -0.122308,0.0756 -0.05583,0.20622 0.232375,0.45671 0.310476,0.26983 0.371671,0.40113 0.265042,0.56867 -1.271519,1.99776 -2.166742,3.31114 -2.593127,3.80438 -0.289369,0.33474 -0.587036,0.83482 -0.66148,1.11129 -0.127827,0.47468 -0.885721,1.80398 -1.114176,1.95417 -0.230248,0.15136 -0.977967,1.57227 -1.187159,2.25595 -0.121988,0.39871 -0.36784,1.19284 -0.546326,1.76475 -0.5335648,1.70966 -0.6497168,2.94943 -0.5791338,6.18168 0.0357,1.63492 0.12585,3.04974 0.200317,3.14403 0.118525,0.15009 0.305811,1.85357 0.3618118,3.29095 0.01658,0.42376 -0.02503,0.48865 -0.3277098,0.51199 -0.190641,0.0148 -0.42741,-0.007 -0.526167,-0.0483 z m 39.1387008,-5.4549 c -0.0471,-0.0763 -0.19915,-0.13864 -0.337819,-0.13864 -0.393653,0 -0.653949,-0.38726 -0.450468,-0.67019 0.321257,-0.44666 0.346957,-0.61853 0.117586,-0.78625 -0.322319,-0.23569 -0.287853,-0.84358 0.115162,-2.03106 0.190096,-0.56015 0.347167,-1.29921 0.349034,-1.64235 0.004,-0.66536 0.361725,-3.04364 0.475414,-3.15734 0.151577,-0.15158 -0.24143,-0.60179 -0.753271,-0.8629 -0.710632,-0.36254 -2.301581,-0.38325 -3.026195,-0.0394 -0.669326,0.31761 -2.293069,1.99251 -2.485942,2.56424 -0.08454,0.25056 -0.241999,0.6939 -0.349935,0.9852 -0.150465,0.40606 -0.163278,0.6738 -0.0549,1.14738 0.100648,0.43977 0.09717,0.66195 -0.01213,0.77122 -0.442423,0.44243 -1.004005,-0.52394 -1.004005,-1.72768 0,-0.62196 0.115384,-0.96868 0.702795,-2.11202 1.098655,-2.1384 1.332303,-2.4328 2.334239,-2.94119 0.853809,-0.43322 0.951519,-0.45059 2.534721,-0.45059 1.684094,0 2.363813,0.15172 2.915155,0.65067 0.282425,0.2556 0.337907,1.01226 0.07439,1.0146 -0.09531,9.6e-4 0.02474,0.15756 0.266555,0.34826 0.646317,0.50946 0.932374,1.85503 0.809873,3.80954 l -0.09123,1.45577 0.337028,-0.48526 c 0.481953,-0.69391 0.558811,-1.0366 0.332703,-1.48349 -0.215851,-0.42664 -0.584751,-2.23247 -0.477881,-2.33934 0.139952,-0.13998 0.793893,0.22057 1.016618,0.5605 0.127879,0.19514 0.265451,0.64731 0.305747,1.00481 0.05951,0.52816 0.09418,0.59347 0.184851,0.34838 0.170651,-0.46134 -0.333443,-1.82968 -0.841744,-2.28485 -0.234181,-0.20969 -0.585964,-0.38128 -0.781753,-0.38128 -0.497751,0 -0.356168,-0.27119 0.272493,-0.52193 0.666225,-0.26573 1.368514,-0.0815 1.984238,0.52046 0.700511,0.68489 0.918508,1.30286 0.928729,2.6328 0.0086,1.13773 -0.0136,1.22417 -0.603659,2.33856 -0.512127,0.96714 -0.729975,1.23215 -1.326609,1.61381 -0.392619,0.25116 -1.019737,0.81237 -1.393588,1.24712 -0.373847,0.43476 -0.848204,0.87836 -1.054119,0.98578 -0.437558,0.22827 -0.890333,0.2536 -1.012058,0.0567 z m -4.191886,-3.73966 c -0.404246,-0.096 -0.99089,-0.6052 -1.002647,-0.87028 -0.0074,-0.1657 0.800848,-0.12023 0.906677,0.051 0.06046,0.0978 0.31912,0.12439 0.701404,0.072 0.524248,-0.0719 0.60562,-0.049 0.60562,0.17013 0,0.26536 -0.415594,0.72223 -0.63482,0.69787 -0.07026,-0.008 -0.329554,-0.0621 -0.576234,-0.1207 z m 2.493516,-2.03868 c -0.263564,-0.10318 -0.207142,-0.52571 0.108311,-0.81119 0.253736,-0.22963 0.302764,-0.23369 0.495417,-0.041 0.192668,0.19265 0.181933,0.24876 -0.108314,0.56695 -0.177155,0.19423 -0.400095,0.3226 -0.495417,0.28528 z m -2.994035,-0.29829 c -0.2255,-0.24919 -0.309094,-0.57832 -0.146852,-0.57832 0.214414,0 0.88792,0.49592 0.88792,0.6538 0,0.26426 -0.477616,0.21562 -0.74106,-0.0755 z m -4.88e-4,-1.51486 c -0.08256,-0.13357 0.392797,-0.72719 0.582284,-0.72719 0.278322,0 0.32178,0.2984 0.08202,0.56331 -0.249365,0.27554 -0.549545,0.3496 -0.664324,0.16387 z M 20.918812,115.29226 c -0.667257,-0.28941 -0.974641,-0.59862 -0.974641,-0.98042 0,-0.17882 0.03427,-0.32512 0.07619,-0.32512 0.177405,0 0.975639,0.47493 1.11275,0.66207 0.150762,0.20578 0.849837,0.18836 1.549275,-0.0386 0.391403,-0.12701 0.399943,0.0592 0.02449,0.53631 -0.336685,0.42803 -1.010743,0.48298 -1.788194,0.14576 z m -4.648726,-0.25582 c -0.27595,-0.21681 -0.275965,-0.21887 -0.004,-0.42926 0.235666,-0.18193 0.248987,-0.25119 0.0956,-0.4968 -0.147619,-0.23639 -0.14282,-0.33945 0.02803,-0.60019 0.113454,-0.17313 0.250138,-0.55789 0.303753,-0.85499 0.05365,-0.29711 0.161968,-0.62131 0.240811,-0.72045 0.101657,-0.12783 0.08526,-0.23834 -0.05635,-0.37994 -0.173793,-0.17379 -0.280048,-0.15752 -0.819957,0.12577 -0.341159,0.17899 -0.901045,0.36234 -1.244189,0.40741 -0.343146,0.0451 -1.171447,0.3028 -1.840667,0.57273 l -1.216711,0.49077 -0.514234,-0.27561 c -0.282832,-0.1516 -0.596835,-0.27562 -0.697788,-0.27562 -0.100941,0 -0.144253,-0.0636 -0.09624,-0.14129 0.13028,-0.21075 1.405181,-0.82923 1.709393,-0.82923 0.500552,0 1.369032,-0.39033 2.100802,-0.94418 0.403308,-0.30526 0.86486,-0.61761 1.025662,-0.69412 0.160805,-0.0765 0.598011,-0.27957 0.971573,-0.45124 0.928586,-0.42674 1.491816,-0.95324 1.868772,-1.7469 0.533888,-1.12407 2.298682,-2.2836 3.829678,-2.51622 1.295617,-0.19685 2.547816,-0.007 3.281553,0.49799 0.771093,0.53053 0.909489,0.69839 1.366857,1.65788 l 0.369082,0.77426 1.85856,-0.0265 c 2.057911,-0.0294 2.78613,0.16643 2.87234,0.77224 0.05828,0.40952 -0.408853,0.48804 -2.57379,0.43264 l -1.69866,-0.0435 2.34e-4,0.83187 c 2.27e-4,0.89177 -0.327617,2.83455 -0.547774,3.24591 -0.197321,0.36871 -0.81082,0.72889 -1.157149,0.67937 -0.417971,-0.0598 -0.460008,-0.48337 -0.09675,-0.97471 0.406799,-0.55023 0.795795,-2.48891 0.585494,-2.91803 -0.0835,-0.17041 -0.175945,-0.65297 -0.205409,-1.07237 -0.06098,-0.86806 -0.661393,-2.32034 -1.148459,-2.77792 -0.439498,-0.41289 -1.334203,-0.49224 -2.418375,-0.21449 -1.363924,0.34942 -1.64363,0.69656 -0.661122,0.82049 0.324081,0.0409 0.785844,0.11573 1.026135,0.16632 0.365716,0.077 0.451946,0.0446 0.529265,-0.199 0.204667,-0.64482 0.999742,-0.0341 0.860702,0.66109 -0.07028,0.35136 -0.04513,0.39565 0.189873,0.3342 0.172187,-0.045 0.269292,-0.002 0.266487,0.11865 -0.0069,0.2975 -0.348898,0.67473 -0.611664,0.67473 -0.413784,0 -0.141041,0.34604 0.282215,0.35805 0.663743,0.0188 0.74979,0.0487 0.74979,0.26048 0,0.24022 -0.876993,0.52247 -2.356955,0.75859 -0.57191,0.0912 -1.28773,0.23094 -1.590707,0.31042 -0.302985,0.0795 -0.953214,0.2015 -1.444958,0.27114 -1.065717,0.15093 -1.319021,0.31056 -1.110626,0.69995 0.102394,0.19134 0.101528,0.39976 -0.0029,0.69935 -0.08183,0.23476 -0.148783,0.57566 -0.148783,0.7576 0,0.18194 -0.08659,0.46899 -0.192396,0.63788 -0.105805,0.16889 -0.232253,0.53476 -0.280958,0.81305 -0.04873,0.2783 -0.174931,0.57767 -0.280483,0.66528 -0.334055,0.27724 -1.092479,0.32423 -1.395148,0.0864 z m 6.923203,-6.0375 c 0.195615,-0.0744 0.355645,-0.19915 0.355645,-0.27729 0,-0.21835 -0.213278,-0.16981 -0.57388,0.1306 -0.366778,0.30555 -0.306383,0.34615 0.21825,0.14668 z m -1.099353,4.43445 c -0.04669,-0.0756 -0.006,-0.47689 0.0905,-0.89186 0.171764,-0.73879 0.184159,-0.7528 0.596642,-0.67455 0.565593,0.10726 0.561443,0.0984 0.348854,0.74259 -0.23527,0.71285 -0.818126,1.17634 -1.035992,0.82382 z m -2.022312,-1.78808 c -0.332567,-0.27253 -0.333059,-0.27668 -0.05813,-0.48741 0.613223,-0.47005 1.443468,-0.12023 1.082402,0.45604 -0.206822,0.33012 -0.643388,0.34349 -1.02427,0.0314 z m 3.650614,-0.6007 c -0.362782,-0.17496 -0.422773,-0.72912 -0.09266,-0.85579 0.50232,-0.19277 0.883306,-0.0892 0.972016,0.26426 0.09067,0.36125 -0.131935,0.76811 -0.411092,0.75136 -0.08597,-0.005 -0.296702,-0.0771 -0.468277,-0.15984 z"
       id="path1" /><path
       style="fill:#ffffff;stroke-width:0.493233"
       d="m 42.112519,74.235331 c -0.222512,-0.09705 -0.604226,-0.428087 -0.848258,-0.735623 -0.93009,-1.172126 -1.373182,-1.557923 -1.789284,-1.557923 -0.521189,0 -0.851207,-0.3335 -0.763363,-0.771427 0.238391,-1.188422 0.466876,-1.975776 0.676179,-2.3301 0.218,-0.369048 0.225974,-0.502216 0.08537,-1.425923 -0.0853,-0.560373 -0.154697,-1.315419 -0.154224,-1.677888 4.73e-4,-0.362468 -0.05388,-0.714823 -0.120793,-0.783008 -0.06691,-0.06819 -0.289277,-0.630481 -0.494156,-1.249543 -0.476665,-1.440325 -0.992081,-2.070536 -1.6966,-2.074481 -0.895189,-0.005 -3.218671,0.415109 -4.108844,0.742948 -2.37923,0.876238 -4.803943,1.026981 -6.925838,0.430582 l -1.145217,-0.321884 -1.203806,0.424561 c -1.400591,0.493963 -1.886792,0.525392 -2.360725,0.152601 -0.274849,-0.216198 -0.343853,-0.381485 -0.343853,-0.823655 0,-1.022641 0.645465,-1.424463 2.765621,-1.721676 0.81162,-0.113779 1.886757,-0.297603 2.389184,-0.408496 1.44105,-0.318067 4.834493,-0.380663 5.949182,-0.109735 1.036944,0.252028 1.343277,0.267096 2.794414,0.137449 0.827272,-0.07391 1.165925,-0.04799 1.631267,0.124788 1.124963,0.417724 1.142432,0.410814 0.562795,-0.222566 -0.694182,-0.75854 -1.082974,-1.530219 -1.592222,-3.160267 -0.439279,-1.406062 -0.522557,-2.421347 -0.219253,-2.673069 0.102761,-0.08528 0.587244,-0.211592 1.076636,-0.28069 1.095244,-0.154639 1.345792,-0.378152 1.871239,-1.66933 0.212766,-0.522822 0.504746,-1.116157 0.648839,-1.318522 0.144098,-0.202363 0.261991,-0.538054 0.261991,-0.74597 0,-0.223031 0.224248,-0.723111 0.546902,-1.21962 0.300793,-0.46287 0.658216,-1.135207 0.794274,-1.494089 0.353451,-0.932309 1.024348,-1.507144 1.89778,-1.626037 0.481219,-0.06551 0.794476,-0.194804 1.021132,-0.421454 0.402745,-0.402745 0.541886,-1.233222 0.267959,-1.599315 -0.170589,-0.227987 -0.242745,-0.237931 -0.710212,-0.09788 -0.286179,0.08575 -0.735545,0.155897 -0.998586,0.155897 -0.402616,0 -0.578262,0.103208 -1.110496,0.652507 -0.347724,0.358878 -0.712949,0.656667 -0.81161,0.661758 -0.187874,0.0097 -1.853997,2.480403 -2.653455,3.934829 -1.218725,2.217205 -1.70899,1.570905 -1.853424,-2.443316 -0.108653,-3.019768 0.211291,-4.488475 1.482592,-6.805775 0.597637,-1.089366 1.0096,-1.481064 1.557686,-1.481064 0.37214,0 0.438958,0.04608 0.438958,0.302764 0,0.16652 -0.196908,0.533554 -0.437572,0.815635 -0.46243,0.542004 -0.86744,1.24394 -0.86744,1.503391 0,0.08537 0.09373,0.223756 0.208292,0.307526 0.361265,0.264161 0.117312,1.564789 -0.402606,2.146493 -0.231292,0.258776 -0.487729,0.598776 -0.569863,0.75555 -0.211509,0.403732 -0.185175,1.660333 0.04641,2.21461 0.107661,0.257674 0.195754,0.617242 0.195754,0.799038 0,0.327705 0.0024,0.328411 0.274529,0.0821 0.150987,-0.136646 0.420969,-0.498334 0.599959,-0.803759 0.178989,-0.305419 0.477954,-0.675281 0.664361,-0.821909 0.186408,-0.146629 0.670502,-0.650068 1.075767,-1.118753 0.557107,-0.644291 0.95678,-0.960154 1.638518,-1.294921 0.495916,-0.243524 1.026674,-0.444556 1.179465,-0.446742 0.182593,-0.0024 0.332469,-0.135965 0.437325,-0.389116 0.193027,-0.466002 0.557783,-0.719805 1.207943,-0.8405 0.577044,-0.107125 1.013215,0.08433 1.013215,0.444739 0,0.241457 -0.141927,0.312123 -0.837441,0.416945 -0.350132,0.05276 -0.424466,0.363957 -0.08694,0.363957 0.149534,0 0.271881,0.07638 0.271881,0.169738 0,0.402492 0.331684,0.879567 0.587254,0.844666 0.446391,-0.06095 0.717329,-0.822344 0.717555,-2.016467 2.51e-4,-1.330725 0.115624,-1.478507 1.15141,-1.474838 0.407583,0.0015 1.122777,0.05762 1.589322,0.124832 1.187022,0.171019 1.359416,0.40241 1.266263,1.699565 -0.07903,1.100435 -0.478465,2.505229 -0.819477,2.882048 -0.199789,0.220757 -0.415792,0.249985 -1.847648,0.249985 h -1.621408 l 0.08852,-0.402996 c 0.08228,-0.37464 0.06985,-0.393008 -0.176806,-0.261003 -0.145922,0.0781 -0.385929,0.141991 -0.533352,0.141991 -0.211281,0 -0.285514,0.109271 -0.350556,0.516007 -0.04538,0.283807 -0.178206,0.598933 -0.29517,0.700288 -0.342207,0.296547 -1.666085,0.652818 -2.101911,0.565655 -0.325164,-0.06503 -0.394519,-0.03649 -0.394519,0.162254 0,0.13264 -0.326564,0.866572 -0.725693,1.630966 -0.399135,0.764393 -0.956524,2.012022 -1.238639,2.77251 -0.603376,1.626478 -0.863528,2.078142 -1.558766,2.706245 -0.584669,0.528213 -0.990226,0.667306 -1.638793,0.562059 -0.247317,-0.04015 -0.449628,-0.03261 -0.449579,0.01672 5.6e-5,0.04932 0.15248,0.647562 0.338724,1.329433 0.45124,1.652046 1.042918,2.886269 1.876843,3.915041 0.892177,1.100631 1.252527,1.674543 1.578042,2.513282 0.146007,0.376199 0.557769,1.306605 0.915023,2.067567 0.809676,1.724631 0.894109,2.324753 0.526545,3.742745 -0.481228,1.856506 -0.384385,2.310538 0.795143,3.72789 0.355596,0.427292 0.700456,0.918702 0.766352,1.092023 0.155289,0.408447 0.155279,1.472648 -1.4e-5,1.472648 -0.06591,0 -0.198039,0.02723 -0.293633,0.0605 -0.09558,0.0333 -0.355853,-0.01894 -0.578366,-0.115974 z M 48.54509,44.353192 c 0.01372,-0.01036 0.04711,-0.487191 0.07423,-1.059648 0.02712,-0.572452 0.124098,-1.179258 0.215528,-1.348463 0.09143,-0.169197 0.116754,-0.352927 0.05627,-0.408284 -0.09889,-0.09051 -2.022356,-0.417392 -2.084374,-0.354221 -0.01411,0.01435 -0.05773,0.778206 -0.09693,1.697401 l -0.07126,1.671271 0.940799,-0.08962 c 0.517437,-0.04928 0.95202,-0.09809 0.965737,-0.108438 z m -0.0044,29.488627 c -1.097686,-0.247736 -1.2094,-0.397127 -0.999868,-1.337116 0.09302,-0.417266 0.212614,-1.257834 0.265778,-1.867931 0.05316,-0.610094 0.156346,-1.294357 0.22929,-1.520589 0.07294,-0.226226 0.172099,-0.930934 0.220341,-1.566017 0.04824,-0.635078 0.17032,-1.418954 0.27128,-1.741943 0.100955,-0.322995 0.199364,-1.262604 0.21869,-2.08802 0.03399,-1.452179 0.02253,-1.523501 -0.353669,-2.202773 -0.40596,-0.732989 -1.364586,-1.58177 -1.786467,-1.58177 -0.356696,0 -0.452971,0.392915 -0.543604,2.218525 -0.116825,2.353346 -0.601315,4.024052 -1.428423,4.925742 -0.185066,0.201757 -0.318387,0.628296 -0.428289,1.370267 -0.145889,0.984904 -0.137385,1.138886 0.09909,1.795074 0.466772,1.295266 0.519477,1.664482 0.298577,2.091656 -0.151313,0.292602 -0.291989,0.38787 -0.572752,0.38787 -0.5393,0 -0.73838,-0.295536 -0.569577,-0.845547 0.100646,-0.327925 0.09393,-0.522284 -0.02574,-0.745176 -0.719544,-1.340106 -0.878257,-1.59639 -1.07995,-1.743873 -0.215814,-0.15781 -0.211336,-0.191804 0.07662,-0.581276 0.433242,-0.58599 0.570083,-1.149993 0.40234,-1.658266 -0.131515,-0.398497 -0.109502,-0.450617 0.391671,-0.927377 0.292592,-0.278326 0.531026,-0.628385 0.531026,-0.77962 0,-0.150959 0.14256,-0.732624 0.316799,-1.292592 0.174239,-0.559969 0.381867,-1.546653 0.461391,-2.192635 0.07953,-0.645984 0.178575,-1.440987 0.220101,-1.76668 0.06543,-0.513091 0.0286,-0.647911 -0.275758,-1.00962 -0.287234,-0.341362 -0.386952,-0.661599 -0.54706,-1.756858 -0.169894,-1.162192 -0.26352,-1.444208 -0.707643,-2.131515 -0.281513,-0.435657 -0.511843,-0.927615 -0.511843,-1.093238 0,-0.283091 0.03945,-0.29734 0.65861,-0.237851 0.484518,0.04657 0.756872,0.15743 1.030366,0.419455 0.366762,0.351381 1.443057,2.589734 1.443057,3.001111 0,0.335151 0.377601,1.150541 0.683697,1.476366 0.153859,0.163769 0.554606,0.37939 0.890553,0.479157 0.917739,0.272541 1.354488,0.535617 1.849734,1.114205 l 0.448655,0.524149 -0.05612,2.056676 c -0.04089,1.499381 -0.138051,2.427977 -0.358487,3.426939 -0.252053,1.14224 -0.300759,1.728595 -0.29268,3.523536 0.0053,1.184304 -0.03404,2.344132 -0.08743,2.577407 l -0.09714,0.424126 h 1.000006 c 0.741651,0 0.986121,-0.04212 0.946278,-0.163126 -0.02954,-0.08972 -0.19163,-0.183251 -0.360183,-0.207849 -0.404028,-0.05896 -0.912858,-0.398883 -0.912858,-0.609833 0,-0.09229 0.146239,-0.48193 0.324977,-0.865878 0.178739,-0.383947 0.325914,-0.844905 0.327059,-1.024343 9.6e-4,-0.179438 0.09426,-0.502432 0.206916,-0.717757 0.112661,-0.215327 0.264368,-0.712136 0.337125,-1.104015 0.07276,-0.391879 0.273848,-0.991869 0.446865,-1.333299 0.173022,-0.341436 0.314579,-0.772473 0.314579,-0.957865 0,-0.185392 0.09891,-0.525013 0.21981,-0.754722 0.289504,-0.550068 0.916676,-3.289458 1.202124,-5.250713 0.104131,-0.715475 0.0926,-1.08978 -0.05225,-1.696516 -0.102223,-0.428172 -0.187956,-1.207174 -0.190511,-1.731113 -0.0024,-0.55363 -0.08128,-1.100212 -0.187607,-1.305012 -0.217875,-0.419667 -1.833009,-1.999293 -2.295899,-2.245431 -0.179068,-0.09522 -0.774711,-0.515691 -1.323656,-0.934387 -1.281422,-0.977377 -1.53004,-1.469954 -0.584419,-1.157871 0.522459,0.17243 0.895319,0.04154 1.129827,-0.396658 0.109533,-0.204662 0.07625,-0.486348 -0.145835,-1.234455 C 48.96501,48.408366 48.9548,48.258069 49.108576,47.533443 l 0.168123,-0.792222 0.411045,0.398405 c 0.87117,0.844373 1.187264,0.454746 1.152485,-1.420612 -0.02185,-1.17793 0.01316,-1.455482 0.228131,-1.808974 0.323877,-0.532568 0.609424,-0.526866 1.211027,0.02417 l 0.482254,0.441732 v 1.574135 c 0,1.428453 -0.03019,1.630925 -0.326248,2.187732 -0.179445,0.337482 -0.326255,0.715135 -0.326255,0.839228 0,0.393245 -0.402563,1.216501 -0.883322,1.806448 -0.729074,0.894652 -0.669497,1.216062 0.383049,2.066481 0.855148,0.690926 1.894703,1.808135 2.160965,2.322391 0.07433,0.143551 0.202947,0.583994 0.285829,0.978758 0.08625,0.41082 0.355858,1.024698 0.630467,1.435516 0.416842,0.623606 0.499817,0.880383 0.632592,1.957523 0.142411,1.155305 0.110005,1.748216 -0.156894,2.871027 -0.04266,0.179439 -0.109779,0.502311 -0.149163,0.717488 -0.08856,0.483872 -0.571673,1.250747 -1.274447,2.023043 -1.015371,1.115817 -2.076385,3.270793 -2.412016,4.898918 -0.0882,0.427842 -0.241749,0.936474 -0.341219,1.13029 -0.247515,0.482274 -0.25257,0.474047 0.390711,0.636024 0.399884,0.100694 0.615481,0.240299 0.717758,0.464774 0.209456,0.459714 0.183937,0.619117 -0.149219,0.932103 -0.690738,0.648913 -2.12666,0.912172 -3.403524,0.623996 z m 20.141961,-8.370721 c -0.179439,-0.09956 -0.461194,-0.181899 -0.626116,-0.182955 -0.164923,-9.61e-4 -0.429187,-0.138436 -0.587255,-0.305278 -0.158065,-0.166846 -0.387094,-0.34 -0.508952,-0.384791 -0.40276,-0.148044 -0.64663,-0.861215 -0.721053,-2.108662 -0.08406,-1.408972 0.07739,-1.944658 0.477061,-1.58295 0.171599,0.155295 0.251376,0.492055 0.308575,1.302592 0.04242,0.601226 0.159843,1.291057 0.260912,1.532959 0.2292,0.54855 0.996075,1.146432 1.595181,1.243654 0.507271,0.08231 0.620428,-0.123283 0.193574,-0.35173 -0.35636,-0.190718 -0.745083,-0.994674 -0.992572,-2.052843 -0.166585,-0.712244 -0.185984,-1.200112 -0.09998,-2.514934 0.05868,-0.897197 0.108195,-1.714574 0.11003,-1.816396 0.0034,-0.180342 -0.637318,-0.634502 -0.921854,-0.65359 -0.164108,-0.01099 -1.269915,1.34565 -1.750081,2.147096 -0.502557,0.838802 -0.559905,0.90977 -0.978764,1.21117 -0.674246,0.485174 -1.886087,0.824883 -3.393038,0.951161 -2.545263,0.213279 -2.927839,0.143659 -3.69684,-0.672747 -0.842734,-0.89469 -0.728945,-1.191395 0.409123,-1.066769 0.345021,0.03778 0.95416,-0.0097 1.353635,-0.105548 0.627723,-0.15059 0.896871,-0.145001 1.98271,0.04118 1.337635,0.229339 1.765362,0.190195 2.691902,-0.246356 0.628321,-0.296034 0.669244,-0.346907 0.766047,-0.952267 0.06032,-0.377234 0.257605,-0.637277 0.961809,-1.267768 0.487261,-0.43625 1.061262,-0.882997 1.275557,-0.992761 0.606519,-0.310668 1.426584,-0.40712 1.760602,-0.207075 0.253251,0.151681 0.305785,0.141031 0.437192,-0.0886 0.08215,-0.14355 0.526626,-0.620833 0.98774,-1.06062 0.790448,-0.753898 0.821255,-0.805056 0.538724,-0.894725 -0.377629,-0.119856 -2.237416,0.04563 -2.448031,0.217845 -0.234977,0.19212 -0.429848,0.0076 -0.429848,-0.406888 0,-0.201963 -0.111723,-0.62426 -0.248275,-0.938431 -0.145089,-0.33382 -0.285952,-1.066769 -0.338934,-1.763591 -0.07669,-1.008544 -0.05623,-1.244941 0.132778,-1.533389 0.246872,-0.376781 0.59996,-0.441652 0.838625,-0.154081 0.08533,0.102814 0.205412,0.528578 0.266854,0.946134 0.06144,0.417558 0.18162,1.075724 0.267066,1.462596 0.08544,0.386873 0.124956,0.930087 0.08779,1.20714 -0.06772,0.504841 -0.02028,0.582604 0.246385,0.40386 0.198027,-0.132744 0.302321,-0.62218 0.437867,-2.054866 0.06401,-0.676548 0.150604,-1.285464 0.192435,-1.353147 0.123846,-0.200385 0.832988,0.13666 0.912814,0.43385 0.131867,0.49092 0.06658,1.696979 -0.120247,2.221548 -0.208124,0.584378 -0.119145,0.71658 0.4846,0.719988 0.194693,9.6e-4 0.673476,0.121539 1.063969,0.267638 0.577394,0.216032 0.752866,0.356007 0.93961,0.749543 0.204904,0.431806 0.215389,0.652587 0.09737,2.050761 -0.07275,0.861769 -0.176656,1.669627 -0.230922,1.795232 -0.159925,0.370193 0.665269,0.296449 1.25486,-0.112141 0.424591,-0.294238 0.691776,-0.355472 1.96599,-0.450573 0.81104,-0.06053 2.296127,-0.126347 3.300187,-0.146253 1.602167,-0.03176 1.889451,-0.0044 2.347576,0.222202 0.388072,0.192093 0.532411,0.348512 0.562564,0.609656 0.0442,0.382714 -0.03735,0.419313 -1.671826,0.750296 -0.39477,0.07995 -0.982024,0.205836 -1.305019,0.279763 -0.322989,0.07393 -1.585588,0.157119 -2.805779,0.184879 -2.03232,0.04621 -3.508276,0.202053 -3.696475,0.390255 -0.125004,0.125001 0.229778,1.254215 0.503316,1.60196 0.141281,0.17961 0.256879,0.380489 0.256879,0.446395 0,0.06591 0.146812,0.335883 0.326256,0.59995 0.41396,0.609203 0.426727,1.138663 0.03261,1.353221 -0.161495,0.08792 -0.678092,0.1608 -1.147991,0.161959 -1.142858,0.0029 -1.736971,-0.414351 -2.001798,-1.405598 -0.09828,-0.367843 -0.338282,-1.256059 -0.533346,-1.973818 -0.401605,-1.477737 -0.406765,-2.112592 -0.01663,-2.045193 0.356622,0.06161 0.600355,0.347731 0.600355,0.704757 0,0.17021 0.05276,0.365265 0.117251,0.433454 0.06449,0.06819 0.243041,0.588419 0.396788,1.156075 0.465223,1.717691 0.749113,2.26163 1.27013,2.43358 0.584468,0.19289 0.684989,0.07446 0.373403,-0.439948 -0.772646,-1.275572 -1.113559,-2.100861 -1.113559,-2.695715 0,-0.339527 -0.06536,-0.804815 -0.145248,-1.033975 -0.117631,-0.337431 -0.09238,-0.639044 0.132764,-1.586388 0.254154,-1.069384 0.261814,-1.820446 0.01855,-1.820446 -0.05287,0 -0.458682,0.234331 -0.901813,0.52074 -0.523667,0.338462 -0.930122,0.726751 -1.161166,1.109264 -0.195515,0.323685 -0.449884,0.588516 -0.565267,0.588516 -0.354398,0 -0.433903,2.033899 -0.130317,3.333786 0.133336,0.570908 0.279357,1.247773 0.324494,1.504141 0.04514,0.256372 0.228179,0.664177 0.406764,0.906238 0.730429,0.990043 0.07384,1.811721 -0.980311,1.22679 z m -7.830084,-6.53068 c -1.86691,-0.998117 -2.509135,-1.404823 -2.766913,-1.752232 -0.217495,-0.293125 -0.2299,-0.410557 -0.103106,-0.976336 0.07927,-0.353728 0.146047,-1.495751 0.148385,-2.537835 0.0039,-1.79978 0.02352,-1.94045 0.389215,-2.808202 0.423457,-1.00484 0.405543,-0.972621 0.96215,-1.730638 0.38421,-0.523232 1.16493,-1.075141 1.520867,-1.075141 0.09918,0 0.39949,-0.148931 0.667365,-0.330959 0.373467,-0.253773 0.487049,-0.418805 0.487049,-0.707638 0,-0.31561 0.07492,-0.401403 0.46214,-0.529195 0.595476,-0.196528 0.787112,-0.113923 0.886306,0.382064 0.07165,0.358295 0.131141,0.402721 0.539228,0.402721 0.410287,0 0.508144,0.07449 0.927398,0.705931 0.287639,0.433212 0.452009,0.82394 0.425463,1.011385 -0.03965,0.279925 -0.103234,0.304354 -0.761005,0.292309 -0.762889,-0.01396 -1.580213,-0.345578 -2.00241,-0.812429 -0.301677,-0.33358 -0.469287,-0.274007 -1.457344,0.518008 -0.603836,0.48403 -0.898281,0.850015 -1.278752,1.58944 -0.572092,1.111829 -0.870029,2.125547 -0.869792,2.959422 2.67e-4,0.947245 0.477454,3.048016 0.726261,3.197283 0.119645,0.07178 0.621948,0.438812 1.116239,0.815632 0.494287,0.376826 0.971225,0.683302 1.059864,0.681062 0.08864,-0.0024 0.392584,-0.14625 0.675439,-0.320015 l 0.514289,-0.315941 -0.383785,-0.138999 c -1.07472,-0.38924 -1.884551,-0.96322 -1.884551,-1.335701 0,-0.135994 -0.08196,-0.405837 -0.182138,-0.599658 -0.165385,-0.31999 -0.20879,-0.875214 -0.236696,-3.027676 -0.0077,-0.594188 0.321627,-2.150848 0.49378,-2.333967 0.02594,-0.02761 0.226266,0.02398 0.445143,0.114653 0.387081,0.16033 0.395875,0.183103 0.321603,0.833195 -0.04197,0.367602 -0.1311,0.9502 -0.198018,1.294669 -0.1767,0.909592 -0.149845,1.808323 0.08488,2.840316 0.258509,1.136558 0.444822,1.341862 1.115028,1.22863 0.445351,-0.07524 0.549631,-0.03838 0.909918,0.321944 0.377527,0.377525 0.400402,0.451407 0.316642,1.02265 -0.04965,0.338649 -0.21836,0.850626 -0.374907,1.137727 -0.268734,0.492865 -0.320952,0.523533 -0.935295,0.549291 -0.551198,0.02314 -0.820267,-0.06339 -1.759937,-0.56577 z M 55.41454,55.335487 c 0.03957,-0.807478 0.107889,-1.732409 0.151896,-2.055398 0.04399,-0.32299 0.06384,-1.174512 0.04409,-1.892271 -0.04113,-1.494192 -0.01987,-2.283607 0.09143,-3.393039 0.115406,-1.150241 0.09235,-1.467246 -0.185846,-2.554965 -0.211913,-0.828572 -0.22784,-1.075047 -0.100358,-1.553064 0.119204,-0.446982 0.116728,-0.579801 -0.01159,-0.622609 -0.08973,-0.02994 -0.163127,-0.223937 -0.163127,-0.431136 0,-0.374254 -0.682754,-1.873182 -0.920014,-2.01982 -0.205441,-0.126968 -0.139436,-0.621568 0.145266,-1.088552 l 0.26829,-0.440069 -0.268777,-0.286103 c -0.147828,-0.157352 -0.268778,-0.407255 -0.268778,-0.555338 0,-0.148079 -0.08808,-0.342344 -0.19575,-0.431698 -0.107668,-0.08936 -0.195754,-0.324256 -0.195754,-0.522004 0,-0.197752 -0.08808,-0.432654 -0.19575,-0.522008 -0.107668,-0.08935 -0.195755,-0.236166 -0.195755,-0.32625 0,-0.09008 -0.09187,-0.240036 -0.204139,-0.333218 -0.124724,-0.10351 -0.176065,-0.281296 -0.131965,-0.456997 0.04321,-0.172211 -0.02229,-0.411677 -0.163339,-0.596941 -0.380688,-0.500064 -0.816617,-1.425677 -0.734227,-1.558988 0.04187,-0.06774 -0.04514,-0.277325 -0.193363,-0.465754 -0.148216,-0.188425 -0.269482,-0.472386 -0.269482,-0.631019 0,-0.351094 -0.305437,-0.643212 -0.957323,-0.91559 -0.464438,-0.194058 -0.509279,-0.190793 -0.828459,0.06027 -0.18559,0.145988 -0.472681,0.265435 -0.63797,0.265435 -0.165291,0 -0.856223,0.376755 -1.535401,0.837238 -1.022996,0.693591 -1.360116,0.852895 -1.96485,0.928449 -0.852205,0.106475 -1.641048,0.0079 -2.612531,-0.326279 -1.022247,-0.351705 -2.425585,-1.338923 -2.425585,-1.706342 0,-0.387149 1.734935,0.11484 2.552747,0.738613 0.659709,0.503186 1.342952,0.551065 1.844264,0.129236 0.222182,-0.186949 0.503759,-0.339917 0.625721,-0.339917 0.121966,0 0.251593,-0.114093 0.288063,-0.253547 0.03838,-0.146697 0.22421,-0.288231 0.44101,-0.335846 0.354458,-0.07785 1.034266,-0.726352 1.034266,-0.986637 0,-0.06627 0.127511,-0.120486 0.283354,-0.120486 0.155842,0 0.382113,-0.08938 0.502822,-0.198621 0.120709,-0.109236 0.544253,-0.26674 0.941204,-0.350002 0.693973,-0.145559 0.755869,-0.135078 1.609395,0.272629 0.488213,0.233205 1.057459,0.566889 1.264981,0.741507 0.207528,0.174625 0.454013,0.317495 0.547741,0.317495 0.218518,0 1.694204,1.517079 2.159826,2.220405 0.19607,0.296167 0.454012,0.930752 0.573202,1.410189 0.119189,0.479438 0.300714,1.165334 0.403386,1.52421 0.102677,0.358883 0.224033,1.06359 0.269685,1.566018 0.04567,0.502432 0.21808,1.530129 0.383169,2.283775 0.750332,3.42533 0.583194,14.847717 -0.235544,16.097272 -0.148537,0.22669 -0.343023,0.345904 -0.564328,0.345904 H 55.34262 Z M 32.690972,53.977551 c -0.09295,-0.03887 -0.311649,-0.366301 -0.485982,-0.727682 -0.298037,-0.6178 -0.308005,-0.709355 -0.166861,-1.532463 0.127195,-0.741724 0.11671,-0.994462 -0.06864,-1.65507 -0.12032,-0.428813 -0.218764,-1.057675 -0.218764,-1.397464 0,-0.339789 -0.08681,-0.785657 -0.192895,-0.990813 -0.106089,-0.20516 -0.191077,-0.686729 -0.188863,-1.070159 0.002,-0.383424 -4.94e-4,-1.196308 -0.0061,-1.806403 -0.01,-1.090954 0.06116,-1.508097 0.70082,-4.110792 0.630846,-2.566857 0.84527,-3.220397 1.339829,-4.083688 0.275812,-0.481451 0.641796,-1.154788 0.813303,-1.496309 0.171502,-0.341519 0.598802,-0.948892 0.949549,-1.349713 0.350754,-0.400822 0.777302,-1.002281 0.947891,-1.336574 0.316597,-0.620415 0.771038,-1.10365 1.411142,-1.500561 0.261301,-0.162022 0.358877,-0.328158 0.358877,-0.611023 0,-0.32435 0.05233,-0.388494 0.316932,-0.388494 0.399115,0 0.8222,0.38256 0.585127,0.529081 -0.11512,0.07115 -0.05255,0.194108 0.218736,0.429882 0.29224,0.253986 0.34984,0.377571 0.249472,0.535272 -1.196837,1.880419 -2.039477,3.116659 -2.440821,3.580931 -0.272374,0.315078 -0.552555,0.785785 -0.622628,1.046015 -0.12031,0.446801 -0.833698,1.698026 -1.048734,1.839401 -0.216717,0.142476 -0.920526,1.479919 -1.11743,2.123445 -0.11483,0.375287 -0.346236,1.122778 -0.51424,1.661093 -0.502226,1.609245 -0.611556,2.776204 -0.545117,5.818597 0.0336,1.5389 0.118455,2.870621 0.188553,2.959374 0.111569,0.141271 0.287851,1.744695 0.340562,3.097659 0.01554,0.398868 -0.02357,0.45994 -0.308462,0.481919 -0.179438,0.01385 -0.402306,-0.0066 -0.495261,-0.04547 z m 36.839902,-5.134508 c -0.04434,-0.07178 -0.187449,-0.130505 -0.317977,-0.130505 -0.370533,0 -0.615542,-0.364514 -0.424009,-0.630821 0.302386,-0.420423 0.326579,-0.582208 0.110681,-0.740073 -0.303388,-0.221846 -0.270947,-0.794036 0.108388,-1.911763 0.17894,-0.527252 0.326778,-1.222904 0.328533,-1.545892 0.0034,-0.626274 0.34048,-2.864874 0.447492,-2.971891 0.142672,-0.142669 -0.227262,-0.566444 -0.709028,-0.812223 -0.668895,-0.341244 -2.166395,-0.360736 -2.848455,-0.03709 -0.630011,0.29896 -2.158386,1.875477 -2.33993,2.413629 -0.07956,0.235839 -0.227785,0.653145 -0.329381,0.927339 -0.141622,0.382206 -0.153682,0.63422 -0.05168,1.079984 0.09473,0.413936 0.09144,0.623067 -0.01144,0.725926 -0.416437,0.416438 -0.945035,-0.493174 -0.945035,-1.626211 0,-0.585424 0.108599,-0.911781 0.661515,-1.987968 1.034127,-2.012803 1.25405,-2.289911 2.197138,-2.768436 0.80366,-0.407781 0.895633,-0.424131 2.385846,-0.424131 1.585178,0 2.224976,0.142805 2.743936,0.612457 0.265834,0.24058 0.318058,0.952804 0.07003,0.955004 -0.08972,9.6e-4 0.02319,0.14831 0.250899,0.327803 0.608355,0.479542 0.877611,1.746077 0.762307,3.585794 l -0.08589,1.370267 0.317234,-0.456759 c 0.453645,-0.65316 0.525988,-0.97572 0.313158,-1.396364 -0.203177,-0.401576 -0.550404,-2.101344 -0.44981,-2.201938 0.131738,-0.131743 0.747265,0.207622 0.956909,0.527578 0.120353,0.183679 0.249856,0.609291 0.287787,0.945799 0.05603,0.497136 0.08866,0.558608 0.173992,0.327911 0.160637,-0.434237 -0.313859,-1.722213 -0.792305,-2.150651 -0.220422,-0.197382 -0.551549,-0.358881 -0.735835,-0.358881 -0.468519,0 -0.335251,-0.255263 0.256486,-0.491281 0.627092,-0.250118 1.288134,-0.07673 1.867693,0.4899 0.659369,0.644657 0.86456,1.226336 0.874182,2.478159 0.0082,1.070909 -0.01278,1.152272 -0.568204,2.201207 -0.482048,0.910332 -0.6871,1.159785 -1.248691,1.519027 -0.369559,0.236407 -0.959841,0.76465 -1.311735,1.17387 -0.351892,0.409222 -0.798387,0.82677 -0.992205,0.927878 -0.411859,0.214852 -0.838042,0.23871 -0.952616,0.05334 z m -3.945701,-3.520012 c -0.380505,-0.09037 -0.93269,-0.56965 -0.943759,-0.819161 -0.0069,-0.155967 0.75381,-0.113178 0.853423,0.04799 0.0569,0.09209 0.300379,0.117071 0.660208,0.06774 0.493456,-0.06764 0.57005,-0.04612 0.57005,0.160148 0,0.249774 -0.391184,0.679804 -0.597533,0.656879 -0.06612,-0.0073 -0.310199,-0.05848 -0.542389,-0.113616 z m 2.347057,-1.91893 c -0.248082,-0.09713 -0.194985,-0.494837 0.101941,-0.763549 0.238833,-0.216146 0.284982,-0.219969 0.466318,-0.03863 0.181343,0.181338 0.171255,0.234148 -0.101936,0.53365 -0.166758,0.182816 -0.376599,0.303654 -0.466323,0.268524 z m -2.818179,-0.280773 c -0.212263,-0.234552 -0.290939,-0.544352 -0.138234,-0.544352 0.201812,0 0.83577,0.466791 0.83577,0.615393 0,0.248743 -0.449569,0.20296 -0.697536,-0.07104 z m -4.63e-4,-1.425889 c -0.07769,-0.125711 0.369732,-0.684481 0.548086,-0.684481 0.261975,0 0.302879,0.280873 0.07721,0.530226 -0.234718,0.259363 -0.517268,0.329063 -0.625305,0.154255 z M 43.760734,29.583192 c -0.628064,-0.272418 -0.917394,-0.563464 -0.917394,-0.92284 0,-0.168316 0.03225,-0.306026 0.07173,-0.306026 0.166995,0 0.918332,0.447036 1.047392,0.623185 0.141918,0.193703 0.799922,0.177308 1.45828,-0.03635 0.368416,-0.119555 0.37645,0.05567 0.02314,0.504809 -0.316913,0.402893 -0.951378,0.454614 -1.683164,0.137209 z m -4.375683,-0.240796 c -0.259741,-0.204076 -0.259756,-0.206024 -0.0034,-0.404052 0.221823,-0.171251 0.234365,-0.236437 0.08998,-0.467621 -0.138955,-0.222502 -0.134422,-0.319511 0.02638,-0.56494 0.106785,-0.16297 0.235445,-0.525116 0.285912,-0.804769 0.05047,-0.279653 0.152464,-0.584813 0.226655,-0.678137 0.09568,-0.12033 0.08025,-0.224333 -0.05304,-0.35762 -0.163591,-0.16359 -0.263599,-0.148251 -0.771798,0.118391 -0.321119,0.168484 -0.84812,0.341051 -1.171109,0.383479 -0.322993,0.04242 -1.102644,0.285016 -1.732557,0.53909 l -1.145299,0.461947 -0.484033,-0.259426 c -0.266219,-0.142688 -0.561779,-0.259431 -0.656801,-0.259431 -0.09502,0 -0.135773,-0.05985 -0.09058,-0.132981 0.122613,-0.198387 1.322646,-0.780526 1.608988,-0.780526 0.471157,0 1.288622,-0.367405 1.977413,-0.888729 0.379623,-0.287327 0.814064,-0.581335 0.965422,-0.653347 0.151358,-0.07202 0.562888,-0.263149 0.914508,-0.424743 0.874045,-0.401675 1.404192,-0.897248 1.75901,-1.644291 0.502531,-1.058054 2.163668,-2.149473 3.604744,-2.36843 1.21952,-0.185295 2.39817,-0.0064 3.088811,0.468742 0.725804,0.499367 0.856071,0.657368 1.286575,1.560498 l 0.347404,0.728792 1.749396,-0.02495 c 1.937044,-0.02763 2.622489,0.15665 2.703637,0.726878 0.05486,0.385468 -0.384841,0.45938 -2.422621,0.40723 l -1.598891,-0.04094 2.22e-4,0.783009 c 2.12e-4,0.839385 -0.308375,2.668063 -0.515601,3.055266 -0.185733,0.347045 -0.763196,0.686078 -1.089184,0.639463 -0.393421,-0.05625 -0.43299,-0.454982 -0.09107,-0.917458 0.382906,-0.517915 0.749053,-2.342727 0.551104,-2.746646 -0.0786,-0.160394 -0.165604,-0.614618 -0.193338,-1.009384 -0.0574,-0.817076 -0.622544,-2.184057 -1.081004,-2.614759 -0.413682,-0.388633 -1.255839,-0.463323 -2.276333,-0.201884 -1.283814,0.328899 -1.547091,0.655644 -0.622289,0.772302 0.305045,0.03847 0.739688,0.108931 0.965865,0.156561 0.344233,0.07249 0.4254,0.04198 0.498177,-0.187323 0.192637,-0.606951 0.941025,-0.03214 0.81015,0.622254 -0.06615,0.330731 -0.04248,0.372418 0.178728,0.314574 0.162063,-0.04237 0.253472,-0.0017 0.250834,0.111669 -0.0065,0.280027 -0.328405,0.635102 -0.575742,0.635102 -0.389477,0 -0.132744,0.325717 0.265641,0.337019 0.624759,0.01772 0.705753,0.04587 0.705753,0.245181 0,0.226103 -0.825484,0.491788 -2.218521,0.714034 -0.53832,0.08589 -1.212096,0.217373 -1.497278,0.292192 -0.285188,0.07481 -0.897228,0.189663 -1.360087,0.255209 -1.003125,0.142061 -1.241549,0.292325 -1.045394,0.658846 0.09638,0.180086 0.09556,0.376278 -0.0029,0.658275 -0.07703,0.220954 -0.140042,0.541847 -0.140042,0.713102 0,0.17125 -0.0815,0.441435 -0.181102,0.600409 -0.0996,0.158969 -0.218616,0.503355 -0.264457,0.765301 -0.04588,0.261947 -0.164645,0.543736 -0.264007,0.6262 -0.314437,0.26096 -1.028314,0.305188 -1.313206,0.08136 z m 6.516572,-5.682894 c 0.184115,-0.06999 0.334754,-0.18745 0.334754,-0.261003 0,-0.205518 -0.200761,-0.15983 -0.540174,0.122931 -0.345235,0.287608 -0.288386,0.325818 0.20542,0.138072 z M 44.86684,27.8335 c -0.04395,-0.07113 -0.0057,-0.448886 0.08517,-0.839473 0.161678,-0.695406 0.173338,-0.70859 0.561601,-0.63494 0.532371,0.100979 0.528466,0.09265 0.328361,0.698976 -0.221443,0.67098 -0.770071,1.10725 -0.975143,0.775437 z m -1.903532,-1.683057 c -0.313035,-0.256525 -0.3135,-0.260426 -0.05471,-0.458786 0.577207,-0.44244 1.358687,-0.113181 1.018829,0.429257 -0.194684,0.310733 -0.605598,0.323319 -0.964109,0.02954 z m 3.436196,-0.565423 c -0.341475,-0.164686 -0.39794,-0.686285 -0.08721,-0.805524 0.472814,-0.181437 0.831425,-0.08395 0.914924,0.248738 0.08534,0.340034 -0.124191,0.723001 -0.386946,0.707227 -0.08093,-0.0049 -0.279279,-0.07256 -0.440774,-0.150441 z"
       id="path2" /></g></svg>
