<?xml version="1.0" encoding="UTF-8" standalone="no"?>
<!-- Created with Inkscape (http://www.inkscape.org/) -->

<svg
   width="100mm"
   height="100mm"
   viewBox="0 0 100 100"
   version="1.1"
   id="svg1"
   xml:space="preserve"
   inkscape:version="1.3 (0e150ed6c4, 2023-07-21)"
   sodipodi:docname="秀老郎logo.svg"
   xmlns:inkscape="http://www.inkscape.org/namespaces/inkscape"
   xmlns:sodipodi="http://sodipodi.sourceforge.net/DTD/sodipodi-0.dtd"
   xmlns="http://www.w3.org/2000/svg"
   xmlns:svg="http://www.w3.org/2000/svg"><sodipodi:namedview
     id="namedview1"
     pagecolor="#ffffff"
     bordercolor="#000000"
     borderopacity="0.25"
     inkscape:showpageshadow="2"
     inkscape:pageopacity="0.0"
     inkscape:pagecheckerboard="0"
     inkscape:deskcolor="#d1d1d1"
     inkscape:document-units="in"
     inkscape:zoom="3.9861855"
     inkscape:cx="116.65287"
     inkscape:cy="125.55863"
     inkscape:window-width="1920"
     inkscape:window-height="1001"
     inkscape:window-x="-9"
     inkscape:window-y="-9"
     inkscape:window-maximized="1"
     inkscape:current-layer="layer1" /><defs
     id="defs1" /><g
     inkscape:label="圖層 1"
     inkscape:groupmode="layer"
     id="layer1"><g
       id="g5"
       style="opacity:1"><path
         id="path3"
         style="fill:none;stroke:#000000;stroke-width:0.584269;stroke-dasharray:none;stroke-opacity:1"
         d="m 30.626809,17.090928 c -7.00333,-0.05124 -13.55603,5.809051 -14.134398,12.816616 -0.740803,6.186005 3.12046,12.761414 9.012118,14.900459 2.926088,1.153748 6.159862,1.269081 9.150133,0.442883 3.242442,-0.857779 6.032582,-2.89007 7.923124,-5.671363 2.18587,-3.159135 3.027304,-7.313261 2.274713,-11.04136 -1.275766,-6.523138 -7.555268,-11.654332 -14.22569,-11.447235 z" /><path
         style="fill:#000000;stroke-width:0.211813"
         d="m 26.900168,43.098328 c -0.09556,-0.04168 -0.259478,-0.183837 -0.364275,-0.315905 -0.399417,-0.503356 -0.589698,-0.669033 -0.768388,-0.669033 -0.223819,0 -0.365541,-0.143217 -0.327817,-0.33128 0.102374,-0.510354 0.200494,-0.848475 0.290377,-1.000635 0.09362,-0.158483 0.09704,-0.215671 0.03666,-0.612346 -0.03663,-0.240646 -0.06643,-0.564892 -0.06623,-0.72055 2.04e-4,-0.155658 -0.02314,-0.306973 -0.05187,-0.336254 -0.02873,-0.02928 -0.124227,-0.270753 -0.212209,-0.536602 -0.204699,-0.618532 -0.426038,-0.889168 -0.728586,-0.890862 -0.384429,-0.0021 -1.382221,0.178264 -1.764496,0.31905 -1.021734,0.376291 -2.062999,0.441026 -2.974223,0.184909 l -0.4918,-0.13823 -0.516961,0.182323 c -0.601468,0.212127 -0.810261,0.225624 -1.013786,0.06553 -0.118031,-0.09284 -0.147664,-0.163825 -0.147664,-0.353709 0,-0.439162 0.277188,-0.61172 1.187664,-0.739355 0.348542,-0.04886 0.810247,-0.127802 1.026008,-0.175423 0.618843,-0.136591 2.076118,-0.163472 2.554809,-0.04713 0.445304,0.10823 0.576855,0.114702 1.200029,0.05903 0.355263,-0.03174 0.500693,-0.02061 0.700529,0.05359 0.483102,0.179387 0.490605,0.176419 0.241686,-0.09558 -0.298109,-0.325746 -0.465071,-0.657134 -0.683762,-1.35714 -0.188643,-0.603817 -0.224406,-1.03982 -0.09416,-1.147919 0.04413,-0.03662 0.252185,-0.09087 0.462349,-0.120539 0.47034,-0.06641 0.577935,-0.162393 0.803582,-0.716875 0.09137,-0.22452 0.216757,-0.479321 0.278637,-0.566224 0.06188,-0.0869 0.112508,-0.231061 0.112508,-0.320349 0,-0.09578 0.0963,-0.310531 0.234861,-0.523751 0.129173,-0.198775 0.282664,-0.487502 0.341092,-0.64162 0.151786,-0.40037 0.439895,-0.647226 0.81498,-0.698283 0.206654,-0.02813 0.341179,-0.08366 0.438514,-0.180989 0.172954,-0.172954 0.232707,-0.529593 0.115072,-0.686807 -0.07326,-0.09791 -0.104244,-0.102177 -0.304993,-0.04203 -0.122896,0.03682 -0.315871,0.06695 -0.428831,0.06695 -0.172899,0 -0.248328,0.04432 -0.47689,0.280212 -0.149326,0.154116 -0.306168,0.281998 -0.348537,0.284184 -0.08068,0.0042 -0.796178,1.065181 -1.139495,1.689768 -0.523369,0.952153 -0.733907,0.674607 -0.795933,-1.049254 -0.04666,-1.296805 0.09074,-1.927525 0.636683,-2.922663 0.256648,-0.467815 0.433561,-0.636025 0.66893,-0.636025 0.159812,0 0.188506,0.01978 0.188506,0.130018 0,0.07151 -0.08456,0.229129 -0.187911,0.350265 -0.198585,0.232757 -0.372512,0.534196 -0.372512,0.645614 0,0.03666 0.04025,0.09609 0.08945,0.132064 0.155141,0.11344 0.05038,0.67198 -0.172895,0.921787 -0.09933,0.111128 -0.209449,0.257137 -0.244721,0.324462 -0.09083,0.173378 -0.07952,0.713011 0.01993,0.951039 0.04623,0.110655 0.08406,0.265068 0.08406,0.343138 0,0.140729 0.001,0.141032 0.117894,0.03526 0.06484,-0.05868 0.18078,-0.214004 0.257645,-0.345165 0.07687,-0.131159 0.205252,-0.289992 0.285303,-0.35296 0.08005,-0.06297 0.287939,-0.279164 0.461976,-0.480436 0.239243,-0.276683 0.410878,-0.412326 0.703642,-0.556089 0.212966,-0.104578 0.440894,-0.190909 0.506508,-0.191848 0.07841,-10e-4 0.142775,-0.05839 0.187804,-0.167101 0.08289,-0.20012 0.239534,-0.309113 0.518738,-0.360943 0.247805,-0.046 0.435114,0.03621 0.435114,0.190988 0,0.103691 -0.06095,0.134037 -0.35963,0.179052 -0.15036,0.02266 -0.182282,0.156297 -0.03733,0.156297 0.06422,0 0.116756,0.0328 0.116756,0.07289 0,0.172846 0.142438,0.37772 0.252189,0.362732 0.191698,-0.02617 0.308049,-0.353146 0.308146,-0.865948 1.08e-4,-0.571465 0.04965,-0.634928 0.49446,-0.633353 0.175032,6.44e-4 0.482164,0.02474 0.682517,0.05361 0.509752,0.07344 0.583785,0.17281 0.543782,0.729859 -0.03394,0.472569 -0.205472,1.075841 -0.351915,1.237663 -0.0858,0.0948 -0.178557,0.107353 -0.793452,0.107353 h -0.696295 l 0.03801,-0.173062 c 0.03534,-0.160885 0.03,-0.168773 -0.07593,-0.112085 -0.06267,0.03354 -0.165734,0.06098 -0.229043,0.06098 -0.09073,0 -0.12261,0.04693 -0.150542,0.221593 -0.01948,0.121878 -0.07653,0.257206 -0.126758,0.300731 -0.146956,0.127349 -0.715481,0.280346 -0.902641,0.242914 -0.139638,-0.02793 -0.169422,-0.01567 -0.169422,0.06968 0,0.05696 -0.140239,0.372139 -0.31164,0.700399 -0.171404,0.32826 -0.410768,0.86404 -0.53192,1.190623 -0.259113,0.698472 -0.370832,0.892434 -0.669394,1.162166 -0.251079,0.226835 -0.425241,0.286567 -0.703761,0.24137 -0.106208,-0.01724 -0.193087,-0.014 -0.193066,0.0072 2.3e-5,0.02118 0.06548,0.278088 0.145461,0.57091 0.19378,0.709452 0.447869,1.239475 0.805989,1.68127 0.383134,0.472653 0.537883,0.719113 0.677672,1.0793 0.0627,0.161554 0.239527,0.561107 0.392946,0.887893 0.347706,0.740623 0.383965,0.998339 0.226119,1.607279 -0.206658,0.797256 -0.165071,0.992235 0.341465,1.6009 0.152706,0.183496 0.300802,0.394526 0.329101,0.468957 0.06669,0.175403 0.06668,0.632412 -6e-6,0.632412 -0.02831,0 -0.08505,0.01169 -0.126097,0.02598 -0.04105,0.0143 -0.152818,-0.0081 -0.248373,-0.0498 z m 2.762394,-12.832545 c 0.0059,-0.0044 0.02023,-0.209218 0.03188,-0.455054 0.01165,-0.245832 0.05329,-0.506418 0.09256,-0.579081 0.03926,-0.07266 0.05014,-0.151561 0.02416,-0.175333 -0.04247,-0.03887 -0.868478,-0.179245 -0.895111,-0.152116 -0.0061,0.0062 -0.02479,0.334191 -0.04162,0.728929 l -0.0306,0.717709 0.404015,-0.03848 c 0.222208,-0.02116 0.408835,-0.04212 0.414725,-0.04657 z m -0.0019,12.663556 c -0.471389,-0.106388 -0.519363,-0.170542 -0.429382,-0.57421 0.03994,-0.17919 0.0913,-0.540162 0.114135,-0.802161 0.02283,-0.261999 0.06714,-0.555848 0.09847,-0.653 0.03132,-0.09715 0.07391,-0.399779 0.09462,-0.672508 0.02071,-0.272727 0.07314,-0.609354 0.116498,-0.748058 0.04335,-0.138706 0.08562,-0.542211 0.09391,-0.896676 0.01459,-0.623622 0.0097,-0.65425 -0.151879,-0.945956 -0.174335,-0.314774 -0.586006,-0.679273 -0.767178,-0.679273 -0.153179,0 -0.194523,0.168733 -0.233444,0.95272 -0.05017,1.010618 -0.258228,1.728084 -0.613421,2.115304 -0.07947,0.08664 -0.136727,0.269815 -0.183924,0.588445 -0.06265,0.422956 -0.059,0.489082 0.04255,0.770875 0.20045,0.556237 0.223084,0.714792 0.128221,0.898237 -0.06498,0.125655 -0.125391,0.166567 -0.245962,0.166567 -0.231596,0 -0.317089,-0.126915 -0.244598,-0.363111 0.04322,-0.140824 0.04034,-0.224289 -0.01106,-0.320007 -0.309,-0.575493 -0.377157,-0.685552 -0.463772,-0.748886 -0.09268,-0.06777 -0.09076,-0.08237 0.0329,-0.249623 0.18605,-0.251647 0.244815,-0.493851 0.17278,-0.712123 -0.05648,-0.17113 -0.04703,-0.193513 0.168199,-0.398252 0.12565,-0.119524 0.228042,-0.269853 0.228042,-0.334799 0,-0.06483 0.06122,-0.314617 0.136046,-0.555089 0.07483,-0.240472 0.163988,-0.664192 0.198139,-0.941602 0.03415,-0.27741 0.07669,-0.618816 0.09452,-0.75868 0.0281,-0.220342 0.01228,-0.278239 -0.118421,-0.43357 -0.123349,-0.146594 -0.166172,-0.284116 -0.234929,-0.754463 -0.07296,-0.49909 -0.113165,-0.620199 -0.303889,-0.915354 -0.120892,-0.187089 -0.219805,-0.398354 -0.219805,-0.469479 0,-0.12157 0.01694,-0.127689 0.282833,-0.102143 0.208071,0.02 0.32503,0.06761 0.442478,0.180131 0.157503,0.150896 0.619705,1.112131 0.619705,1.288792 0,0.143927 0.162156,0.494087 0.293606,0.634009 0.06607,0.07033 0.238169,0.162925 0.382438,0.205768 0.394112,0.11704 0.581669,0.230015 0.794347,0.478483 l 0.19267,0.22509 -0.0241,0.883216 c -0.01756,0.643892 -0.05929,1.042667 -0.153948,1.47166 -0.108242,0.490522 -0.129158,0.742325 -0.125688,1.513142 0.0023,0.508586 -0.01462,1.006661 -0.03755,1.106839 l -0.04171,0.182136 h 0.429441 c 0.318493,0 0.423479,-0.01809 0.406369,-0.07005 -0.01269,-0.03853 -0.08229,-0.0787 -0.154677,-0.08926 -0.173505,-0.02532 -0.392016,-0.171296 -0.392016,-0.261887 0,-0.03963 0.0628,-0.206959 0.139557,-0.371841 0.07676,-0.164882 0.13996,-0.362834 0.140452,-0.439892 4.29e-4,-0.07706 0.04048,-0.215764 0.08886,-0.308233 0.04838,-0.09247 0.113529,-0.305819 0.144774,-0.474106 0.03125,-0.168288 0.117601,-0.425947 0.191901,-0.57257 0.0743,-0.146626 0.135093,-0.33173 0.135093,-0.411345 0,-0.07961 0.04248,-0.225461 0.09439,-0.324106 0.124324,-0.236221 0.393656,-1.412621 0.516239,-2.25486 0.04472,-0.307252 0.03977,-0.467993 -0.02244,-0.728549 -0.0439,-0.183873 -0.08072,-0.518407 -0.08181,-0.743406 -0.001,-0.23775 -0.0349,-0.472474 -0.08057,-0.560423 -0.09356,-0.180221 -0.787164,-0.858574 -0.985947,-0.964275 -0.0769,-0.04089 -0.332691,-0.221457 -0.56843,-0.401262 -0.550291,-0.419723 -0.657058,-0.631255 -0.250971,-0.497234 0.224364,0.07405 0.384484,0.01784 0.485191,-0.170341 0.04704,-0.08789 0.03275,-0.208856 -0.06263,-0.530122 -0.113026,-0.380735 -0.11741,-0.445279 -0.05137,-0.756461 l 0.0722,-0.34021 0.176519,0.17109 c 0.374114,0.362606 0.509857,0.195286 0.494922,-0.610066 -0.0094,-0.505848 0.0057,-0.62504 0.09797,-0.776843 0.139085,-0.228706 0.26171,-0.226257 0.520062,0.01038 l 0.207098,0.189696 v 0.675995 c 0,0.613433 -0.01296,0.700382 -0.140104,0.939496 -0.07706,0.144928 -0.140106,0.307107 -0.140106,0.360397 0,0.168875 -0.172876,0.522413 -0.379333,0.775759 -0.313092,0.384198 -0.287507,0.522224 0.164497,0.887427 0.367233,0.29671 0.813658,0.776483 0.928001,0.997324 0.03192,0.06165 0.08715,0.250789 0.122747,0.420316 0.03704,0.176422 0.152819,0.440045 0.270746,0.616467 0.179008,0.2678 0.214641,0.37807 0.271659,0.840635 0.06116,0.496133 0.04724,0.750752 -0.06738,1.23293 -0.01832,0.07706 -0.04714,0.215712 -0.06406,0.308117 -0.03803,0.207794 -0.245499,0.53712 -0.547297,0.868773 -0.436039,0.479175 -0.89168,1.404605 -1.035813,2.103785 -0.03787,0.183731 -0.103816,0.402157 -0.146532,0.48539 -0.106293,0.207107 -0.108464,0.203574 0.167786,0.273133 0.171726,0.04324 0.264311,0.103193 0.308233,0.199592 0.08995,0.197419 0.07899,0.265873 -0.06408,0.400281 -0.29663,0.278669 -0.91327,0.391722 -1.461605,0.267968 z m 8.649735,-3.594711 c -0.07706,-0.04276 -0.198054,-0.07812 -0.268878,-0.07857 -0.07082,-4.3e-4 -0.18431,-0.05945 -0.25219,-0.131098 -0.06788,-0.07165 -0.166233,-0.14601 -0.218564,-0.165245 -0.17296,-0.06358 -0.277687,-0.369839 -0.309648,-0.90554 -0.0361,-0.605067 0.03323,-0.835112 0.204868,-0.67978 0.07369,0.06669 0.107951,0.211307 0.132515,0.559383 0.01822,0.25819 0.06864,0.55443 0.112045,0.658312 0.09843,0.235568 0.427753,0.492322 0.685033,0.534073 0.217842,0.03535 0.266436,-0.05294 0.08313,-0.151046 -0.153035,-0.0819 -0.319968,-0.427152 -0.426249,-0.881571 -0.07154,-0.305865 -0.07987,-0.515374 -0.04294,-1.080009 0.0252,-0.385291 0.04646,-0.736305 0.04725,-0.780031 0.0015,-0.07745 -0.273689,-0.27248 -0.39588,-0.280677 -0.07047,-0.0047 -0.54535,0.577874 -0.751552,0.922046 -0.215817,0.360214 -0.240445,0.39069 -0.420319,0.520123 -0.289547,0.208353 -0.809958,0.354237 -1.457102,0.408465 -1.093034,0.09159 -1.257327,0.06169 -1.587566,-0.288903 -0.361902,-0.384215 -0.313037,-0.511631 0.175694,-0.458112 0.148165,0.01623 0.409753,-0.0042 0.581303,-0.04533 0.269568,-0.06467 0.385151,-0.06227 0.851452,0.01769 0.574432,0.09849 0.758115,0.08168 1.156007,-0.105795 0.269825,-0.127128 0.287399,-0.148975 0.32897,-0.40894 0.0259,-0.161999 0.110625,-0.273672 0.413038,-0.544429 0.209248,-0.187342 0.455746,-0.379193 0.547773,-0.42633 0.260463,-0.133412 0.61263,-0.174833 0.75607,-0.08892 0.108756,0.06514 0.131317,0.06056 0.187748,-0.03805 0.03528,-0.06165 0.226153,-0.26661 0.424173,-0.455471 0.33945,-0.323753 0.352679,-0.345723 0.23135,-0.38423 -0.162169,-0.05147 -0.960833,0.01959 -1.05128,0.09355 -0.100908,0.0825 -0.184593,0.0033 -0.184593,-0.174733 0,-0.08673 -0.04798,-0.268082 -0.106619,-0.402999 -0.06231,-0.143355 -0.122799,-0.458112 -0.145552,-0.757354 -0.03293,-0.433108 -0.02414,-0.534626 0.05702,-0.658496 0.106016,-0.161805 0.257646,-0.189663 0.360138,-0.06617 0.03664,0.04415 0.08821,0.226992 0.114597,0.406307 0.02639,0.179315 0.07799,0.461957 0.114689,0.628095 0.03669,0.166138 0.05366,0.399415 0.0377,0.518393 -0.02908,0.216797 -0.0087,0.250192 0.105807,0.173433 0.08504,-0.05701 0.129829,-0.267188 0.188037,-0.882439 0.02749,-0.290536 0.06468,-0.552028 0.08264,-0.581094 0.05318,-0.08605 0.357718,0.05869 0.391998,0.186312 0.05663,0.21082 0.02859,0.728749 -0.05164,0.954019 -0.08938,0.250954 -0.05116,0.307727 0.208106,0.30919 0.08361,4.3e-4 0.289216,0.05219 0.456909,0.114934 0.247956,0.09277 0.32331,0.152883 0.403505,0.321883 0.08799,0.185434 0.0925,0.280246 0.04181,0.880676 -0.03124,0.370077 -0.07586,0.717002 -0.09917,0.770942 -0.06868,0.158975 0.285692,0.127307 0.538885,-0.04816 0.182336,-0.126357 0.297075,-0.152653 0.844272,-0.193493 0.348292,-0.02599 0.986045,-0.05426 1.417228,-0.06281 0.688032,-0.01364 0.811402,-0.0019 1.008139,0.09542 0.166653,0.08249 0.228638,0.149665 0.241586,0.26181 0.01898,0.164352 -0.01604,0.180069 -0.717946,0.322206 -0.169529,0.03433 -0.421719,0.08839 -0.560425,0.120141 -0.138704,0.03175 -0.680913,0.06747 -1.204909,0.07939 -0.872757,0.01985 -1.50659,0.08677 -1.58741,0.167591 -0.05368,0.05368 0.09868,0.538608 0.216143,0.687943 0.06067,0.07713 0.110315,0.163397 0.110315,0.1917 0,0.0283 0.06305,0.14424 0.140106,0.257641 0.177771,0.261615 0.183253,0.488986 0.014,0.581126 -0.06935,0.03775 -0.291199,0.06905 -0.492992,0.06955 -0.490787,0.0012 -0.745922,-0.177938 -0.859649,-0.603618 -0.0422,-0.157966 -0.145271,-0.5394 -0.229039,-0.847634 -0.172465,-0.634597 -0.174681,-0.907228 -0.0071,-0.878284 0.153148,0.02646 0.257816,0.149328 0.257816,0.302649 0,0.07309 0.02266,0.156859 0.05035,0.186142 0.0277,0.02928 0.104371,0.25269 0.170396,0.496464 0.199785,0.737643 0.321698,0.971231 0.545443,1.045073 0.250993,0.08283 0.294161,0.03198 0.160353,-0.188931 -0.331803,-0.54778 -0.478205,-0.902191 -0.478205,-1.157644 0,-0.145806 -0.02807,-0.345618 -0.06238,-0.444029 -0.05051,-0.144906 -0.03967,-0.27443 0.05701,-0.681256 0.109144,-0.459235 0.112433,-0.78177 0.008,-0.78177 -0.0227,0 -0.196976,0.100631 -0.387273,0.223626 -0.224883,0.145349 -0.39943,0.312095 -0.49865,0.476361 -0.08396,0.139002 -0.193197,0.252731 -0.242747,0.252731 -0.152192,0 -0.186335,0.873435 -0.05596,1.431657 0.05726,0.24517 0.119967,0.535842 0.13935,0.645936 0.01938,0.110096 0.09799,0.285223 0.17468,0.389173 0.313675,0.425163 0.03171,0.778023 -0.420983,0.526831 z m -3.36254,-2.804526 c -0.801723,-0.428631 -1.077519,-0.603286 -1.188219,-0.752477 -0.0934,-0.125878 -0.09873,-0.176309 -0.04428,-0.419276 0.03404,-0.151904 0.06272,-0.642333 0.06372,-1.089844 0.0017,-0.772895 0.0101,-0.833305 0.167144,-1.20595 0.181849,-0.431518 0.174156,-0.417682 0.413185,-0.743203 0.164994,-0.224696 0.500266,-0.461707 0.653119,-0.461707 0.04259,0 0.171556,-0.06396 0.286592,-0.142127 0.160381,-0.10898 0.209157,-0.179851 0.209157,-0.303887 0,-0.135535 0.03217,-0.172378 0.198461,-0.227257 0.255721,-0.0844 0.338017,-0.04892 0.380614,0.164073 0.03077,0.153866 0.05632,0.172944 0.231566,0.172944 0.176192,0 0.218216,0.03199 0.39826,0.303154 0.123523,0.186038 0.19411,0.353832 0.18271,0.434328 -0.01703,0.12021 -0.04433,0.130701 -0.326805,0.125529 -0.327614,-0.006 -0.678604,-0.148405 -0.859912,-0.348889 -0.129552,-0.143252 -0.20153,-0.117669 -0.625839,0.222453 -0.259311,0.207861 -0.385757,0.365029 -0.549146,0.682567 -0.245678,0.477462 -0.373624,0.912792 -0.373522,1.27089 1.14e-4,0.406783 0.205037,1.308936 0.311884,1.373037 0.05138,0.03083 0.267089,0.188442 0.479356,0.350264 0.212266,0.161823 0.417082,0.293435 0.455147,0.292474 0.03806,-0.001 0.168591,-0.06281 0.290059,-0.137427 l 0.220856,-0.135677 -0.164812,-0.05969 c -0.461526,-0.167155 -0.809299,-0.413644 -0.809299,-0.573601 0,-0.0584 -0.0352,-0.174283 -0.07822,-0.257517 -0.07102,-0.137416 -0.08966,-0.37585 -0.101647,-1.300201 -0.0033,-0.255167 0.138119,-0.923657 0.212048,-1.002295 0.01114,-0.01186 0.09717,0.0103 0.191163,0.04924 0.166227,0.06885 0.170003,0.07863 0.138108,0.357806 -0.01803,0.157863 -0.0563,0.408053 -0.08504,0.555981 -0.07588,0.390614 -0.06435,0.776564 0.03645,1.219741 0.111014,0.488082 0.191024,0.576248 0.478836,0.527622 0.191251,-0.03231 0.236033,-0.01648 0.390754,0.138255 0.162124,0.162124 0.171948,0.193851 0.135978,0.439165 -0.02132,0.145429 -0.09377,0.365292 -0.161,0.488584 -0.115404,0.211655 -0.137829,0.224826 -0.401651,0.235887 -0.236706,0.0099 -0.352254,-0.02722 -0.755785,-0.242963 z m -2.335306,-1.548097 c 0.01699,-0.346762 0.04633,-0.743963 0.06523,-0.882667 0.01889,-0.138705 0.02742,-0.504381 0.01894,-0.812615 -0.01766,-0.641663 -0.0085,-0.980669 0.03927,-1.457101 0.04956,-0.493958 0.03966,-0.630093 -0.07981,-1.097201 -0.091,-0.355821 -0.09784,-0.461667 -0.0431,-0.666946 0.05119,-0.191951 0.05013,-0.248989 -0.005,-0.267372 -0.03853,-0.01286 -0.07005,-0.09617 -0.07005,-0.185146 0,-0.16072 -0.293201,-0.804417 -0.39509,-0.867389 -0.08823,-0.05452 -0.05988,-0.266926 0.06238,-0.467467 l 0.115214,-0.188982 -0.115423,-0.122864 c -0.06348,-0.06757 -0.115424,-0.174891 -0.115424,-0.238483 0,-0.06359 -0.03783,-0.147016 -0.08406,-0.185388 -0.04624,-0.03837 -0.08406,-0.139248 -0.08406,-0.224169 0,-0.08492 -0.03783,-0.185798 -0.08406,-0.22417 -0.04624,-0.03837 -0.08406,-0.101419 -0.08406,-0.140104 0,-0.03869 -0.03945,-0.103081 -0.08767,-0.143097 -0.05356,-0.04445 -0.07561,-0.1208 -0.05667,-0.196252 0.01855,-0.07395 -0.0096,-0.17679 -0.07014,-0.25635 -0.163482,-0.214747 -0.350687,-0.61224 -0.315306,-0.669489 0.01798,-0.02909 -0.01938,-0.119095 -0.08304,-0.200013 -0.06365,-0.08092 -0.115726,-0.202861 -0.115726,-0.270984 0,-0.150773 -0.131166,-0.27622 -0.411112,-0.39319 -0.199447,-0.08334 -0.218703,-0.08193 -0.355772,0.02588 -0.0797,0.06269 -0.202987,0.113988 -0.273969,0.113988 -0.07098,0 -0.367695,0.161793 -0.65936,0.359542 -0.439314,0.297855 -0.584087,0.366266 -0.843783,0.398712 -0.36597,0.04572 -0.704729,0.0034 -1.121921,-0.140117 -0.438993,-0.151036 -1.04164,-0.574985 -1.04164,-0.732769 0,-0.166257 0.745048,0.04932 1.096248,0.317189 0.283304,0.216088 0.576715,0.236649 0.791998,0.0555 0.09541,-0.08028 0.216334,-0.145973 0.268709,-0.145973 0.05238,0 0.108044,-0.049 0.123705,-0.108883 0.01648,-0.063 0.09628,-0.123778 0.189387,-0.144226 0.152218,-0.03343 0.444154,-0.311923 0.444154,-0.423699 0,-0.02846 0.05476,-0.05174 0.121683,-0.05174 0.06692,0 0.164094,-0.03838 0.215931,-0.08529 0.05184,-0.04691 0.233723,-0.114549 0.404189,-0.150305 0.298019,-0.06251 0.3246,-0.05801 0.691137,0.117078 0.209657,0.100147 0.454113,0.243443 0.543231,0.318431 0.08912,0.07499 0.194971,0.136345 0.235221,0.136345 0.09384,0 0.727557,0.651492 0.927513,0.953527 0.0842,0.127186 0.19497,0.399701 0.246155,0.60559 0.05118,0.205889 0.129138,0.50044 0.17323,0.654555 0.04409,0.154118 0.09621,0.456746 0.115813,0.672508 0.01961,0.215764 0.09365,0.657097 0.164547,0.980741 0.322222,1.470969 0.250447,6.376184 -0.101151,6.91279 -0.06379,0.09735 -0.147308,0.148545 -0.242345,0.148545 h -0.145026 z m -9.75837,-0.58315 c -0.03992,-0.01669 -0.133834,-0.157304 -0.2087,-0.312495 -0.127988,-0.265307 -0.132269,-0.304624 -0.07166,-0.658099 0.05462,-0.318525 0.05012,-0.42706 -0.02948,-0.71075 -0.05167,-0.184149 -0.09395,-0.454207 -0.09395,-0.600125 0,-0.145919 -0.03728,-0.337392 -0.08284,-0.425494 -0.04556,-0.0881 -0.08206,-0.294908 -0.08111,-0.459567 8.59e-4,-0.164658 -2.12e-4,-0.513741 -0.0026,-0.77574 -0.0043,-0.468498 0.02626,-0.647635 0.300959,-1.765333 0.270909,-1.102307 0.362991,-1.382962 0.575375,-1.753693 0.118444,-0.206753 0.275611,-0.495911 0.349263,-0.642573 0.07365,-0.146661 0.257149,-0.407491 0.407773,-0.579619 0.150627,-0.172128 0.333803,-0.430418 0.407061,-0.573976 0.135959,-0.26643 0.331114,-0.47395 0.605999,-0.644399 0.112213,-0.06958 0.154116,-0.140924 0.154116,-0.262397 0,-0.139288 0.02247,-0.166834 0.136102,-0.166834 0.171396,0 0.353085,0.164286 0.251277,0.227208 -0.04944,0.03055 -0.02257,0.08336 0.09393,0.184608 0.125499,0.109071 0.150235,0.162143 0.107133,0.229866 -0.513968,0.807525 -0.87583,1.338414 -1.048183,1.53779 -0.116967,0.135307 -0.237288,0.337447 -0.26738,0.4492 -0.05167,0.191873 -0.358022,0.729197 -0.450367,0.789909 -0.09307,0.06118 -0.39531,0.635535 -0.479868,0.911889 -0.04931,0.161163 -0.148687,0.482165 -0.220834,0.713338 -0.215675,0.691071 -0.262626,1.192209 -0.234094,2.49873 0.01443,0.660863 0.05087,1.232756 0.08097,1.270869 0.04791,0.06067 0.123614,0.74924 0.14625,1.330255 0.0067,0.171289 -0.01012,0.197516 -0.132465,0.206954 -0.07706,0.006 -0.172766,-0.0028 -0.212685,-0.01953 z m 15.820476,-2.204956 c -0.01904,-0.03083 -0.0805,-0.05604 -0.136552,-0.05604 -0.159121,0 -0.264337,-0.156537 -0.182086,-0.270899 0.129857,-0.180546 0.140246,-0.250023 0.04753,-0.317816 -0.130286,-0.09527 -0.116355,-0.34099 0.04655,-0.820985 0.07684,-0.226422 0.140331,-0.525162 0.141085,-0.663866 0.0015,-0.268946 0.146215,-1.230287 0.19217,-1.276244 0.06127,-0.06127 -0.09759,-0.243253 -0.304484,-0.3488 -0.287249,-0.146543 -0.930334,-0.154914 -1.223236,-0.01593 -0.270552,0.128385 -0.926894,0.805403 -1.004856,1.036506 -0.03417,0.101279 -0.09782,0.280486 -0.141449,0.398235 -0.06082,0.164134 -0.066,0.272359 -0.02219,0.463787 0.04068,0.17776 0.03927,0.267569 -0.0049,0.311741 -0.178834,0.178834 -0.405835,-0.211788 -0.405835,-0.698358 0,-0.251404 0.04664,-0.391554 0.284081,-0.85371 0.444094,-0.864376 0.538538,-0.983377 0.943536,-1.188874 0.345123,-0.175117 0.384619,-0.182138 1.024574,-0.182138 0.680737,0 0.955491,0.06133 1.178352,0.263013 0.11416,0.103314 0.136587,0.409171 0.03007,0.410115 -0.03853,4.3e-4 0.01,0.06369 0.107746,0.140772 0.261251,0.205933 0.37688,0.749833 0.327364,1.539878 l -0.03688,0.588445 0.136232,-0.196149 c 0.194813,-0.280492 0.22588,-0.419012 0.134483,-0.599653 -0.08725,-0.172452 -0.236365,-0.902398 -0.193166,-0.945597 0.05657,-0.05658 0.320904,0.08916 0.410933,0.226562 0.05169,0.07888 0.107299,0.261653 0.123587,0.406163 0.02406,0.213489 0.03807,0.239887 0.07472,0.140818 0.06898,-0.186479 -0.134783,-0.739585 -0.340246,-0.923573 -0.09466,-0.08476 -0.236856,-0.154118 -0.315996,-0.154118 -0.2012,0 -0.14397,-0.109619 0.110145,-0.210974 0.269298,-0.107411 0.553174,-0.03295 0.80206,0.210381 0.283158,0.276841 0.371275,0.526637 0.375407,1.064217 0.0035,0.45989 -0.0055,0.494831 -0.244009,0.945284 -0.20701,0.390932 -0.295067,0.498056 -0.536236,0.652328 -0.158703,0.101523 -0.412193,0.328371 -0.56331,0.504106 -0.151115,0.175736 -0.342858,0.355047 -0.426091,0.398466 -0.176868,0.09227 -0.359887,0.102511 -0.40909,0.0229 z M 36.980231,30.68227 c -0.163403,-0.03881 -0.400533,-0.24463 -0.405286,-0.35178 -0.003,-0.06698 0.323715,-0.0486 0.366493,0.02061 0.02444,0.03955 0.128994,0.05028 0.283519,0.02909 0.211909,-0.02905 0.244801,-0.0198 0.244801,0.06877 0,0.107263 -0.16799,0.291934 -0.256604,0.282089 -0.0284,-0.0031 -0.133211,-0.02511 -0.232923,-0.04879 z m 1.007918,-0.824063 c -0.106536,-0.04171 -0.08373,-0.212502 0.04378,-0.327897 0.102564,-0.09282 0.122382,-0.09446 0.200255,-0.01659 0.07788,0.07787 0.07354,0.100552 -0.04378,0.22917 -0.07161,0.07851 -0.161726,0.1304 -0.200256,0.115314 z m -1.210236,-0.120574 c -0.09115,-0.100726 -0.12494,-0.233766 -0.05936,-0.233766 0.08667,0 0.358912,0.200458 0.358912,0.264273 0,0.10682 -0.193061,0.08716 -0.299549,-0.03051 z m -1.98e-4,-0.612332 c -0.03337,-0.05399 0.158777,-0.293943 0.235369,-0.293943 0.112502,0 0.130068,0.120618 0.03316,0.2277 -0.100797,0.11138 -0.222135,0.141312 -0.26853,0.06624 z m -9.16974,-5.202326 C 27.33826,23.805988 27.21401,23.681002 27.21401,23.526672 c 0,-0.07228 0.01385,-0.131419 0.0308,-0.131419 0.07171,0 0.394368,0.191975 0.449791,0.267619 0.06094,0.08318 0.343517,0.07614 0.626241,-0.01561 0.158212,-0.05134 0.161663,0.02391 0.0099,0.216785 -0.136094,0.173018 -0.408558,0.195229 -0.722816,0.05892 z m -1.879088,-0.103407 c -0.111543,-0.08764 -0.111549,-0.08847 -0.0015,-0.173515 0.09526,-0.07354 0.100645,-0.101536 0.03864,-0.200815 -0.05967,-0.09555 -0.05773,-0.13721 0.01133,-0.242607 0.04586,-0.06998 0.10111,-0.225505 0.122782,-0.345599 0.02168,-0.120094 0.06547,-0.251141 0.09734,-0.291218 0.04109,-0.05167 0.03446,-0.09634 -0.02278,-0.153576 -0.07025,-0.07025 -0.1132,-0.06367 -0.33144,0.05084 -0.137901,0.07235 -0.364216,0.14646 -0.50292,0.16468 -0.138705,0.01822 -0.473517,0.122397 -0.744026,0.231506 l -0.491836,0.198379 -0.207863,-0.111408 c -0.114324,-0.06128 -0.241249,-0.11141 -0.282055,-0.11141 -0.0408,0 -0.05831,-0.0257 -0.0389,-0.05711 0.05266,-0.08519 0.567995,-0.335188 0.690962,-0.335188 0.202332,0 0.553384,-0.157778 0.849177,-0.381654 0.163024,-0.12339 0.34959,-0.249648 0.414589,-0.280573 0.065,-0.03093 0.241726,-0.113007 0.392725,-0.182401 0.375349,-0.172495 0.603015,-0.385313 0.755387,-0.706122 0.215806,-0.454369 0.929163,-0.923067 1.548016,-1.017095 0.523709,-0.07957 1.029867,-0.0027 1.326455,0.201295 0.311688,0.214448 0.36763,0.2823 0.552505,0.670139 l 0.149189,0.312971 0.751258,-0.01072 c 0.831841,-0.01187 1.126198,0.06727 1.161046,0.31215 0.02356,0.165535 -0.165265,0.197275 -1.040367,0.17488 l -0.686625,-0.01758 9.5e-5,0.336254 c 9.1e-5,0.360465 -0.132428,1.145769 -0.221419,1.312049 -0.07976,0.149035 -0.327746,0.294629 -0.467738,0.274611 -0.16895,-0.02416 -0.185942,-0.195387 -0.03911,-0.393992 0.164435,-0.222413 0.321673,-1.006058 0.236666,-1.179516 -0.03375,-0.06888 -0.07112,-0.263941 -0.08303,-0.433469 -0.02465,-0.350884 -0.267345,-0.937918 -0.464225,-1.122878 -0.177651,-0.166894 -0.539305,-0.198969 -0.977545,-0.0867 -0.551319,0.141242 -0.664381,0.281559 -0.267235,0.331656 0.130998,0.01652 0.31765,0.04678 0.414779,0.06723 0.147828,0.03113 0.182684,0.01803 0.213937,-0.08044 0.08273,-0.260648 0.404112,-0.0138 0.34791,0.26722 -0.02841,0.142028 -0.01824,0.15993 0.07675,0.13509 0.0696,-0.0182 0.108851,-7.3e-4 0.107718,0.04796 -0.0028,0.120255 -0.14103,0.272737 -0.247245,0.272737 -0.167257,0 -0.05701,0.139876 0.114076,0.144729 0.268296,0.0076 0.303077,0.0197 0.303077,0.105291 0,0.0971 -0.354494,0.211192 -0.952718,0.306633 -0.231175,0.03688 -0.520521,0.09335 -0.642989,0.125479 -0.122471,0.03213 -0.385304,0.08145 -0.584074,0.109596 -0.43078,0.06101 -0.533169,0.125536 -0.448933,0.282934 0.04139,0.07734 0.04104,0.161589 -0.0012,0.282689 -0.03308,0.09489 -0.06014,0.23269 -0.06014,0.306233 0,0.07354 -0.035,0.18957 -0.07777,0.257839 -0.04277,0.06827 -0.09388,0.21616 -0.113567,0.32865 -0.0197,0.11249 -0.07071,0.233501 -0.113376,0.268914 -0.135031,0.112067 -0.441597,0.13106 -0.563941,0.03494 z m 2.798468,-2.440454 c 0.07907,-0.03006 0.143757,-0.0805 0.143757,-0.112085 0,-0.08826 -0.08621,-0.06864 -0.231972,0.05279 -0.148257,0.12351 -0.123844,0.139919 0.08822,0.05929 z m -0.444376,1.792476 c -0.01887,-0.03055 -0.0024,-0.192769 0.03658,-0.360502 0.06943,-0.298634 0.07444,-0.304296 0.241173,-0.272668 0.228621,0.04336 0.226943,0.03979 0.141011,0.300167 -0.0951,0.288145 -0.330699,0.475496 -0.418764,0.333003 z m -0.81745,-0.72277 c -0.134429,-0.110161 -0.134628,-0.111837 -0.0235,-0.19702 0.247875,-0.190001 0.583472,-0.0486 0.437524,0.184339 -0.0836,0.133441 -0.260067,0.138846 -0.414025,0.01269 z m 1.475635,-0.242814 c -0.146642,-0.07072 -0.170891,-0.294718 -0.03745,-0.345923 0.203045,-0.07792 0.357046,-0.03605 0.392904,0.106817 0.03665,0.146024 -0.05333,0.310485 -0.16617,0.303711 -0.03475,-0.0021 -0.119932,-0.03116 -0.189285,-0.06461 z"
         id="path1" /></g><path
       style="fill:#000000;stroke-width:0.493308"
       d="m -47.3635,74.190744 c -0.222546,-0.09707 -0.604318,-0.428153 -0.848387,-0.735736 -0.930232,-1.172304 -1.373392,-1.55816 -1.789557,-1.55816 -0.521269,0 -0.851337,-0.333551 -0.763479,-0.771545 0.238427,-1.188602 0.466947,-1.976076 0.676282,-2.330454 0.218033,-0.369104 0.226009,-0.502292 0.08538,-1.42614 -0.08531,-0.560458 -0.154721,-1.31562 -0.154248,-1.678143 4.74e-4,-0.362523 -0.05389,-0.714932 -0.120811,-0.783127 -0.06692,-0.0682 -0.289321,-0.630578 -0.494231,-1.249734 -0.476738,-1.440545 -0.992232,-2.070851 -1.696859,-2.074797 -0.895325,-0.005 -3.21916,0.415173 -4.109469,0.743061 -2.379593,0.876372 -4.804674,1.027138 -6.926893,0.430648 l -1.145391,-0.321933 -1.203989,0.424625 c -1.400805,0.494039 -1.887079,0.525473 -2.361084,0.152625 -0.274892,-0.216232 -0.343906,-0.381544 -0.343906,-0.823781 0,-1.022796 0.645564,-1.42468 2.766042,-1.721938 0.811744,-0.113797 1.887044,-0.297648 2.389548,-0.408558 1.44127,-0.318116 4.835229,-0.380721 5.950087,-0.109752 1.037103,0.252066 1.343482,0.267137 2.79484,0.13747 0.827398,-0.07392 1.166103,-0.048 1.631515,0.124807 1.125134,0.417788 1.142607,0.410877 0.562881,-0.2226 -0.694288,-0.758655 -1.083139,-1.530451 -1.592465,-3.160748 -0.439346,-1.406275 -0.522636,-2.421716 -0.219286,-2.673476 0.102776,-0.08529 0.587334,-0.211624 1.0768,-0.280732 1.095411,-0.154663 1.345997,-0.37821 1.871524,-1.669584 0.212798,-0.522902 0.504823,-1.116328 0.648938,-1.318723 0.14412,-0.202394 0.26203,-0.538136 0.26203,-0.746084 0,-0.223065 0.224283,-0.723221 0.546986,-1.219805 0.300839,-0.462941 0.658316,-1.13538 0.794395,-1.494317 0.353505,-0.932451 1.024504,-1.507373 1.898069,-1.626285 0.481292,-0.06552 0.794597,-0.194833 1.021288,-0.421518 0.402806,-0.402806 0.541968,-1.23341 0.267999,-1.599558 -0.170615,-0.228022 -0.242782,-0.237967 -0.71032,-0.09789 -0.286223,0.08576 -0.735657,0.15592 -0.998738,0.15592 -0.402678,0 -0.57835,0.103224 -1.110665,0.652607 -0.347777,0.358932 -0.713058,0.656767 -0.811734,0.661858 -0.187902,0.0097 -1.854279,2.480781 -2.653858,3.935429 -1.218912,2.217542 -1.709251,1.571144 -1.853707,-2.443688 -0.10867,-3.020228 0.211324,-4.489159 1.482818,-6.806812 0.597727,-1.089531 1.009753,-1.481288 1.557923,-1.481288 0.372197,0 0.439025,0.04608 0.439025,0.302809 0,0.166546 -0.196939,0.533636 -0.437639,0.815759 -0.462501,0.542087 -0.867572,1.24413 -0.867572,1.50362 0,0.08538 0.09374,0.22379 0.208324,0.307573 0.36132,0.264201 0.117329,1.565027 -0.402668,2.14682 -0.231327,0.258815 -0.487803,0.598867 -0.569949,0.755665 -0.211541,0.403794 -0.185203,1.660586 0.04642,2.214947 0.107679,0.257714 0.195784,0.617336 0.195784,0.79916 0,0.327754 0.0024,0.32846 0.274571,0.08211 0.151011,-0.136666 0.421034,-0.498409 0.600051,-0.803881 0.179016,-0.305466 0.478026,-0.675384 0.664462,-0.822035 0.186436,-0.14665 0.670604,-0.650166 1.075931,-1.118923 0.557192,-0.644389 0.956925,-0.960299 1.638767,-1.295118 0.495992,-0.243561 1.026831,-0.444624 1.179644,-0.446809 0.182622,-0.0024 0.33252,-0.135986 0.437392,-0.389176 0.193057,-0.466073 0.557868,-0.719915 1.208128,-0.840628 0.577131,-0.107141 1.013369,0.08434 1.013369,0.444807 0,0.241494 -0.141949,0.31217 -0.837569,0.417008 -0.350185,0.05277 -0.424531,0.364013 -0.08695,0.364013 0.149556,0 0.271922,0.07639 0.271922,0.169763 0,0.402554 0.331734,0.879702 0.587343,0.844795 0.446459,-0.06096 0.717438,-0.822469 0.717665,-2.016774 2.51e-4,-1.330927 0.115641,-1.478732 1.151585,-1.475062 0.407645,0.0015 1.122948,0.05763 1.589564,0.124851 1.187202,0.171045 1.359623,0.402471 1.266456,1.699824 -0.07904,1.100602 -0.478538,2.505609 -0.819602,2.882487 -0.19982,0.22079 -0.415855,0.250023 -1.84793,0.250023 h -1.621654 l 0.08853,-0.403058 c 0.0823,-0.374697 0.06986,-0.393068 -0.176832,-0.261043 -0.145945,0.07811 -0.385989,0.142013 -0.533434,0.142013 -0.211314,0 -0.285557,0.109288 -0.350609,0.516085 -0.04538,0.28385 -0.178233,0.599025 -0.295216,0.700395 -0.342258,0.296592 -1.666338,0.652918 -2.10223,0.565741 -0.325214,-0.06504 -0.394579,-0.0365 -0.394579,0.162279 0,0.13266 -0.326614,0.866704 -0.725804,1.631214 -0.399196,0.76451 -0.956669,2.012329 -1.238827,2.772932 -0.603469,1.626725 -0.86366,2.078458 -1.559003,2.706657 -0.584758,0.528294 -0.990377,0.667408 -1.639043,0.562145 -0.247355,-0.04016 -0.449696,-0.03261 -0.449647,0.01672 5.5e-5,0.04933 0.152502,0.64766 0.338775,1.329634 0.451309,1.652298 1.043077,2.886709 1.877129,3.915638 0.892312,1.100799 1.252718,1.674798 1.578282,2.513665 0.146029,0.376256 0.557853,1.306804 0.915162,2.067881 0.8098,1.724893 0.894245,2.325107 0.526626,3.743315 -0.481301,1.856789 -0.384445,2.31089 0.795264,3.728457 0.35565,0.427357 0.700562,0.918842 0.766468,1.09219 0.155313,0.408509 0.155303,1.472872 -1.4e-5,1.472872 -0.06592,0 -0.198069,0.02723 -0.293677,0.06051 -0.0956,0.0333 -0.355908,-0.01895 -0.578454,-0.115992 z m 6.43355,-29.886689 c 0.01372,-0.01036 0.04711,-0.487266 0.07424,-1.05981 0.02713,-0.572539 0.124117,-1.179437 0.215561,-1.348667 0.09144,-0.169224 0.116772,-0.352982 0.05628,-0.408346 -0.09891,-0.09053 -2.022664,-0.417457 -2.084692,-0.354275 -0.01411,0.01436 -0.05774,0.778323 -0.09694,1.697659 l -0.07127,1.671526 0.940942,-0.08963 c 0.517516,-0.04928 0.952165,-0.0981 0.965884,-0.108454 z m -0.0044,29.493117 c -1.097854,-0.247774 -1.209584,-0.397188 -1.000021,-1.33732 0.09303,-0.41733 0.212646,-1.258026 0.265819,-1.868215 0.05317,-0.610188 0.156369,-1.294555 0.229325,-1.520821 0.07295,-0.226261 0.172125,-0.931076 0.220375,-1.566255 0.04824,-0.635175 0.170345,-1.41917 0.271321,-1.742209 0.10097,-0.323043 0.199394,-1.262796 0.218723,-2.088338 0.03399,-1.4524 0.02254,-1.523732 -0.353723,-2.203107 -0.406022,-0.733101 -1.364793,-1.582012 -1.786739,-1.582012 -0.356751,0 -0.45304,0.392975 -0.543686,2.218863 -0.116844,2.353705 -0.601407,4.024665 -1.428641,4.926492 -0.185094,0.201788 -0.318436,0.628392 -0.428355,1.370475 -0.145911,0.985054 -0.137406,1.13906 0.0991,1.795348 0.466843,1.295463 0.519557,1.664735 0.298624,2.091974 -0.151337,0.292646 -0.292034,0.387929 -0.57284,0.387929 -0.539383,0 -0.738493,-0.295581 -0.569663,-0.845675 0.10066,-0.327976 0.09394,-0.522364 -0.02575,-0.74529 -0.719653,-1.34031 -0.87839,-1.596633 -1.080114,-1.744138 -0.215847,-0.157834 -0.211368,-0.191833 0.07663,-0.581364 0.433307,-0.58608 0.57017,-1.150168 0.402401,-1.658519 -0.131535,-0.398558 -0.109519,-0.450686 0.391731,-0.927518 0.292636,-0.278369 0.531106,-0.628481 0.531106,-0.779739 0,-0.150982 0.142582,-0.732736 0.316848,-1.292789 0.174266,-0.560054 0.381924,-1.546888 0.461461,-2.192969 0.07954,-0.646082 0.178602,-1.441207 0.220134,-1.766948 0.06544,-0.51317 0.02861,-0.648011 -0.2758,-1.009774 -0.287277,-0.341414 -0.38701,-0.6617 -0.547143,-1.757126 -0.16992,-1.162369 -0.26356,-1.444428 -0.70775,-2.131839 -0.281556,-0.435724 -0.511921,-0.927756 -0.511921,-1.093404 0,-0.283135 0.03946,-0.297386 0.65871,-0.237888 0.484592,0.04657 0.756987,0.157454 1.030522,0.419519 0.366819,0.351434 1.443278,2.590128 1.443278,3.001567 0,0.335203 0.377658,1.150717 0.6838,1.476591 0.153883,0.163794 0.554691,0.379448 0.890689,0.47923 0.917879,0.272583 1.354695,0.535699 1.850016,1.114375 l 0.448723,0.524229 -0.05613,2.056989 c -0.0409,1.499609 -0.138073,2.428347 -0.358542,3.42746 -0.252091,1.142414 -0.300805,1.728859 -0.292724,3.524073 0.0053,1.184484 -0.03404,2.344489 -0.08744,2.5778 l -0.09715,0.424191 h 1.000158 c 0.741764,0 0.986272,-0.04213 0.946423,-0.163152 -0.02955,-0.08973 -0.19166,-0.183279 -0.360239,-0.20788 -0.404089,-0.05897 -0.912996,-0.398944 -0.912996,-0.609927 0,-0.0923 0.146261,-0.482003 0.325026,-0.866009 0.178766,-0.384006 0.325964,-0.845033 0.327109,-1.024499 10e-4,-0.179465 0.09427,-0.502508 0.206948,-0.717867 0.112677,-0.215359 0.264408,-0.712244 0.337176,-1.104182 0.07277,-0.391939 0.27389,-0.99202 0.446933,-1.333502 0.173048,-0.341488 0.314627,-0.772591 0.314627,-0.958011 0,-0.18542 0.09893,-0.525093 0.219843,-0.754837 0.289548,-0.550152 0.916815,-3.289959 1.202307,-5.251513 0.104147,-0.715583 0.09262,-1.089945 -0.05226,-1.696774 -0.102238,-0.428237 -0.187985,-1.207358 -0.19054,-1.731376 -0.0024,-0.553714 -0.08129,-1.100379 -0.187635,-1.305211 -0.217909,-0.419731 -1.833288,-1.999597 -2.296249,-2.245773 -0.179095,-0.09523 -0.774829,-0.515769 -1.323858,-0.934529 -1.281616,-0.977526 -1.530273,-1.470178 -0.584507,-1.158047 0.522538,0.172456 0.895455,0.04154 1.129998,-0.396719 0.10955,-0.204693 0.07627,-0.486422 -0.145856,-1.234643 -0.263235,-0.886723 -0.273446,-1.037043 -0.119647,-1.761778 l 0.168149,-0.792343 0.411108,0.398465 c 0.871302,0.844501 1.187444,0.454816 1.15266,-1.420828 -0.02186,-1.178109 0.01317,-1.455704 0.228166,-1.809249 0.323926,-0.53265 0.609517,-0.526947 1.211211,0.02417 l 0.482327,0.441798 v 1.574375 c 0,1.428671 -0.03019,1.631174 -0.326298,2.188065 -0.179471,0.337533 -0.326304,0.715244 -0.326304,0.839356 0,0.393305 -0.402624,1.216686 -0.883457,1.806723 -0.729184,0.894788 -0.669598,1.216247 0.383108,2.066796 0.855279,0.691031 1.894991,1.80841 2.161294,2.322744 0.07434,0.143573 0.202977,0.584083 0.285873,0.978907 0.08626,0.410882 0.355912,1.024854 0.630562,1.435735 0.416905,0.623701 0.499894,0.880517 0.632688,1.95782 0.142433,1.155482 0.110023,1.748483 -0.156917,2.871465 -0.04267,0.179466 -0.109795,0.502387 -0.149186,0.717597 -0.08858,0.483946 -0.57176,1.250938 -1.274641,2.023351 -1.015525,1.115987 -2.076701,3.271291 -2.412383,4.899664 -0.08821,0.427907 -0.241786,0.936616 -0.341271,1.130462 -0.247553,0.482347 -0.252609,0.474119 0.39077,0.636121 0.399945,0.100709 0.615575,0.240335 0.717868,0.464845 0.209488,0.459784 0.183964,0.619211 -0.149242,0.932245 -0.690843,0.649012 -2.126984,0.912311 -3.404042,0.62409 z m 20.145027,-8.371996 c -0.179466,-0.09958 -0.461264,-0.181927 -0.626211,-0.182983 -0.164948,-0.001 -0.429253,-0.138457 -0.587344,-0.305324 -0.15809,-0.166872 -0.387154,-0.340052 -0.50903,-0.38485 -0.402821,-0.148066 -0.646728,-0.861346 -0.721163,-2.108983 -0.08407,-1.409186 0.0774,-1.944954 0.477133,-1.583191 0.171626,0.155319 0.251415,0.49213 0.308623,1.30279 0.04243,0.601318 0.159867,1.291254 0.260951,1.533193 0.229236,0.548633 0.996227,1.146607 1.595424,1.243843 0.507349,0.08233 0.620523,-0.123302 0.193604,-0.351783 -0.356415,-0.190748 -0.745197,-0.994826 -0.992724,-2.053156 -0.16661,-0.712353 -0.186012,-1.200294 -0.1,-2.515317 0.05869,-0.897333 0.108212,-1.714835 0.110047,-1.816673 0.0034,-0.180369 -0.637415,-0.634598 -0.921994,-0.653689 -0.164134,-0.011 -1.270108,1.345855 -1.750348,2.147423 -0.502633,0.83893 -0.55999,0.909908 -0.978913,1.211354 -0.674348,0.485248 -1.886373,0.825009 -3.393554,0.951306 -2.545651,0.213312 -2.928285,0.143681 -3.697403,-0.672849 -0.842862,-0.894827 -0.729056,-1.191577 0.409185,-1.066932 0.345074,0.03779 0.954305,-0.0097 1.353841,-0.105564 0.627819,-0.150612 0.897008,-0.145023 1.983012,0.04119 1.337839,0.229374 1.765631,0.190225 2.692312,-0.246393 0.628416,-0.296079 0.669346,-0.346959 0.766163,-0.952412 0.06033,-0.377292 0.257645,-0.637374 0.961956,-1.267961 0.487335,-0.436316 1.061423,-0.883131 1.275751,-0.992912 0.606612,-0.310715 1.426801,-0.407182 1.76087,-0.207106 0.253289,0.151703 0.305832,0.141052 0.437259,-0.08862 0.08216,-0.143572 0.526706,-0.620927 0.98789,-1.060781 0.790569,-0.754013 0.821381,-0.805179 0.538807,-0.894862 -0.377687,-0.119874 -2.237757,0.04563 -2.448405,0.217879 -0.235012,0.192149 -0.429913,0.0076 -0.429913,-0.40695 0,-0.201994 -0.11174,-0.624356 -0.248312,-0.938574 -0.145112,-0.333871 -0.285996,-1.066932 -0.338987,-1.76386 -0.0767,-1.008697 -0.05623,-1.24513 0.132799,-1.533622 0.24691,-0.376839 0.600051,-0.441719 0.838753,-0.154105 0.08534,0.10283 0.205443,0.528659 0.266894,0.946279 0.06145,0.417621 0.181647,1.075887 0.267107,1.462818 0.08546,0.386932 0.124975,0.930228 0.08781,1.207324 -0.06773,0.504917 -0.02028,0.582692 0.246422,0.403922 0.198058,-0.132765 0.302368,-0.622275 0.437935,-2.055179 0.06402,-0.676651 0.150626,-1.285661 0.192464,-1.353353 0.123865,-0.200416 0.833115,0.136681 0.912952,0.433915 0.131888,0.490995 0.06659,1.697238 -0.120264,2.221887 -0.208157,0.584467 -0.119164,0.716689 0.484673,0.720097 0.194723,10e-4 0.673578,0.121557 1.064131,0.267679 0.577482,0.216065 0.752981,0.356061 0.939753,0.749657 0.204935,0.431872 0.215422,0.652687 0.09738,2.051074 -0.07276,0.861899 -0.176683,1.66988 -0.230957,1.795505 -0.15995,0.370249 0.66537,0.296494 1.255051,-0.112158 0.424656,-0.294283 0.691881,-0.355527 1.966289,-0.450642 0.811163,-0.06054 2.296476,-0.126366 3.30069,-0.146276 1.6024104,-0.03177 1.8897374,-0.0044 2.3479324,0.222236 0.388131,0.192123 0.532492,0.348566 0.562649,0.609749 0.0442,0.382773 -0.03735,0.419377 -1.67208,0.750411 -0.39483,0.07996 -0.9821734,0.205867 -1.3052164,0.279805 -0.323039,0.07394 -1.58583,0.157143 -2.806206,0.184907 -2.03263,0.04622 -3.508811,0.202084 -3.697039,0.390315 -0.125023,0.12502 0.229814,1.254405 0.503393,1.602203 0.141303,0.179638 0.256919,0.380548 0.256919,0.446464 0,0.06591 0.146834,0.335933 0.326305,0.600041 0.414023,0.609295 0.426791,1.138837 0.03261,1.353427 -0.161519,0.08793 -0.678196,0.160824 -1.148166,0.161983 -1.143031,0.0029 -1.737236,-0.414414 -2.002103,-1.405811 -0.09829,-0.3679 -0.338333,-1.256251 -0.533427,-1.974119 -0.401666,-1.477962 -0.406826,-2.112914 -0.01663,-2.045504 0.356677,0.06162 0.600447,0.347783 0.600447,0.704864 0,0.170236 0.05277,0.36532 0.117269,0.43352 0.0645,0.0682 0.243078,0.588508 0.396848,1.156251 0.465294,1.717953 0.749227,2.261974 1.270324,2.433951 0.584556,0.192919 0.685093,0.07447 0.373459,-0.440016 -0.772763,-1.275766 -1.113728,-2.10118 -1.113728,-2.696125 0,-0.339579 -0.06537,-0.804937 -0.14527,-1.034133 -0.117649,-0.337482 -0.0924,-0.639141 0.132784,-1.586629 0.254192,-1.069547 0.261854,-1.820723 0.01855,-1.820723 -0.05287,0 -0.458752,0.234366 -0.901951,0.52082 -0.523747,0.338513 -0.930263,0.726861 -1.161343,1.109432 -0.195543,0.323734 -0.449952,0.588606 -0.565352,0.588606 -0.354452,0 -0.433969,2.034208 -0.130337,3.334293 0.133356,0.570995 0.2794,1.247963 0.324543,1.50437 0.04514,0.256412 0.228214,0.664279 0.406826,0.906376 0.730541,0.990194 0.07385,1.811997 -0.98046,1.226977 z m -7.831276,-6.531674 c -1.867194,-0.99827 -2.509517,-1.405037 -2.767334,-1.752499 -0.217529,-0.293169 -0.229936,-0.41062 -0.103122,-0.976485 0.07928,-0.353781 0.146069,-1.495978 0.148407,-2.538221 0.0039,-1.800054 0.02353,-1.940746 0.389275,-2.808629 0.423521,-1.004993 0.405604,-0.97277 0.962297,-1.730902 0.384268,-0.523311 1.165107,-1.075304 1.521098,-1.075304 0.09919,0 0.399551,-0.148955 0.667467,-0.33101 0.373523,-0.253812 0.487122,-0.418869 0.487122,-0.707746 0,-0.315657 0.07493,-0.401464 0.462211,-0.529275 0.595567,-0.196559 0.787232,-0.11394 0.886441,0.382122 0.07167,0.358349 0.131161,0.402782 0.53931,0.402782 0.410349,0 0.508221,0.0745 0.927539,0.706038 0.287683,0.433278 0.452078,0.824067 0.425528,1.011539 -0.03966,0.279968 -0.10325,0.304401 -0.761121,0.292354 -0.763005,-0.01396 -1.580453,-0.345631 -2.002715,-0.812553 -0.301723,-0.33363 -0.469359,-0.274048 -1.457565,0.518087 -0.603928,0.484104 -0.898419,0.850144 -1.278947,1.589683 -0.572179,1.111997 -0.870162,2.12587 -0.869925,2.959872 2.67e-4,0.947389 0.477527,3.04848 0.726372,3.19777 0.119663,0.07179 0.622043,0.438878 1.116408,0.815756 0.494363,0.376883 0.971374,0.683405 1.060026,0.681165 0.08865,-0.0024 0.392644,-0.146271 0.675542,-0.320064 l 0.514368,-0.315988 -0.383844,-0.13902 c -1.074884,-0.3893 -1.884838,-0.963367 -1.884838,-1.335905 0,-0.136014 -0.08197,-0.405899 -0.182165,-0.59975 -0.165411,-0.320038 -0.208822,-0.875346 -0.236733,-3.028136 -0.0077,-0.594279 0.321676,-2.151176 0.493855,-2.334322 0.02595,-0.02762 0.226301,0.02398 0.445212,0.11467 0.387139,0.160355 0.395935,0.183131 0.321652,0.833322 -0.04198,0.367658 -0.131121,0.950344 -0.198049,1.294866 -0.176727,0.90973 -0.149867,1.808598 0.08489,2.840748 0.258548,1.136731 0.44489,1.342066 1.115198,1.228817 0.445418,-0.07525 0.549714,-0.03838 0.910056,0.321993 0.377584,0.377583 0.400463,0.451476 0.31669,1.022806 -0.04966,0.338701 -0.218393,0.850755 -0.374964,1.1379 -0.268775,0.49294 -0.321001,0.523613 -0.935437,0.549374 -0.551282,0.02314 -0.820392,-0.0634 -1.760205,-0.565855 z m -5.438872,-3.60548 c 0.03957,-0.807601 0.107906,-1.732673 0.151919,-2.055711 0.044,-0.323039 0.06385,-1.174691 0.0441,-1.892559 -0.04114,-1.49442 -0.01988,-2.283955 0.09145,-3.393555 0.115424,-1.150416 0.09236,-1.46747 -0.185874,-2.555354 -0.211945,-0.828699 -0.227874,-1.075211 -0.100374,-1.553301 0.119223,-0.44705 0.116747,-0.579889 -0.01159,-0.622704 -0.08974,-0.02994 -0.163152,-0.223971 -0.163152,-0.431201 0,-0.374312 -0.682858,-1.873468 -0.920154,-2.020128 -0.205473,-0.126988 -0.139458,-0.621663 0.145289,-1.088718 l 0.26833,-0.440135 -0.268818,-0.286148 c -0.14785,-0.157375 -0.268819,-0.407316 -0.268819,-0.555422 0,-0.148101 -0.0881,-0.342396 -0.19578,-0.431763 -0.107684,-0.08937 -0.195783,-0.324306 -0.195783,-0.522084 0,-0.197782 -0.0881,-0.43272 -0.19578,-0.522088 -0.107685,-0.08936 -0.195785,-0.236201 -0.195785,-0.326299 0,-0.0901 -0.09188,-0.240073 -0.20417,-0.333269 -0.124743,-0.103526 -0.176092,-0.281339 -0.131985,-0.457066 0.04321,-0.172238 -0.0223,-0.41174 -0.163364,-0.597032 -0.380746,-0.500141 -0.816742,-1.425894 -0.734339,-1.559225 0.04188,-0.06775 -0.04514,-0.277368 -0.193392,-0.465826 -0.148239,-0.188454 -0.269524,-0.472457 -0.269524,-0.631115 0,-0.351147 -0.305482,-0.643309 -0.957468,-0.915729 -0.464509,-0.194087 -0.509356,-0.190822 -0.828586,0.06028 -0.185618,0.14601 -0.472752,0.265475 -0.638066,0.265475 -0.165317,0 -0.856354,0.376813 -1.535635,0.837366 -1.023152,0.693696 -1.360323,0.853025 -1.965149,0.92859 -0.852335,0.106491 -1.641298,0.0079 -2.612929,-0.326329 -1.022402,-0.351758 -2.425954,-1.339126 -2.425954,-1.706601 0,-0.387208 1.735199,0.114857 2.553135,0.738725 0.65981,0.503263 1.343156,0.551149 1.844545,0.129256 0.222216,-0.186978 0.503836,-0.339968 0.625816,-0.339968 0.121985,0 0.251632,-0.114112 0.288107,-0.253586 0.03838,-0.14672 0.224244,-0.288275 0.441078,-0.335898 0.354511,-0.07786 1.034423,-0.726462 1.034423,-0.986786 0,-0.06628 0.12753,-0.120505 0.283397,-0.120505 0.155866,0 0.382171,-0.08939 0.502898,-0.198651 0.120728,-0.109253 0.544337,-0.266781 0.941347,-0.350056 0.69408,-0.145581 0.755985,-0.135098 1.609641,0.272671 0.488288,0.233241 1.05762,0.566975 1.265174,0.74162 0.20756,0.174652 0.454081,0.317543 0.547824,0.317543 0.218551,0 1.694462,1.51731 2.160155,2.220743 0.1961,0.296212 0.454081,0.930894 0.573289,1.410404 0.119208,0.479511 0.30076,1.165512 0.403448,1.524442 0.102692,0.358937 0.224066,1.063752 0.269726,1.566256 0.04568,0.502509 0.218112,1.530362 0.383227,2.284123 0.750446,3.425851 0.583283,14.849978 -0.23558,16.099722 -0.148559,0.226725 -0.343076,0.345957 -0.564414,0.345957 h -0.337763 z m -22.72701,-1.358143 c -0.09297,-0.03887 -0.311697,-0.366356 -0.486057,-0.727793 -0.298082,-0.617894 -0.308051,-0.709462 -0.166886,-1.532696 0.127214,-0.741837 0.116727,-0.994613 -0.06865,-1.655321 -0.120338,-0.428879 -0.218797,-1.057837 -0.218797,-1.397677 0,-0.339841 -0.08682,-0.785777 -0.192924,-0.990964 -0.106106,-0.205192 -0.191107,-0.686834 -0.188892,-1.070322 0.002,-0.383483 -4.94e-4,-1.19649 -0.0061,-1.806679 -0.01,-1.09112 0.06117,-1.508326 0.700927,-4.111417 0.630941,-2.567248 0.845398,-3.220887 1.340033,-4.08431 0.275854,-0.481524 0.641893,-1.154964 0.813427,-1.496537 0.171528,-0.341571 0.598892,-0.949036 0.949693,-1.349919 0.350807,-0.400882 0.77742,-1.002433 0.948036,-1.336777 0.316645,-0.620509 0.771155,-1.103818 1.411356,-1.500789 0.261341,-0.162047 0.358932,-0.328208 0.358932,-0.611116 0,-0.3244 0.05234,-0.388554 0.31698,-0.388554 0.399176,0 0.822326,0.382619 0.585217,0.529162 -0.115138,0.07116 -0.05256,0.194137 0.218768,0.429948 0.292285,0.254025 0.349894,0.377628 0.24951,0.535353 -1.197018,1.880706 -2.039787,3.117134 -2.441192,3.581476 -0.272415,0.315126 -0.552639,0.785905 -0.622723,1.046175 -0.120328,0.446869 -0.833825,1.698284 -1.048893,1.839681 -0.21675,0.142497 -0.920667,1.480144 -1.117601,2.123768 -0.114847,0.375344 -0.346288,1.122949 -0.514318,1.661346 -0.502302,1.609489 -0.611649,2.776627 -0.5452,5.819483 0.0336,1.539134 0.118473,2.871058 0.188582,2.959824 0.111586,0.141293 0.287894,1.744961 0.340614,3.098131 0.01554,0.398929 -0.02358,0.46001 -0.308509,0.481992 -0.179466,0.01386 -0.402368,-0.0066 -0.495337,-0.04548 z m 36.84551,-5.135289 c -0.04435,-0.07179 -0.187477,-0.130525 -0.318026,-0.130525 -0.370589,0 -0.615635,-0.36457 -0.424073,-0.630917 0.302432,-0.420487 0.326629,-0.582297 0.110698,-0.740186 -0.303434,-0.22188 -0.270989,-0.794157 0.108404,-1.912054 0.178968,-0.527332 0.326828,-1.22309 0.328584,-1.546128 0.0034,-0.626369 0.340531,-2.86531 0.447559,-2.972343 0.142694,-0.14269 -0.227297,-0.56653 -0.709136,-0.812346 -0.668996,-0.341296 -2.166725,-0.360792 -2.848888,-0.0371 -0.630108,0.299005 -2.158714,1.875763 -2.340286,2.413997 -0.07957,0.235875 -0.22782,0.653244 -0.329431,0.927479 -0.141644,0.382265 -0.153706,0.634317 -0.05168,1.080149 0.09474,0.413999 0.09145,0.623162 -0.01145,0.726037 -0.416501,0.416501 -0.94518,-0.493249 -0.94518,-1.626459 0,-0.585513 0.108617,-0.91192 0.661616,-1.98827 1.034285,-2.01311 1.254242,-2.29026 2.197473,-2.768858 0.803783,-0.407843 0.89577,-0.424196 2.386209,-0.424196 1.58542,0 2.225315,0.142827 2.744354,0.612551 0.265875,0.240616 0.318107,0.952949 0.07004,0.955149 -0.08973,0.001 0.02319,0.148333 0.250937,0.327853 0.608447,0.479615 0.877744,1.746343 0.762423,3.586339 l -0.0859,1.370476 0.317282,-0.456828 c 0.453715,-0.653259 0.526069,-0.975869 0.313206,-1.396577 -0.203208,-0.401637 -0.550488,-2.101663 -0.449878,-2.202273 0.131758,-0.131763 0.747378,0.207653 0.957054,0.527658 0.120372,0.183708 0.249895,0.609384 0.287831,0.945944 0.05604,0.497211 0.08867,0.558692 0.174019,0.327961 0.160661,-0.434304 -0.313907,-1.722476 -0.792426,-2.150979 -0.220455,-0.197412 -0.551633,-0.358936 -0.735947,-0.358936 -0.46859,0 -0.335302,-0.255302 0.256525,-0.491355 0.627188,-0.250157 1.28833,-0.07674 1.867978,0.489974 0.659469,0.644755 0.864691,1.226523 0.874315,2.478536 0.0082,1.071072 -0.01278,1.152448 -0.568291,2.201543 -0.482121,0.91047 -0.687205,1.159961 -1.248881,1.519257 -0.369616,0.236444 -0.959988,0.764767 -1.311935,1.17405 -0.351945,0.409284 -0.798509,0.826895 -0.992356,0.928018 -0.411922,0.214885 -0.83817,0.238746 -0.952761,0.05334 z m -3.946302,-3.520548 c -0.380563,-0.09038 -0.932832,-0.569737 -0.943902,-0.819286 -0.0069,-0.15599 0.753924,-0.113195 0.853553,0.048 0.05691,0.0921 0.300424,0.117088 0.660308,0.06775 0.493531,-0.06765 0.570137,-0.04612 0.570137,0.160172 0,0.249812 -0.391244,0.679908 -0.597624,0.656979 -0.06614,-0.0073 -0.310247,-0.05849 -0.542472,-0.113633 z m 2.347415,-1.919222 c -0.24812,-0.09715 -0.195015,-0.494912 0.101956,-0.763666 0.23887,-0.216178 0.285025,-0.220002 0.466389,-0.03863 0.18137,0.181365 0.171282,0.234183 -0.101952,0.533731 -0.166783,0.182844 -0.376656,0.3037 -0.466393,0.268565 z m -2.818609,-0.280816 c -0.212295,-0.234588 -0.290983,-0.544435 -0.138255,-0.544435 0.201843,0 0.835897,0.466862 0.835897,0.615486 0,0.248781 -0.449636,0.202992 -0.697642,-0.07105 z m -4.63e-4,-1.426106 c -0.07771,-0.12573 0.369789,-0.684585 0.548169,-0.684585 0.262016,0 0.302926,0.280915 0.07723,0.530307 -0.234755,0.259402 -0.517348,0.329112 -0.625401,0.154278 z M -45.715035,29.531806 c -0.628159,-0.272459 -0.917534,-0.56355 -0.917534,-0.92298 0,-0.168342 0.03226,-0.306073 0.07174,-0.306073 0.16702,0 0.918472,0.447105 1.047551,0.62328 0.14194,0.193733 0.800044,0.177335 1.458502,-0.03636 0.368472,-0.119573 0.376508,0.05568 0.02314,0.504886 -0.316961,0.402954 -0.951523,0.454683 -1.683421,0.137229 z m -4.376349,-0.240833 c -0.259781,-0.204106 -0.259795,-0.206055 -0.0034,-0.404113 0.221856,-0.171277 0.234401,-0.236473 0.09,-0.467692 -0.138976,-0.222536 -0.134443,-0.31956 0.02639,-0.565026 0.106801,-0.162994 0.235481,-0.525196 0.285956,-0.804892 0.05048,-0.279696 0.152487,-0.584902 0.22669,-0.67824 0.09569,-0.120348 0.08026,-0.224367 -0.05305,-0.357674 -0.163616,-0.163615 -0.263639,-0.148274 -0.771915,0.118409 -0.321168,0.168509 -0.848249,0.341103 -1.171288,0.383537 -0.323042,0.04243 -1.102811,0.285059 -1.73282,0.539172 l -1.145473,0.462018 -0.484108,-0.259466 c -0.266259,-0.142709 -0.561864,-0.25947 -0.6569,-0.25947 -0.09503,0 -0.135794,-0.05985 -0.09059,-0.133001 0.122632,-0.198418 1.322847,-0.780646 1.609233,-0.780646 0.471228,0 1.288818,-0.367461 1.977714,-0.888863 0.37968,-0.287372 0.814187,-0.581424 0.965568,-0.653447 0.151382,-0.07203 0.562974,-0.26319 0.914648,-0.424808 0.874178,-0.401736 1.404406,-0.897384 1.759278,-1.644541 0.502607,-1.058215 2.163997,-2.1498 3.605292,-2.368791 1.219706,-0.185323 2.398536,-0.0064 3.089282,0.468813 0.725914,0.499443 0.856201,0.657469 1.286771,1.560736 l 0.347457,0.728903 1.749662,-0.02496 c 1.937338,-0.02764 2.622888,0.156674 2.704048,0.726989 0.05487,0.385527 -0.384899,0.45945 -2.42299,0.407292 l -1.599134,-0.04095 2.22e-4,0.783128 c 2.12e-4,0.839513 -0.308421,2.668469 -0.51568,3.055731 -0.18576,0.347098 -0.763311,0.686183 -1.089349,0.639561 -0.393482,-0.05626 -0.433056,-0.455052 -0.09108,-0.917598 0.382965,-0.517994 0.749168,-2.343084 0.551189,-2.747064 -0.07861,-0.160419 -0.165629,-0.614712 -0.193368,-1.009538 -0.05741,-0.817201 -0.622639,-2.18439 -1.081169,-2.615157 -0.413744,-0.388692 -1.256029,-0.463393 -2.276679,-0.201915 -1.284009,0.328949 -1.547327,0.655744 -0.622384,0.77242 0.305092,0.03848 0.739801,0.108948 0.966012,0.156585 0.344286,0.0725 0.425465,0.04198 0.498253,-0.187352 0.192666,-0.607043 0.941168,-0.03214 0.810274,0.622349 -0.06616,0.330781 -0.04248,0.372474 0.178755,0.314622 0.162087,-0.04238 0.253511,-0.0017 0.250872,0.111686 -0.0065,0.28007 -0.328455,0.635198 -0.575829,0.635198 -0.389537,0 -0.132765,0.325767 0.265681,0.337071 0.624854,0.01772 0.70586,0.04587 0.70586,0.245218 0,0.226137 -0.82561,0.491863 -2.218858,0.714143 -0.538402,0.0859 -1.212281,0.217406 -1.497507,0.292236 -0.285231,0.07483 -0.897364,0.189692 -1.360294,0.255248 -1.003277,0.142083 -1.241737,0.292369 -1.045553,0.658946 0.0964,0.180113 0.09558,0.376336 -0.0029,0.658375 -0.07704,0.220988 -0.140064,0.54193 -0.140064,0.713211 0,0.171277 -0.08151,0.441502 -0.181129,0.6005 -0.09962,0.158994 -0.218649,0.503432 -0.264497,0.765418 -0.04588,0.261987 -0.164671,0.543819 -0.264048,0.626295 -0.314485,0.261 -1.02847,0.305235 -1.313405,0.08137 z m 6.517565,-5.683758 c 0.184143,-0.07001 0.334805,-0.187479 0.334805,-0.261043 0,-0.205549 -0.200792,-0.159855 -0.540257,0.122949 -0.345287,0.287652 -0.288429,0.325868 0.205452,0.138094 z m -1.034941,4.174633 c -0.04395,-0.07114 -0.0057,-0.448955 0.08519,-0.839601 0.161702,-0.695512 0.173364,-0.708698 0.561686,-0.635037 0.532453,0.100995 0.528546,0.09267 0.328411,0.699083 -0.221476,0.671082 -0.770188,1.107419 -0.975291,0.775555 z m -1.903822,-1.683313 c -0.313083,-0.256564 -0.313547,-0.260466 -0.05472,-0.458856 0.577295,-0.442507 1.358893,-0.113199 1.018984,0.429322 -0.194714,0.31078 -0.60569,0.323369 -0.964256,0.02955 z m 3.436719,-0.565509 c -0.341527,-0.164711 -0.398001,-0.68639 -0.08722,-0.805647 0.472886,-0.181464 0.831551,-0.08396 0.915063,0.248775 0.08535,0.340087 -0.12421,0.723112 -0.387005,0.707336 -0.08094,-0.0049 -0.279321,-0.07257 -0.440841,-0.150464 z"
       id="path2" /></g></svg>
